<?xml version="1.0" standalone="no"?><!-- Generator: Gravit.io --><svg xmlns="http://www.w3.org/2000/svg" xmlns:xlink="http://www.w3.org/1999/xlink" style="isolation:isolate" viewBox="0 0 272 302" width="272" height="302"><defs><clipPath id="_clipPath_dicG9o6pTNnSCGm14Zy5SKswa2NxmQSq"><rect width="272" height="302"/></clipPath></defs><g clip-path="url(#_clipPath_dicG9o6pTNnSCGm14Zy5SKswa2NxmQSq)"><g><g><path d=" M 135.725 89.962 L 135.725 89.962 C 183.704 89.962 222.657 145.984 222.657 214.986 L 222.657 214.986 C 222.657 245.003 185.841 269.372 140.494 269.372 L 130.956 269.372 C 85.609 269.372 48.793 245.003 48.793 214.986 L 48.793 214.986 C 48.793 145.984 87.746 89.962 135.725 89.962 Z " fill="rgb(172,132,73)"/></g><g><path d=" M 68.683 38.369 C 60.935 33.722 57.773 24.498 61.628 17.783 C 65.482 11.068 74.902 9.389 82.65 14.036 C 90.399 18.683 93.56 27.907 89.705 34.622 C 85.851 41.337 76.431 43.016 68.683 38.369 Z " fill="rgb(189,146,82)"/><path d=" M 71.822 36.15 C 67.143 33.344 65.066 28.064 67.188 24.367 C 69.31 20.671 74.832 19.948 79.511 22.754 C 84.191 25.561 86.267 30.84 84.145 34.537 C 82.023 38.234 76.501 38.956 71.822 36.15 Z " fill="rgb(255,255,208)"/><path d=" M 199.317 38.369 C 207.065 33.722 210.227 24.498 206.372 17.783 C 202.518 11.068 193.098 9.389 185.35 14.036 C 177.601 18.683 174.44 27.907 178.295 34.622 C 182.149 41.337 191.569 43.016 199.317 38.369 Z " fill="rgb(189,146,82)"/><path d=" M 196.178 36.15 C 200.857 33.344 202.934 28.064 200.812 24.367 C 198.69 20.671 193.168 19.948 188.489 22.754 C 183.809 25.561 181.733 30.84 183.855 34.537 C 185.977 38.234 191.499 38.956 196.178 36.15 Z " fill="rgb(255,255,208)"/><ellipse vector-effect="non-scaling-stroke" cx="133.7961025897772" cy="64.43863276626004" rx="64.18147120833046" ry="62.43863276626004" fill="rgb(189,146,82)"/><ellipse vector-effect="non-scaling-stroke" cx="102.75384219875718" cy="49.038334818697926" rx="7.862373763436324" ry="8.041322304940394" fill="rgb(23,23,23)"/><ellipse vector-effect="non-scaling-stroke" cx="104.17720296627567" cy="45.2837175957426" rx="2.7111633667021806" ry="2.710759839660625" fill="rgb(255,255,255)"/><ellipse vector-effect="non-scaling-stroke" cx="163.55168069705311" cy="49.038334818697926" rx="7.862373763436324" ry="8.041322304940394" fill="rgb(23,23,23)"/><ellipse vector-effect="non-scaling-stroke" cx="161.9249826770324" cy="45.2837175957426" rx="2.7111633667021806" ry="2.710759839660625" fill="rgb(255,255,255)"/><ellipse vector-effect="non-scaling-stroke" cx="133.7961025897768" cy="89.72267428365728" rx="68.50952983494707" ry="39.678618457924856" fill="rgb(215,170,103)"/><path d=" M 88.749 91.199 C 87.548 87.528 89.271 83.886 92.594 83.071 C 95.916 82.256 99.589 84.575 100.79 88.246 C 101.991 91.917 100.269 95.56 96.946 96.374 C 93.623 97.189 89.95 94.87 88.749 91.199 Z " fill="rgb(255,255,208)"/><path d=" M 180.474 91.199 C 181.675 87.528 179.953 83.886 176.63 83.071 C 173.307 82.256 169.634 84.575 168.433 88.246 C 167.232 91.917 168.955 95.56 172.277 96.374 C 175.6 97.189 179.273 94.87 180.474 91.199 Z " fill="rgb(255,255,208)"/></g><g><path d=" M 255.685 302 L 12.315 302 C 4.966 302 -1 296.034 -1 288.685 L -1 198.008 C -1 190.66 4.966 184.694 12.315 184.694 L 255.685 184.694 C 263.034 184.694 269 190.66 269 198.008 L 269 288.685 C 269 296.034 263.034 302 255.685 302 Z " fill="rgb(235,235,235)"/><path d=" M 255.685 302 L 12.315 302 C 4.966 302 -1 296.034 -1 288.685 L -1 198.008 C -1 190.66 4.966 184.694 12.315 184.694 L 255.685 184.694 C 263.034 184.694 269 190.66 269 198.008 L 269 288.685 C 269 296.034 263.034 302 255.685 302 Z " fill="none" vector-effect="non-scaling-stroke" stroke-width="2" stroke="rgb(206,206,206)" stroke-linejoin="miter" stroke-linecap="square" stroke-miterlimit="2"/><path d=" M 249.627 291.793 L 242.114 291.793 C 239.758 291.793 237.846 289.881 237.846 287.526 L 237.846 282.548 C 237.846 280.192 239.758 278.28 242.114 278.28 L 249.627 278.28 C 251.983 278.28 253.895 280.192 253.895 282.548 L 253.895 287.526 C 253.895 289.881 251.983 291.793 249.627 291.793 Z " fill="rgb(189,189,189)"/><path d=" M 203.032 291.793 L 195.518 291.793 C 193.163 291.793 191.25 289.881 191.25 287.526 L 191.25 282.548 C 191.25 280.192 193.163 278.28 195.518 278.28 L 203.032 278.28 C 205.387 278.28 207.299 280.192 207.299 282.548 L 207.299 287.526 C 207.299 289.881 205.387 291.793 203.032 291.793 Z " fill="rgb(189,189,189)"/><path d=" M 179.408 291.793 L 171.894 291.793 C 169.539 291.793 167.626 289.881 167.626 287.526 L 167.626 282.548 C 167.626 280.192 169.539 278.28 171.894 278.28 L 179.408 278.28 C 181.763 278.28 183.675 280.192 183.675 282.548 L 183.675 287.526 C 183.675 289.881 181.763 291.793 179.408 291.793 Z " fill="rgb(189,189,189)"/><path d=" M 227.599 291.793 L 220.086 291.793 C 217.73 291.793 215.818 289.881 215.818 287.526 L 215.818 282.548 C 215.818 280.192 217.73 278.28 220.086 278.28 L 227.599 278.28 C 229.955 278.28 231.867 280.192 231.867 282.548 L 231.867 287.526 C 231.867 289.881 229.955 291.793 227.599 291.793 Z " fill="rgb(189,189,189)"/><path d=" M 155.567 291.793 L 148.053 291.793 C 145.698 291.793 143.786 289.881 143.786 287.526 L 143.786 282.548 C 143.786 280.192 145.698 278.28 148.053 278.28 L 155.567 278.28 C 157.922 278.28 159.835 280.192 159.835 282.548 L 159.835 287.526 C 159.835 289.881 157.922 291.793 155.567 291.793 Z " fill="rgb(189,189,189)"/><path d=" M 131.726 291.793 L 124.213 291.793 C 121.857 291.793 119.945 289.881 119.945 287.526 L 119.945 282.548 C 119.945 280.192 121.857 278.28 124.213 278.28 L 131.726 278.28 C 134.082 278.28 135.994 280.192 135.994 282.548 L 135.994 287.526 C 135.994 289.881 134.082 291.793 131.726 291.793 Z " fill="rgb(189,189,189)"/><path d=" M 107.886 291.793 L 100.372 291.793 C 98.017 291.793 96.104 289.881 96.104 287.526 L 96.104 282.548 C 96.104 280.192 98.017 278.28 100.372 278.28 L 107.886 278.28 C 110.241 278.28 112.153 280.192 112.153 282.548 L 112.153 287.526 C 112.153 289.881 110.241 291.793 107.886 291.793 Z " fill="rgb(189,189,189)"/><path d=" M 84.045 291.793 L 76.531 291.793 C 74.176 291.793 72.264 289.881 72.264 287.526 L 72.264 282.548 C 72.264 280.192 74.176 278.28 76.531 278.28 L 84.045 278.28 C 86.401 278.28 88.313 280.192 88.313 282.548 L 88.313 287.526 C 88.313 289.881 86.401 291.793 84.045 291.793 Z " fill="rgb(189,189,189)"/><path d=" M 60.205 291.793 L 52.691 291.793 C 50.335 291.793 48.423 289.881 48.423 287.526 L 48.423 282.548 C 48.423 280.192 50.335 278.28 52.691 278.28 L 60.205 278.28 C 62.56 278.28 64.472 280.192 64.472 282.548 L 64.472 287.526 C 64.472 289.881 62.56 291.793 60.205 291.793 Z " fill="rgb(189,189,189)"/><path d=" M 37.19 291.793 L 21.498 291.793 C 18.46 291.793 15.993 289.327 15.993 286.288 L 15.993 283.785 C 15.993 280.747 18.46 278.28 21.498 278.28 L 37.19 278.28 C 40.228 278.28 42.695 280.747 42.695 283.785 L 42.695 286.288 C 42.695 289.327 40.228 291.793 37.19 291.793 Z " fill="rgb(189,189,189)"/><path d=" M 247.303 272.386 L 227.154 272.386 C 223.516 272.386 220.562 269.432 220.562 265.793 L 220.562 263.453 C 220.562 259.814 223.516 256.86 227.154 256.86 L 247.303 256.86 C 250.941 256.86 253.895 259.814 253.895 263.453 L 253.895 265.793 C 253.895 269.432 250.941 272.386 247.303 272.386 Z " fill="rgb(189,189,189)"/><path d=" M 247.362 251.11 L 216.766 251.11 C 212.487 251.11 209.013 247.636 209.013 243.357 L 209.013 243.337 C 209.013 239.058 212.487 235.584 216.766 235.584 L 247.362 235.584 C 251.641 235.584 255.115 239.058 255.115 243.337 L 255.115 243.357 C 255.115 247.636 251.641 251.11 247.362 251.11 Z " fill="rgb(189,189,189)"/><path d=" M 247.362 229.834 L 216.766 229.834 C 212.487 229.834 209.013 226.36 209.013 222.081 L 209.013 222.061 C 209.013 217.782 212.487 214.308 216.766 214.308 L 247.362 214.308 C 251.641 214.308 255.115 217.782 255.115 222.061 L 255.115 222.081 C 255.115 226.36 251.641 229.834 247.362 229.834 Z " fill="rgb(189,189,189)"/><path d=" M 199.559 250.104 L 192.045 250.104 C 189.69 250.104 187.778 248.191 187.778 245.836 L 187.778 240.858 C 187.778 238.503 189.69 236.59 192.045 236.59 L 199.559 236.59 C 201.914 236.59 203.826 238.503 203.826 240.858 L 203.826 245.836 C 203.826 248.191 201.914 250.104 199.559 250.104 Z " fill="rgb(189,189,189)"/><path d=" M 178.272 250.104 L 170.758 250.104 C 168.403 250.104 166.491 248.191 166.491 245.836 L 166.491 240.858 C 166.491 238.503 168.403 236.59 170.758 236.59 L 178.272 236.59 C 180.627 236.59 182.54 238.503 182.54 240.858 L 182.54 245.836 C 182.54 248.191 180.627 250.104 178.272 250.104 Z " fill="rgb(189,189,189)"/><path d=" M 156.028 250.104 L 148.514 250.104 C 146.159 250.104 144.247 248.191 144.247 245.836 L 144.247 240.858 C 144.247 238.503 146.159 236.59 148.514 236.59 L 156.028 236.59 C 158.383 236.59 160.296 238.503 160.296 240.858 L 160.296 245.836 C 160.296 248.191 158.383 250.104 156.028 250.104 Z " fill="rgb(189,189,189)"/><path d=" M 134.455 250.104 L 126.941 250.104 C 124.585 250.104 122.673 248.191 122.673 245.836 L 122.673 240.858 C 122.673 238.503 124.585 236.59 126.941 236.59 L 134.455 236.59 C 136.81 236.59 138.722 238.503 138.722 240.858 L 138.722 245.836 C 138.722 248.191 136.81 250.104 134.455 250.104 Z " fill="rgb(189,189,189)"/><path d=" M 112.438 250.104 L 104.924 250.104 C 102.568 250.104 100.656 248.191 100.656 245.836 L 100.656 240.858 C 100.656 238.503 102.568 236.59 104.924 236.59 L 112.438 236.59 C 114.793 236.59 116.705 238.503 116.705 240.858 L 116.705 245.836 C 116.705 248.191 114.793 250.104 112.438 250.104 Z " fill="rgb(189,189,189)"/><path d=" M 68.987 250.104 L 61.473 250.104 C 59.118 250.104 57.206 248.191 57.206 245.836 L 57.206 240.858 C 57.206 238.503 59.118 236.59 61.473 236.59 L 68.987 236.59 C 71.342 236.59 73.255 238.503 73.255 240.858 L 73.255 245.836 C 73.255 248.191 71.342 250.104 68.987 250.104 Z " fill="rgb(189,189,189)"/><path d=" M 90.488 250.104 L 82.975 250.104 C 80.619 250.104 78.707 248.191 78.707 245.836 L 78.707 240.858 C 78.707 238.503 80.619 236.59 82.975 236.59 L 90.488 236.59 C 92.844 236.59 94.756 238.503 94.756 240.858 L 94.756 245.836 C 94.756 248.191 92.844 250.104 90.488 250.104 Z " fill="rgb(189,189,189)"/><path d=" M 45.008 250.104 L 27.684 250.104 C 24.531 250.104 21.972 247.544 21.972 244.392 L 21.972 242.302 C 21.972 239.15 24.531 236.59 27.684 236.59 L 45.008 236.59 C 48.16 236.59 50.719 239.15 50.719 242.302 L 50.719 244.392 C 50.719 247.544 48.16 250.104 45.008 250.104 Z " fill="rgb(189,189,189)"/><path d=" M 199.587 229.834 L 192.058 229.834 C 189.718 229.834 187.819 227.934 187.819 225.594 L 187.819 220.704 C 187.819 218.364 189.718 216.464 192.058 216.464 L 199.587 216.464 C 201.927 216.464 203.826 218.364 203.826 220.704 L 203.826 225.594 C 203.826 227.934 201.927 229.834 199.587 229.834 Z " fill="rgb(189,189,189)"/><path d=" M 178.355 229.834 L 170.826 229.834 C 168.486 229.834 166.586 227.934 166.586 225.594 L 166.586 220.704 C 166.586 218.364 168.486 216.464 170.826 216.464 L 178.355 216.464 C 180.694 216.464 182.594 218.364 182.594 220.704 L 182.594 225.594 C 182.594 227.934 180.694 229.834 178.355 229.834 Z " fill="rgb(189,189,189)"/><path d=" M 156.167 229.834 L 148.638 229.834 C 146.299 229.834 144.399 227.934 144.399 225.594 L 144.399 220.704 C 144.399 218.364 146.299 216.464 148.638 216.464 L 156.167 216.464 C 158.507 216.464 160.407 218.364 160.407 220.704 L 160.407 225.594 C 160.407 227.934 158.507 229.834 156.167 229.834 Z " fill="rgb(189,189,189)"/><path d=" M 134.649 229.834 L 127.12 229.834 C 124.78 229.834 122.881 227.934 122.881 225.594 L 122.881 220.704 C 122.881 218.364 124.78 216.464 127.12 216.464 L 134.649 216.464 C 136.989 216.464 138.889 218.364 138.889 220.704 L 138.889 225.594 C 138.889 227.934 136.989 229.834 134.649 229.834 Z " fill="rgb(189,189,189)"/><path d=" M 112.689 229.834 L 105.16 229.834 C 102.82 229.834 100.92 227.934 100.92 225.594 L 100.92 220.704 C 100.92 218.364 102.82 216.464 105.16 216.464 L 112.689 216.464 C 115.028 216.464 116.928 218.364 116.928 220.704 L 116.928 225.594 C 116.928 227.934 115.028 229.834 112.689 229.834 Z " fill="rgb(189,189,189)"/><path d=" M 69.349 229.834 L 61.82 229.834 C 59.48 229.834 57.581 227.934 57.581 225.594 L 57.581 220.704 C 57.581 218.364 59.48 216.464 61.82 216.464 L 69.349 216.464 C 71.689 216.464 73.589 218.364 73.589 220.704 L 73.589 225.594 C 73.589 227.934 71.689 229.834 69.349 229.834 Z " fill="rgb(189,189,189)"/><path d=" M 90.795 229.834 L 83.266 229.834 C 80.927 229.834 79.027 227.934 79.027 225.594 L 79.027 220.704 C 79.027 218.364 80.927 216.464 83.266 216.464 L 90.795 216.464 C 93.135 216.464 95.035 218.364 95.035 220.704 L 95.035 225.594 C 95.035 227.934 93.135 229.834 90.795 229.834 Z " fill="rgb(189,189,189)"/><path d=" M 47.039 229.834 L 40.417 229.834 C 38.17 229.834 36.346 228.009 36.346 225.762 L 36.346 220.536 C 36.346 218.289 38.17 216.464 40.417 216.464 L 47.039 216.464 C 49.287 216.464 51.111 218.289 51.111 220.536 L 51.111 225.762 C 51.111 228.009 49.287 229.834 47.039 229.834 Z " fill="rgb(189,189,189)"/><path d=" M 26.687 229.834 L 20.065 229.834 C 17.817 229.834 15.993 228.009 15.993 225.762 L 15.993 220.536 C 15.993 218.289 17.817 216.464 20.065 216.464 L 26.687 216.464 C 28.934 216.464 30.758 218.289 30.758 220.536 L 30.758 225.762 C 30.758 228.009 28.934 229.834 26.687 229.834 Z " fill="rgb(189,189,189)"/><path d=" M 216.056 209.079 L 206.792 209.079 C 204.305 209.079 202.287 207.06 202.287 204.573 L 202.287 200.358 C 202.287 197.872 204.305 195.853 206.792 195.853 L 216.056 195.853 C 218.543 195.853 220.562 197.872 220.562 200.358 L 220.562 204.573 C 220.562 207.06 218.543 209.079 216.056 209.079 Z " fill="rgb(189,189,189)"/><path d=" M 235.722 209.079 L 228.406 209.079 C 226.105 209.079 224.236 207.21 224.236 204.909 L 224.236 200.023 C 224.236 197.721 226.105 195.853 228.406 195.853 L 235.722 195.853 C 238.023 195.853 239.892 197.721 239.892 200.023 L 239.892 204.909 C 239.892 207.21 238.023 209.079 235.722 209.079 Z " fill="rgb(189,189,189)"/><path d=" M 250.586 209.079 L 247.344 209.079 C 245.518 209.079 244.035 207.596 244.035 205.769 L 244.035 199.162 C 244.035 197.336 245.518 195.853 247.344 195.853 L 250.586 195.853 C 252.412 195.853 253.895 197.336 253.895 199.162 L 253.895 205.769 C 253.895 207.596 252.412 209.079 250.586 209.079 Z " fill="rgb(189,189,189)"/><path d=" M 193.412 208.558 L 117.384 208.558 C 114.497 208.558 112.153 206.214 112.153 203.327 L 112.153 200.275 C 112.153 197.388 114.497 195.044 117.384 195.044 L 193.412 195.044 C 196.299 195.044 198.643 197.388 198.643 200.275 L 198.643 203.327 C 198.643 206.214 196.299 208.558 193.412 208.558 Z " fill="rgb(189,189,189)"/><path d=" M 104.313 209.079 L 96.8 209.079 C 94.444 209.079 92.532 207.166 92.532 204.811 L 92.532 199.833 C 92.532 197.478 94.444 195.565 96.8 195.565 L 104.313 195.565 C 106.669 195.565 108.581 197.478 108.581 199.833 L 108.581 204.811 C 108.581 207.166 106.669 209.079 104.313 209.079 Z " fill="rgb(189,189,189)"/><path d=" M 82.364 208.27 L 74.85 208.27 C 72.495 208.27 70.583 206.358 70.583 204.002 L 70.583 199.024 C 70.583 196.669 72.495 194.757 74.85 194.757 L 82.364 194.757 C 84.72 194.757 86.632 196.669 86.632 199.024 L 86.632 204.002 C 86.632 206.358 84.72 208.27 82.364 208.27 Z " fill="rgb(189,189,189)"/><path d=" M 60.25 208.27 L 52.645 208.27 C 50.315 208.27 48.423 206.378 48.423 204.048 L 48.423 199.266 C 48.423 196.936 50.315 195.044 52.645 195.044 L 60.25 195.044 C 62.58 195.044 64.472 196.936 64.472 199.266 L 64.472 204.048 C 64.472 206.378 62.58 208.27 60.25 208.27 Z " fill="rgb(189,189,189)"/><path d=" M 23.154 208.27 L 15.549 208.27 C 13.218 208.27 11.327 206.378 11.327 204.048 L 11.327 199.266 C 11.327 196.936 13.218 195.044 15.549 195.044 L 23.154 195.044 C 25.484 195.044 27.376 196.936 27.376 199.266 L 27.376 204.048 C 27.376 206.378 25.484 208.27 23.154 208.27 Z " fill="rgb(189,189,189)"/><path d=" M 43.206 208.27 L 32.593 208.27 C 31.093 208.27 29.875 207.052 29.875 205.552 L 29.875 205.507 C 29.875 204.007 31.093 202.789 32.593 202.789 L 43.206 202.789 C 44.706 202.789 45.924 204.007 45.924 205.507 L 45.924 205.552 C 45.924 207.052 44.706 208.27 43.206 208.27 Z " fill="rgb(189,189,189)"/><path d=" M 209.161 272.386 L 201.648 272.386 C 199.292 272.386 197.38 270.474 197.38 268.118 L 197.38 263.14 C 197.38 260.785 199.292 258.873 201.648 258.873 L 209.161 258.873 C 211.517 258.873 213.429 260.785 213.429 263.14 L 213.429 268.118 C 213.429 270.474 211.517 272.386 209.161 272.386 Z " fill="rgb(189,189,189)"/><path d=" M 187.874 272.386 L 180.361 272.386 C 178.005 272.386 176.093 270.474 176.093 268.118 L 176.093 263.14 C 176.093 260.785 178.005 258.873 180.361 258.873 L 187.874 258.873 C 190.23 258.873 192.142 260.785 192.142 263.14 L 192.142 268.118 C 192.142 270.474 190.23 272.386 187.874 272.386 Z " fill="rgb(189,189,189)"/><path d=" M 165.63 272.386 L 158.117 272.386 C 155.761 272.386 153.849 270.474 153.849 268.118 L 153.849 263.14 C 153.849 260.785 155.761 258.873 158.117 258.873 L 165.63 258.873 C 167.986 258.873 169.898 260.785 169.898 263.14 L 169.898 268.118 C 169.898 270.474 167.986 272.386 165.63 272.386 Z " fill="rgb(189,189,189)"/><path d=" M 144.057 272.386 L 136.543 272.386 C 134.188 272.386 132.276 270.474 132.276 268.118 L 132.276 263.14 C 132.276 260.785 134.188 258.873 136.543 258.873 L 144.057 258.873 C 146.412 258.873 148.325 260.785 148.325 263.14 L 148.325 268.118 C 148.325 270.474 146.412 272.386 144.057 272.386 Z " fill="rgb(189,189,189)"/><path d=" M 122.04 272.386 L 114.526 272.386 C 112.171 272.386 110.259 270.474 110.259 268.118 L 110.259 263.14 C 110.259 260.785 112.171 258.873 114.526 258.873 L 122.04 258.873 C 124.395 258.873 126.308 260.785 126.308 263.14 L 126.308 268.118 C 126.308 270.474 124.395 272.386 122.04 272.386 Z " fill="rgb(189,189,189)"/><path d=" M 78.589 272.386 L 71.076 272.386 C 68.72 272.386 66.808 270.474 66.808 268.118 L 66.808 263.14 C 66.808 260.785 68.72 258.873 71.076 258.873 L 78.589 258.873 C 80.945 258.873 82.857 260.785 82.857 263.14 L 82.857 268.118 C 82.857 270.474 80.945 272.386 78.589 272.386 Z " fill="rgb(189,189,189)"/><path d=" M 100.091 272.386 L 92.577 272.386 C 90.222 272.386 88.309 270.474 88.309 268.118 L 88.309 263.14 C 88.309 260.785 90.222 258.873 92.577 258.873 L 100.091 258.873 C 102.446 258.873 104.358 260.785 104.358 263.14 L 104.358 268.118 C 104.358 270.474 102.446 272.386 100.091 272.386 Z " fill="rgb(189,189,189)"/><path d=" M 56.404 272.386 L 48.89 272.386 C 46.535 272.386 44.623 270.474 44.623 268.118 L 44.623 263.14 C 44.623 260.785 46.535 258.873 48.89 258.873 L 56.404 258.873 C 58.759 258.873 60.672 260.785 60.672 263.14 L 60.672 268.118 C 60.672 270.474 58.759 272.386 56.404 272.386 Z " fill="rgb(189,189,189)"/><path d=" M 34.219 272.386 L 26.705 272.386 C 24.35 272.386 22.437 270.474 22.437 268.118 L 22.437 263.14 C 22.437 260.785 24.35 258.873 26.705 258.873 L 34.219 258.873 C 36.574 258.873 38.486 260.785 38.486 263.14 L 38.486 268.118 C 38.486 270.474 36.574 272.386 34.219 272.386 Z " fill="rgb(189,189,189)"/><path d=" M 43.206 200.992 L 32.593 200.992 C 31.093 200.992 29.875 199.774 29.875 198.274 L 29.875 198.229 C 29.875 196.729 31.093 195.512 32.593 195.512 L 43.206 195.512 C 44.706 195.512 45.924 196.729 45.924 198.229 L 45.924 198.274 C 45.924 199.774 44.706 200.992 43.206 200.992 Z " fill="rgb(189,189,189)"/></g><path d=" M 63.967 159.941 C 40.568 142.059 26.379 119.825 32.302 110.32 C 38.225 100.815 62.029 107.615 85.427 125.497" fill="rgb(172,132,73)"/></g><g><g><path d=" M 135.725 89.962 L 135.725 89.962 C 183.704 89.962 222.657 145.984 222.657 214.986 L 222.657 214.986 C 222.657 245.003 185.841 269.372 140.494 269.372 L 130.956 269.372 C 85.609 269.372 48.793 245.003 48.793 214.986 L 48.793 214.986 C 48.793 145.984 87.746 89.962 135.725 89.962 Z " fill="rgb(172,132,73)"/></g><g><path d=" M 68.683 38.369 C 60.935 33.722 57.773 24.498 61.628 17.783 C 65.482 11.068 74.902 9.389 82.65 14.036 C 90.399 18.683 93.56 27.907 89.705 34.622 C 85.851 41.337 76.431 43.016 68.683 38.369 Z " fill="rgb(189,146,82)"/><path d=" M 71.822 36.15 C 67.143 33.344 65.066 28.064 67.188 24.367 C 69.31 20.671 74.832 19.948 79.511 22.754 C 84.191 25.561 86.267 30.84 84.145 34.537 C 82.023 38.234 76.501 38.956 71.822 36.15 Z " fill="rgb(255,255,208)"/><path d=" M 199.317 38.369 C 207.065 33.722 210.227 24.498 206.372 17.783 C 202.518 11.068 193.098 9.389 185.35 14.036 C 177.601 18.683 174.44 27.907 178.295 34.622 C 182.149 41.337 191.569 43.016 199.317 38.369 Z " fill="rgb(189,146,82)"/><path d=" M 196.178 36.15 C 200.857 33.344 202.934 28.064 200.812 24.367 C 198.69 20.671 193.168 19.948 188.489 22.754 C 183.809 25.561 181.733 30.84 183.855 34.537 C 185.977 38.234 191.499 38.956 196.178 36.15 Z " fill="rgb(255,255,208)"/><ellipse vector-effect="non-scaling-stroke" cx="133.7961025897772" cy="64.43863276626004" rx="64.18147120833046" ry="62.43863276626004" fill="rgb(189,146,82)"/><ellipse vector-effect="non-scaling-stroke" cx="102.75384219875718" cy="49.038334818697926" rx="7.862373763436324" ry="8.041322304940394" fill="rgb(23,23,23)"/><ellipse vector-effect="non-scaling-stroke" cx="104.17720296627567" cy="45.2837175957426" rx="2.7111633667021806" ry="2.710759839660625" fill="rgb(255,255,255)"/><ellipse vector-effect="non-scaling-stroke" cx="163.55168069705311" cy="49.038334818697926" rx="7.862373763436324" ry="8.041322304940394" fill="rgb(23,23,23)"/><ellipse vector-effect="non-scaling-stroke" cx="161.9249826770324" cy="45.2837175957426" rx="2.7111633667021806" ry="2.710759839660625" fill="rgb(255,255,255)"/><ellipse vector-effect="non-scaling-stroke" cx="133.7961025897768" cy="89.72267428365728" rx="68.50952983494707" ry="39.678618457924856" fill="rgb(215,170,103)"/><path d=" M 88.749 91.199 C 87.548 87.528 89.271 83.886 92.594 83.071 C 95.916 82.256 99.589 84.575 100.79 88.246 C 101.991 91.917 100.269 95.56 96.946 96.374 C 93.623 97.189 89.95 94.87 88.749 91.199 Z " fill="rgb(255,255,208)"/><path d=" M 180.474 91.199 C 181.675 87.528 179.953 83.886 176.63 83.071 C 173.307 82.256 169.634 84.575 168.433 88.246 C 167.232 91.917 168.955 95.56 172.277 96.374 C 175.6 97.189 179.273 94.87 180.474 91.199 Z " fill="rgb(255,255,208)"/></g><g><path d=" M 255.685 302 L 12.315 302 C 4.966 302 -1 296.034 -1 288.685 L -1 198.008 C -1 190.66 4.966 184.694 12.315 184.694 L 255.685 184.694 C 263.034 184.694 269 190.66 269 198.008 L 269 288.685 C 269 296.034 263.034 302 255.685 302 Z " fill="rgb(235,235,235)"/><path d=" M 255.685 302 L 12.315 302 C 4.966 302 -1 296.034 -1 288.685 L -1 198.008 C -1 190.66 4.966 184.694 12.315 184.694 L 255.685 184.694 C 263.034 184.694 269 190.66 269 198.008 L 269 288.685 C 269 296.034 263.034 302 255.685 302 Z " fill="none" vector-effect="non-scaling-stroke" stroke-width="2" stroke="rgb(206,206,206)" stroke-linejoin="miter" stroke-linecap="square" stroke-miterlimit="2"/><path d=" M 249.627 291.793 L 242.114 291.793 C 239.758 291.793 237.846 289.881 237.846 287.526 L 237.846 282.548 C 237.846 280.192 239.758 278.28 242.114 278.28 L 249.627 278.28 C 251.983 278.28 253.895 280.192 253.895 282.548 L 253.895 287.526 C 253.895 289.881 251.983 291.793 249.627 291.793 Z " fill="rgb(189,189,189)"/><path d=" M 203.032 291.793 L 195.518 291.793 C 193.163 291.793 191.25 289.881 191.25 287.526 L 191.25 282.548 C 191.25 280.192 193.163 278.28 195.518 278.28 L 203.032 278.28 C 205.387 278.28 207.299 280.192 207.299 282.548 L 207.299 287.526 C 207.299 289.881 205.387 291.793 203.032 291.793 Z " fill="rgb(189,189,189)"/><path d=" M 179.408 291.793 L 171.894 291.793 C 169.539 291.793 167.626 289.881 167.626 287.526 L 167.626 282.548 C 167.626 280.192 169.539 278.28 171.894 278.28 L 179.408 278.28 C 181.763 278.28 183.675 280.192 183.675 282.548 L 183.675 287.526 C 183.675 289.881 181.763 291.793 179.408 291.793 Z " fill="rgb(189,189,189)"/><path d=" M 227.599 291.793 L 220.086 291.793 C 217.73 291.793 215.818 289.881 215.818 287.526 L 215.818 282.548 C 215.818 280.192 217.73 278.28 220.086 278.28 L 227.599 278.28 C 229.955 278.28 231.867 280.192 231.867 282.548 L 231.867 287.526 C 231.867 289.881 229.955 291.793 227.599 291.793 Z " fill="rgb(189,189,189)"/><path d=" M 155.567 291.793 L 148.053 291.793 C 145.698 291.793 143.786 289.881 143.786 287.526 L 143.786 282.548 C 143.786 280.192 145.698 278.28 148.053 278.28 L 155.567 278.28 C 157.922 278.28 159.835 280.192 159.835 282.548 L 159.835 287.526 C 159.835 289.881 157.922 291.793 155.567 291.793 Z " fill="rgb(189,189,189)"/><path d=" M 131.726 291.793 L 124.213 291.793 C 121.857 291.793 119.945 289.881 119.945 287.526 L 119.945 282.548 C 119.945 280.192 121.857 278.28 124.213 278.28 L 131.726 278.28 C 134.082 278.28 135.994 280.192 135.994 282.548 L 135.994 287.526 C 135.994 289.881 134.082 291.793 131.726 291.793 Z " fill="rgb(189,189,189)"/><path d=" M 107.886 291.793 L 100.372 291.793 C 98.017 291.793 96.104 289.881 96.104 287.526 L 96.104 282.548 C 96.104 280.192 98.017 278.28 100.372 278.28 L 107.886 278.28 C 110.241 278.28 112.153 280.192 112.153 282.548 L 112.153 287.526 C 112.153 289.881 110.241 291.793 107.886 291.793 Z " fill="rgb(189,189,189)"/><path d=" M 84.045 291.793 L 76.531 291.793 C 74.176 291.793 72.264 289.881 72.264 287.526 L 72.264 282.548 C 72.264 280.192 74.176 278.28 76.531 278.28 L 84.045 278.28 C 86.401 278.28 88.313 280.192 88.313 282.548 L 88.313 287.526 C 88.313 289.881 86.401 291.793 84.045 291.793 Z " fill="rgb(189,189,189)"/><path d=" M 60.205 291.793 L 52.691 291.793 C 50.335 291.793 48.423 289.881 48.423 287.526 L 48.423 282.548 C 48.423 280.192 50.335 278.28 52.691 278.28 L 60.205 278.28 C 62.56 278.28 64.472 280.192 64.472 282.548 L 64.472 287.526 C 64.472 289.881 62.56 291.793 60.205 291.793 Z " fill="rgb(189,189,189)"/><path d=" M 37.19 291.793 L 21.498 291.793 C 18.46 291.793 15.993 289.327 15.993 286.288 L 15.993 283.785 C 15.993 280.747 18.46 278.28 21.498 278.28 L 37.19 278.28 C 40.228 278.28 42.695 280.747 42.695 283.785 L 42.695 286.288 C 42.695 289.327 40.228 291.793 37.19 291.793 Z " fill="rgb(189,189,189)"/><path d=" M 247.303 272.386 L 227.154 272.386 C 223.516 272.386 220.562 269.432 220.562 265.793 L 220.562 263.453 C 220.562 259.814 223.516 256.86 227.154 256.86 L 247.303 256.86 C 250.941 256.86 253.895 259.814 253.895 263.453 L 253.895 265.793 C 253.895 269.432 250.941 272.386 247.303 272.386 Z " fill="rgb(189,189,189)"/><path d=" M 247.362 251.11 L 216.766 251.11 C 212.487 251.11 209.013 247.636 209.013 243.357 L 209.013 243.337 C 209.013 239.058 212.487 235.584 216.766 235.584 L 247.362 235.584 C 251.641 235.584 255.115 239.058 255.115 243.337 L 255.115 243.357 C 255.115 247.636 251.641 251.11 247.362 251.11 Z " fill="rgb(189,189,189)"/><path d=" M 247.362 229.834 L 216.766 229.834 C 212.487 229.834 209.013 226.36 209.013 222.081 L 209.013 222.061 C 209.013 217.782 212.487 214.308 216.766 214.308 L 247.362 214.308 C 251.641 214.308 255.115 217.782 255.115 222.061 L 255.115 222.081 C 255.115 226.36 251.641 229.834 247.362 229.834 Z " fill="rgb(189,189,189)"/><path d=" M 199.559 250.104 L 192.045 250.104 C 189.69 250.104 187.778 248.191 187.778 245.836 L 187.778 240.858 C 187.778 238.503 189.69 236.59 192.045 236.59 L 199.559 236.59 C 201.914 236.59 203.826 238.503 203.826 240.858 L 203.826 245.836 C 203.826 248.191 201.914 250.104 199.559 250.104 Z " fill="rgb(189,189,189)"/><path d=" M 178.272 250.104 L 170.758 250.104 C 168.403 250.104 166.491 248.191 166.491 245.836 L 166.491 240.858 C 166.491 238.503 168.403 236.59 170.758 236.59 L 178.272 236.59 C 180.627 236.59 182.54 238.503 182.54 240.858 L 182.54 245.836 C 182.54 248.191 180.627 250.104 178.272 250.104 Z " fill="rgb(189,189,189)"/><path d=" M 156.028 250.104 L 148.514 250.104 C 146.159 250.104 144.247 248.191 144.247 245.836 L 144.247 240.858 C 144.247 238.503 146.159 236.59 148.514 236.59 L 156.028 236.59 C 158.383 236.59 160.296 238.503 160.296 240.858 L 160.296 245.836 C 160.296 248.191 158.383 250.104 156.028 250.104 Z " fill="rgb(189,189,189)"/><path d=" M 134.455 250.104 L 126.941 250.104 C 124.585 250.104 122.673 248.191 122.673 245.836 L 122.673 240.858 C 122.673 238.503 124.585 236.59 126.941 236.59 L 134.455 236.59 C 136.81 236.59 138.722 238.503 138.722 240.858 L 138.722 245.836 C 138.722 248.191 136.81 250.104 134.455 250.104 Z " fill="rgb(189,189,189)"/><path d=" M 112.438 250.104 L 104.924 250.104 C 102.568 250.104 100.656 248.191 100.656 245.836 L 100.656 240.858 C 100.656 238.503 102.568 236.59 104.924 236.59 L 112.438 236.59 C 114.793 236.59 116.705 238.503 116.705 240.858 L 116.705 245.836 C 116.705 248.191 114.793 250.104 112.438 250.104 Z " fill="rgb(189,189,189)"/><path d=" M 68.987 250.104 L 61.473 250.104 C 59.118 250.104 57.206 248.191 57.206 245.836 L 57.206 240.858 C 57.206 238.503 59.118 236.59 61.473 236.59 L 68.987 236.59 C 71.342 236.59 73.255 238.503 73.255 240.858 L 73.255 245.836 C 73.255 248.191 71.342 250.104 68.987 250.104 Z " fill="rgb(189,189,189)"/><path d=" M 90.488 250.104 L 82.975 250.104 C 80.619 250.104 78.707 248.191 78.707 245.836 L 78.707 240.858 C 78.707 238.503 80.619 236.59 82.975 236.59 L 90.488 236.59 C 92.844 236.59 94.756 238.503 94.756 240.858 L 94.756 245.836 C 94.756 248.191 92.844 250.104 90.488 250.104 Z " fill="rgb(189,189,189)"/><path d=" M 45.008 250.104 L 27.684 250.104 C 24.531 250.104 21.972 247.544 21.972 244.392 L 21.972 242.302 C 21.972 239.15 24.531 236.59 27.684 236.59 L 45.008 236.59 C 48.16 236.59 50.719 239.15 50.719 242.302 L 50.719 244.392 C 50.719 247.544 48.16 250.104 45.008 250.104 Z " fill="rgb(189,189,189)"/><path d=" M 199.587 229.834 L 192.058 229.834 C 189.718 229.834 187.819 227.934 187.819 225.594 L 187.819 220.704 C 187.819 218.364 189.718 216.464 192.058 216.464 L 199.587 216.464 C 201.927 216.464 203.826 218.364 203.826 220.704 L 203.826 225.594 C 203.826 227.934 201.927 229.834 199.587 229.834 Z " fill="rgb(189,189,189)"/><path d=" M 178.355 229.834 L 170.826 229.834 C 168.486 229.834 166.586 227.934 166.586 225.594 L 166.586 220.704 C 166.586 218.364 168.486 216.464 170.826 216.464 L 178.355 216.464 C 180.694 216.464 182.594 218.364 182.594 220.704 L 182.594 225.594 C 182.594 227.934 180.694 229.834 178.355 229.834 Z " fill="rgb(189,189,189)"/><path d=" M 156.167 229.834 L 148.638 229.834 C 146.299 229.834 144.399 227.934 144.399 225.594 L 144.399 220.704 C 144.399 218.364 146.299 216.464 148.638 216.464 L 156.167 216.464 C 158.507 216.464 160.407 218.364 160.407 220.704 L 160.407 225.594 C 160.407 227.934 158.507 229.834 156.167 229.834 Z " fill="rgb(189,189,189)"/><path d=" M 134.649 229.834 L 127.12 229.834 C 124.78 229.834 122.881 227.934 122.881 225.594 L 122.881 220.704 C 122.881 218.364 124.78 216.464 127.12 216.464 L 134.649 216.464 C 136.989 216.464 138.889 218.364 138.889 220.704 L 138.889 225.594 C 138.889 227.934 136.989 229.834 134.649 229.834 Z " fill="rgb(189,189,189)"/><path d=" M 112.689 229.834 L 105.16 229.834 C 102.82 229.834 100.92 227.934 100.92 225.594 L 100.92 220.704 C 100.92 218.364 102.82 216.464 105.16 216.464 L 112.689 216.464 C 115.028 216.464 116.928 218.364 116.928 220.704 L 116.928 225.594 C 116.928 227.934 115.028 229.834 112.689 229.834 Z " fill="rgb(189,189,189)"/><path d=" M 69.349 229.834 L 61.82 229.834 C 59.48 229.834 57.581 227.934 57.581 225.594 L 57.581 220.704 C 57.581 218.364 59.48 216.464 61.82 216.464 L 69.349 216.464 C 71.689 216.464 73.589 218.364 73.589 220.704 L 73.589 225.594 C 73.589 227.934 71.689 229.834 69.349 229.834 Z " fill="rgb(189,189,189)"/><path d=" M 90.795 229.834 L 83.266 229.834 C 80.927 229.834 79.027 227.934 79.027 225.594 L 79.027 220.704 C 79.027 218.364 80.927 216.464 83.266 216.464 L 90.795 216.464 C 93.135 216.464 95.035 218.364 95.035 220.704 L 95.035 225.594 C 95.035 227.934 93.135 229.834 90.795 229.834 Z " fill="rgb(189,189,189)"/><path d=" M 47.039 229.834 L 40.417 229.834 C 38.17 229.834 36.346 228.009 36.346 225.762 L 36.346 220.536 C 36.346 218.289 38.17 216.464 40.417 216.464 L 47.039 216.464 C 49.287 216.464 51.111 218.289 51.111 220.536 L 51.111 225.762 C 51.111 228.009 49.287 229.834 47.039 229.834 Z " fill="rgb(189,189,189)"/><path d=" M 26.687 229.834 L 20.065 229.834 C 17.817 229.834 15.993 228.009 15.993 225.762 L 15.993 220.536 C 15.993 218.289 17.817 216.464 20.065 216.464 L 26.687 216.464 C 28.934 216.464 30.758 218.289 30.758 220.536 L 30.758 225.762 C 30.758 228.009 28.934 229.834 26.687 229.834 Z " fill="rgb(189,189,189)"/><path d=" M 216.056 209.079 L 206.792 209.079 C 204.305 209.079 202.287 207.06 202.287 204.573 L 202.287 200.358 C 202.287 197.872 204.305 195.853 206.792 195.853 L 216.056 195.853 C 218.543 195.853 220.562 197.872 220.562 200.358 L 220.562 204.573 C 220.562 207.06 218.543 209.079 216.056 209.079 Z " fill="rgb(189,189,189)"/><path d=" M 235.722 209.079 L 228.406 209.079 C 226.105 209.079 224.236 207.21 224.236 204.909 L 224.236 200.023 C 224.236 197.721 226.105 195.853 228.406 195.853 L 235.722 195.853 C 238.023 195.853 239.892 197.721 239.892 200.023 L 239.892 204.909 C 239.892 207.21 238.023 209.079 235.722 209.079 Z " fill="rgb(189,189,189)"/><path d=" M 250.586 209.079 L 247.344 209.079 C 245.518 209.079 244.035 207.596 244.035 205.769 L 244.035 199.162 C 244.035 197.336 245.518 195.853 247.344 195.853 L 250.586 195.853 C 252.412 195.853 253.895 197.336 253.895 199.162 L 253.895 205.769 C 253.895 207.596 252.412 209.079 250.586 209.079 Z " fill="rgb(189,189,189)"/><path d=" M 193.412 208.558 L 117.384 208.558 C 114.497 208.558 112.153 206.214 112.153 203.327 L 112.153 200.275 C 112.153 197.388 114.497 195.044 117.384 195.044 L 193.412 195.044 C 196.299 195.044 198.643 197.388 198.643 200.275 L 198.643 203.327 C 198.643 206.214 196.299 208.558 193.412 208.558 Z " fill="rgb(189,189,189)"/><path d=" M 104.313 209.079 L 96.8 209.079 C 94.444 209.079 92.532 207.166 92.532 204.811 L 92.532 199.833 C 92.532 197.478 94.444 195.565 96.8 195.565 L 104.313 195.565 C 106.669 195.565 108.581 197.478 108.581 199.833 L 108.581 204.811 C 108.581 207.166 106.669 209.079 104.313 209.079 Z " fill="rgb(189,189,189)"/><path d=" M 82.364 208.27 L 74.85 208.27 C 72.495 208.27 70.583 206.358 70.583 204.002 L 70.583 199.024 C 70.583 196.669 72.495 194.757 74.85 194.757 L 82.364 194.757 C 84.72 194.757 86.632 196.669 86.632 199.024 L 86.632 204.002 C 86.632 206.358 84.72 208.27 82.364 208.27 Z " fill="rgb(189,189,189)"/><path d=" M 60.25 208.27 L 52.645 208.27 C 50.315 208.27 48.423 206.378 48.423 204.048 L 48.423 199.266 C 48.423 196.936 50.315 195.044 52.645 195.044 L 60.25 195.044 C 62.58 195.044 64.472 196.936 64.472 199.266 L 64.472 204.048 C 64.472 206.378 62.58 208.27 60.25 208.27 Z " fill="rgb(189,189,189)"/><path d=" M 23.154 208.27 L 15.549 208.27 C 13.218 208.27 11.327 206.378 11.327 204.048 L 11.327 199.266 C 11.327 196.936 13.218 195.044 15.549 195.044 L 23.154 195.044 C 25.484 195.044 27.376 196.936 27.376 199.266 L 27.376 204.048 C 27.376 206.378 25.484 208.27 23.154 208.27 Z " fill="rgb(189,189,189)"/><path d=" M 43.206 208.27 L 32.593 208.27 C 31.093 208.27 29.875 207.052 29.875 205.552 L 29.875 205.507 C 29.875 204.007 31.093 202.789 32.593 202.789 L 43.206 202.789 C 44.706 202.789 45.924 204.007 45.924 205.507 L 45.924 205.552 C 45.924 207.052 44.706 208.27 43.206 208.27 Z " fill="rgb(189,189,189)"/><path d=" M 209.161 272.386 L 201.648 272.386 C 199.292 272.386 197.38 270.474 197.38 268.118 L 197.38 263.14 C 197.38 260.785 199.292 258.873 201.648 258.873 L 209.161 258.873 C 211.517 258.873 213.429 260.785 213.429 263.14 L 213.429 268.118 C 213.429 270.474 211.517 272.386 209.161 272.386 Z " fill="rgb(189,189,189)"/><path d=" M 187.874 272.386 L 180.361 272.386 C 178.005 272.386 176.093 270.474 176.093 268.118 L 176.093 263.14 C 176.093 260.785 178.005 258.873 180.361 258.873 L 187.874 258.873 C 190.23 258.873 192.142 260.785 192.142 263.14 L 192.142 268.118 C 192.142 270.474 190.23 272.386 187.874 272.386 Z " fill="rgb(189,189,189)"/><path d=" M 165.63 272.386 L 158.117 272.386 C 155.761 272.386 153.849 270.474 153.849 268.118 L 153.849 263.14 C 153.849 260.785 155.761 258.873 158.117 258.873 L 165.63 258.873 C 167.986 258.873 169.898 260.785 169.898 263.14 L 169.898 268.118 C 169.898 270.474 167.986 272.386 165.63 272.386 Z " fill="rgb(189,189,189)"/><path d=" M 144.057 272.386 L 136.543 272.386 C 134.188 272.386 132.276 270.474 132.276 268.118 L 132.276 263.14 C 132.276 260.785 134.188 258.873 136.543 258.873 L 144.057 258.873 C 146.412 258.873 148.325 260.785 148.325 263.14 L 148.325 268.118 C 148.325 270.474 146.412 272.386 144.057 272.386 Z " fill="rgb(189,189,189)"/><path d=" M 122.04 272.386 L 114.526 272.386 C 112.171 272.386 110.259 270.474 110.259 268.118 L 110.259 263.14 C 110.259 260.785 112.171 258.873 114.526 258.873 L 122.04 258.873 C 124.395 258.873 126.308 260.785 126.308 263.14 L 126.308 268.118 C 126.308 270.474 124.395 272.386 122.04 272.386 Z " fill="rgb(189,189,189)"/><path d=" M 78.589 272.386 L 71.076 272.386 C 68.72 272.386 66.808 270.474 66.808 268.118 L 66.808 263.14 C 66.808 260.785 68.72 258.873 71.076 258.873 L 78.589 258.873 C 80.945 258.873 82.857 260.785 82.857 263.14 L 82.857 268.118 C 82.857 270.474 80.945 272.386 78.589 272.386 Z " fill="rgb(189,189,189)"/><path d=" M 100.091 272.386 L 92.577 272.386 C 90.222 272.386 88.309 270.474 88.309 268.118 L 88.309 263.14 C 88.309 260.785 90.222 258.873 92.577 258.873 L 100.091 258.873 C 102.446 258.873 104.358 260.785 104.358 263.14 L 104.358 268.118 C 104.358 270.474 102.446 272.386 100.091 272.386 Z " fill="rgb(189,189,189)"/><path d=" M 56.404 272.386 L 48.89 272.386 C 46.535 272.386 44.623 270.474 44.623 268.118 L 44.623 263.14 C 44.623 260.785 46.535 258.873 48.89 258.873 L 56.404 258.873 C 58.759 258.873 60.672 260.785 60.672 263.14 L 60.672 268.118 C 60.672 270.474 58.759 272.386 56.404 272.386 Z " fill="rgb(189,189,189)"/><path d=" M 34.219 272.386 L 26.705 272.386 C 24.35 272.386 22.437 270.474 22.437 268.118 L 22.437 263.14 C 22.437 260.785 24.35 258.873 26.705 258.873 L 34.219 258.873 C 36.574 258.873 38.486 260.785 38.486 263.14 L 38.486 268.118 C 38.486 270.474 36.574 272.386 34.219 272.386 Z " fill="rgb(189,189,189)"/><path d=" M 43.206 200.992 L 32.593 200.992 C 31.093 200.992 29.875 199.774 29.875 198.274 L 29.875 198.229 C 29.875 196.729 31.093 195.512 32.593 195.512 L 43.206 195.512 C 44.706 195.512 45.924 196.729 45.924 198.229 L 45.924 198.274 C 45.924 199.774 44.706 200.992 43.206 200.992 Z " fill="rgb(189,189,189)"/></g><path d=" M 208.417 156.941 C 231.816 139.059 246.005 116.825 240.082 107.32 C 234.159 97.815 210.355 104.615 186.957 122.497" fill="rgb(172,132,73)"/></g><g><rect x="2.861" y="75.409" width="37.511" height="39.592" transform="matrix(0.748,-0.664,0.661,0.75,-57.514,38.148)" fill="rgb(55,203,253)"/><rect x="4.803" y="77.61" width="30.75" height="32.1" transform="matrix(0.756,-0.655,0.655,0.756,-56.424,36.114)" fill="rgb(133,224,255)"/><rect x="6.159" y="78.555" width="26.25" height="25.859" transform="matrix(0.756,-0.655,0.655,0.756,-55.217,34.997)" fill="rgb(171,234,255)"/><rect x="8.815" y="79.855" width="18" height="18.725" transform="matrix(0.756,-0.655,0.655,0.756,-54.091,33.48)" fill="rgb(202,242,255)"/><rect x="12.628" y="81.615" width="8.222" height="9.247" transform="matrix(0.756,-0.655,0.655,0.756,-52.403,32.047)" fill="rgb(251,254,255)"/></g><g><rect x="256.571" y="48.548" width="9.139" height="8.654" transform="matrix(1,-0.011,0.009,1,-0.477,2.761)" fill="rgb(55,203,253)"/><rect x="257.376" y="48.906" width="7.492" height="7.016" transform="matrix(1,0,0,1,0,0)" fill="rgb(133,224,255)"/><rect x="258.107" y="49.101" width="6.396" height="5.652" transform="matrix(1,0,0,1,0,0)" fill="rgb(171,234,255)"/><rect x="259.204" y="49.295" width="4.386" height="4.093" transform="matrix(1,0,0,1,0,0)" fill="rgb(202,242,255)"/><rect x="260.672" y="49.685" width="2.003" height="2.021" transform="matrix(1,0,0,1,0,0)" fill="rgb(251,254,255)"/></g><g><rect x="43.606" y="47.334" width="17.07" height="15.055" transform="matrix(0.905,-0.426,0.426,0.905,-18.412,27.448)" fill="rgb(55,203,253)"/><rect x="44.778" y="48.043" width="13.993" height="12.206" transform="matrix(0.909,-0.417,0.417,0.909,-17.867,26.534)" fill="rgb(133,224,255)"/><rect x="45.759" y="48.317" width="11.946" height="9.832" transform="matrix(0.909,-0.417,0.417,0.909,-17.49,26.433)" fill="rgb(171,234,255)"/><rect x="47.367" y="48.678" width="8.191" height="7.12" transform="matrix(0.909,-0.417,0.417,0.909,-17.1,26.23)" fill="rgb(202,242,255)"/><rect x="49.594" y="49.242" width="3.742" height="3.516" transform="matrix(0.909,-0.417,0.417,0.909,-16.583,26.118)" fill="rgb(251,254,255)"/></g><g><rect x="10.428" y="145.874" width="21.727" height="22.335" transform="matrix(0.921,0.39,-0.392,0.92,63.288,4.292)" fill="rgb(55,203,253)"/><rect x="12.823" y="146.879" width="17.811" height="18.108" transform="matrix(0.916,0.4,-0.4,0.916,64.211,4.333)" fill="rgb(133,224,255)"/><rect x="15.027" y="147.661" width="15.205" height="14.587" transform="matrix(0.916,0.4,-0.4,0.916,63.894,3.891)" fill="rgb(171,234,255)"/><rect x="18.219" y="148.377" width="10.426" height="10.563" transform="matrix(0.916,0.4,-0.4,0.916,63.443,3.461)" fill="rgb(202,242,255)"/><rect x="22.323" y="149.786" width="4.763" height="5.216" transform="matrix(0.916,0.4,-0.4,0.916,63.043,2.847)" fill="rgb(251,254,255)"/></g><g><rect x="219.762" y="38.541" width="21.727" height="22.335" transform="matrix(0.954,-0.299,0.296,0.955,-4.171,71.217)" fill="rgb(55,203,253)"/><rect x="221.335" y="39.527" width="17.811" height="18.108" transform="matrix(0.958,-0.288,0.288,0.958,-4.233,68.405)" fill="rgb(133,224,255)"/><rect x="222.692" y="39.958" width="15.205" height="14.587" transform="matrix(0.958,-0.288,0.288,0.958,-3.848,68.364)" fill="rgb(171,234,255)"/><rect x="224.854" y="40.462" width="10.426" height="10.563" transform="matrix(0.958,-0.288,0.288,0.958,-3.423,68.235)" fill="rgb(202,242,255)"/><rect x="227.837" y="41.349" width="4.763" height="5.216" transform="matrix(0.958,-0.288,0.288,0.958,-2.902,68.203)" fill="rgb(251,254,255)"/></g><g><rect x="243.595" y="8.449" width="12.64" height="11.473" transform="matrix(0.872,0.489,-0.49,0.872,38.927,-120.498)" fill="rgb(55,203,253)"/><rect x="245.017" y="8.992" width="10.362" height="9.302" transform="matrix(0.867,0.498,-0.498,0.867,40.064,-122.844)" fill="rgb(133,224,255)"/><rect x="246.316" y="9.462" width="8.846" height="7.493" transform="matrix(0.867,0.498,-0.498,0.867,39.919,-123.172)" fill="rgb(171,234,255)"/><rect x="248.202" y="9.887" width="6.066" height="5.426" transform="matrix(0.867,0.498,-0.498,0.867,39.682,-123.5)" fill="rgb(202,242,255)"/><rect x="250.609" y="10.709" width="2.771" height="2.68" transform="matrix(0.867,0.498,-0.498,0.867,39.508,-123.951)" fill="rgb(251,254,255)"/></g><g><rect x="304.581" y="146.867" width="17.669" height="16.638" transform="matrix(0.872,0.489,-0.49,0.872,116.105,-133.375)" fill="rgb(55,203,253)"/><rect x="306.584" y="147.655" width="14.485" height="13.489" transform="matrix(0.867,0.498,-0.498,0.867,118.654,-135.831)" fill="rgb(133,224,255)"/><rect x="308.417" y="148.33" width="12.365" height="10.866" transform="matrix(0.867,0.498,-0.498,0.867,118.44,-136.301)" fill="rgb(171,234,255)"/><rect x="311.073" y="148.942" width="8.479" height="7.869" transform="matrix(0.867,0.498,-0.498,0.867,118.093,-136.774)" fill="rgb(202,242,255)"/><rect x="314.46" y="150.124" width="3.873" height="3.886" transform="matrix(0.867,0.498,-0.498,0.867,117.834,-137.422)" fill="rgb(251,254,255)"/></g><g><rect x="244.971" y="144.547" width="12.555" height="12.945" transform="matrix(0.873,0.488,-0.491,0.871,106.104,-103.225)" fill="rgb(55,203,253)"/><rect x="246.425" y="145.161" width="10.292" height="10.495" transform="matrix(0.867,0.498,-0.498,0.867,108.388,-105.344)" fill="rgb(133,224,255)"/><rect x="247.759" y="145.674" width="8.786" height="8.455" transform="matrix(0.867,0.498,-0.498,0.867,108.213,-105.701)" fill="rgb(171,234,255)"/><rect x="249.684" y="146.145" width="6.025" height="6.122" transform="matrix(0.867,0.498,-0.498,0.867,107.938,-106.064)" fill="rgb(202,242,255)"/><rect x="252.132" y="147.046" width="2.752" height="3.023" transform="matrix(0.867,0.498,-0.498,0.867,107.724,-106.555)" fill="rgb(251,254,255)"/></g><g><rect x="10.256" y="12.793" width="11.404" height="12.589" transform="matrix(0.922,-0.386,0.382,0.924,-6.054,7.607)" fill="rgb(55,203,253)"/><rect x="11.011" y="13.37" width="9.348" height="10.207" transform="matrix(0.927,-0.375,0.375,0.927,-5.778,7.221)" fill="rgb(133,224,255)"/><rect x="11.641" y="13.62" width="7.98" height="8.222" transform="matrix(0.927,-0.375,0.375,0.927,-5.504,7.147)" fill="rgb(171,234,255)"/><rect x="12.682" y="13.923" width="5.472" height="5.954" transform="matrix(0.927,-0.375,0.375,0.927,-5.208,7.006)" fill="rgb(202,242,255)"/><rect x="14.137" y="14.428" width="2.5" height="2.94" transform="matrix(0.927,-0.375,0.375,0.927,-4.835,6.922)" fill="rgb(251,254,255)"/></g><g><rect x="6.929" y="47.305" width="8.484" height="9.533" transform="matrix(0.922,-0.386,0.382,0.924,-19.017,8.26)" fill="rgb(55,203,253)"/><rect x="7.488" y="47.742" width="6.955" height="7.729" transform="matrix(0.927,-0.375,0.375,0.927,-18.534,7.866)" fill="rgb(133,224,255)"/><rect x="7.953" y="47.933" width="5.937" height="6.226" transform="matrix(0.927,-0.375,0.375,0.927,-18.327,7.808)" fill="rgb(171,234,255)"/><rect x="8.723" y="48.162" width="4.071" height="4.508" transform="matrix(0.927,-0.375,0.375,0.927,-18.103,7.702)" fill="rgb(202,242,255)"/><rect x="9.801" y="48.547" width="1.86" height="2.226" transform="matrix(0.927,-0.375,0.375,0.927,-17.822,7.636)" fill="rgb(251,254,255)"/></g><g><rect x="225.935" y="72.668" width="37.511" height="39.882" transform="matrix(0.808,0.589,-0.592,0.806,101.655,-126.087)" fill="rgb(55,203,253)"/><rect x="230.526" y="74.693" width="30.75" height="32.335" transform="matrix(0.801,0.598,-0.598,0.801,103.188,-129.039)" fill="rgb(133,224,255)"/><rect x="234.72" y="76.486" width="26.25" height="26.048" transform="matrix(0.801,0.598,-0.598,0.801,102.766,-130.47)" fill="rgb(171,234,255)"/><rect x="240.758" y="78.143" width="18" height="18.862" transform="matrix(0.801,0.598,-0.598,0.801,101.988,-131.999)" fill="rgb(202,242,255)"/><rect x="248.34" y="81.212" width="8.222" height="9.315" transform="matrix(0.801,0.598,-0.598,0.801,101.503,-133.948)" fill="rgb(251,254,255)"/></g><line x1="94.667" y1="37.111" x2="113.333" y2="45" vector-effect="non-scaling-stroke" stroke-width="2" stroke="rgb(117,90,50)" stroke-linejoin="miter" stroke-linecap="square" stroke-miterlimit="3"/><line x1="171.333" y1="37.111" x2="152.667" y2="45" vector-effect="non-scaling-stroke" stroke-width="2" stroke="rgb(117,90,50)" stroke-linejoin="miter" stroke-linecap="square" stroke-miterlimit="3"/></g></svg>