<?xml version="1.0" standalone="no"?><!-- Generator: Gravit.io --><svg xmlns="http://www.w3.org/2000/svg" xmlns:xlink="http://www.w3.org/1999/xlink" style="isolation:isolate" viewBox="0 0 650 110" width="650" height="110"><defs><clipPath id="_clipPath_Pk4ADlYoNk8C9grCwqbMDYaCxThSfo5F"><rect width="650" height="110"/></clipPath></defs><g clip-path="url(#_clipPath_Pk4ADlYoNk8C9grCwqbMDYaCxThSfo5F)"><g><path d=" M -0.038 55.356 C 0.034 26.409 23.55 2.909 52.444 2.909 C 81.338 2.909 104.738 26.409 104.667 55.356 C 104.595 84.302 81.079 107.802 52.185 107.802 C 23.291 107.802 -0.11 84.302 -0.038 55.356 Z " fill="rgb(255,70,29)"/><path d=" M 6.355 49.761 C 6.971 24.385 28.681 4.315 54.806 4.971 C 80.931 5.627 101.641 26.762 101.025 52.139 C 100.409 77.516 78.699 97.586 52.574 96.93 C 26.449 96.274 5.739 75.138 6.355 49.761 Z " fill="rgb(253,133,53)"/><path d=" M 14.444 44.919 C 14.973 23.105 32.814 5.833 54.26 6.371 C 75.706 6.91 92.687 25.057 92.158 46.871 C 91.628 68.684 73.787 85.957 52.341 85.419 C 30.895 84.88 13.914 66.733 14.444 44.919 Z " fill="rgb(255,168,29)"/><path d=" M 19.317 38.745 C 19.739 21.383 34.649 7.653 52.594 8.104 C 70.538 8.554 84.765 23.016 84.343 40.378 C 83.922 57.74 69.011 71.469 51.067 71.019 C 33.122 70.568 18.896 56.106 19.317 38.745 Z " fill="rgb(253,218,42)"/><path d=" M 30.613 27.929 C 30.861 17.69 39.946 9.6 50.888 9.875 C 61.83 10.15 70.511 18.686 70.263 28.925 C 70.014 39.164 60.929 47.254 49.987 46.979 C 39.046 46.704 30.364 38.168 30.613 27.929 Z " fill="rgb(255,240,108)"/></g><g><path d=" M 88.671 54.773 C 88.742 25.827 112.259 2.326 141.153 2.326 C 170.047 2.326 193.447 25.827 193.375 54.773 C 193.304 83.719 169.787 107.22 140.893 107.22 C 111.999 107.22 88.599 83.719 88.671 54.773 Z " fill="rgb(255,70,29)"/><path d=" M 95.063 49.179 C 95.679 23.802 117.39 3.732 143.515 4.388 C 169.64 5.044 190.35 26.18 189.734 51.556 C 189.118 76.933 167.407 97.003 141.282 96.347 C 115.157 95.691 94.447 74.556 95.063 49.179 Z " fill="rgb(253,133,53)"/><path d=" M 103.152 44.336 C 103.682 22.523 121.523 5.25 142.969 5.789 C 164.414 6.327 181.396 24.475 180.866 46.288 C 180.337 68.102 162.496 85.374 141.05 84.836 C 119.604 84.297 102.623 66.15 103.152 44.336 Z " fill="rgb(255,168,29)"/><path d=" M 108.026 38.162 C 108.447 20.8 123.358 7.07 141.303 7.521 C 159.247 7.972 173.473 22.433 173.052 39.795 C 172.63 57.157 157.72 70.887 139.775 70.436 C 121.831 69.985 107.604 55.524 108.026 38.162 Z " fill="rgb(253,218,42)"/><path d=" M 119.321 27.347 C 119.57 17.108 128.655 9.018 139.597 9.293 C 150.538 9.567 159.22 18.103 158.971 28.342 C 158.723 38.581 149.638 46.671 138.696 46.396 C 127.754 46.122 119.073 37.586 119.321 27.347 Z " fill="rgb(255,240,108)"/></g><g><path d=" M 176.24 53.912 C 176.312 24.966 199.828 1.465 228.722 1.465 C 257.616 1.465 281.016 24.966 280.945 53.912 C 280.873 82.858 257.357 106.359 228.463 106.359 C 199.569 106.359 176.169 82.858 176.24 53.912 Z " fill="rgb(255,70,29)"/><path d=" M 182.633 48.318 C 183.249 22.941 204.959 2.871 231.084 3.527 C 257.209 4.183 277.919 25.319 277.303 50.696 C 276.687 76.072 254.977 96.142 228.852 95.486 C 202.727 94.83 182.017 73.695 182.633 48.318 Z " fill="rgb(253,133,53)"/><path d=" M 190.722 43.476 C 191.251 21.662 209.093 4.389 230.538 4.928 C 251.984 5.467 268.965 23.614 268.436 45.427 C 267.906 67.241 250.065 84.514 228.619 83.975 C 207.174 83.436 190.192 65.289 190.722 43.476 Z " fill="rgb(255,168,29)"/><path d=" M 195.595 37.301 C 196.017 19.939 210.928 6.21 228.872 6.66 C 246.816 7.111 261.043 21.572 260.621 38.934 C 260.2 56.296 245.289 70.026 227.345 69.575 C 209.4 69.124 195.174 54.663 195.595 37.301 Z " fill="rgb(253,218,42)"/><path d=" M 206.891 26.486 C 207.139 16.247 216.224 8.157 227.166 8.432 C 238.108 8.707 246.789 17.242 246.541 27.481 C 246.292 37.721 237.207 45.81 226.265 45.535 C 215.324 45.261 206.642 36.725 206.891 26.486 Z " fill="rgb(255,240,108)"/></g><g><path d=" M 361.962 54.064 C 362.034 25.118 385.55 1.618 414.444 1.618 C 443.338 1.618 466.738 25.118 466.667 54.064 C 466.595 83.01 443.079 106.511 414.185 106.511 C 385.291 106.511 361.89 83.01 361.962 54.064 Z " fill="rgb(255,70,29)"/><path d=" M 368.355 48.47 C 368.971 23.093 390.681 3.023 416.806 3.679 C 442.931 4.336 463.641 25.471 463.025 50.848 C 462.409 76.225 440.699 96.295 414.574 95.638 C 388.449 94.982 367.739 73.847 368.355 48.47 Z " fill="rgb(253,133,53)"/><path d=" M 376.444 43.628 C 376.973 21.814 394.814 4.542 416.26 5.08 C 437.706 5.619 454.687 23.766 454.158 45.58 C 453.628 67.393 435.787 84.666 414.341 84.127 C 392.895 83.589 375.914 65.441 376.444 43.628 Z " fill="rgb(255,168,29)"/><path d=" M 381.317 37.453 C 381.739 20.091 396.649 6.362 414.594 6.812 C 432.538 7.263 446.765 21.725 446.343 39.086 C 445.922 56.448 431.011 70.178 413.067 69.727 C 395.122 69.277 380.896 54.815 381.317 37.453 Z " fill="rgb(253,218,42)"/><path d=" M 392.613 26.638 C 392.861 16.399 401.946 8.309 412.888 8.584 C 423.83 8.859 432.511 17.395 432.263 27.634 C 432.014 37.873 422.929 45.962 411.987 45.688 C 401.046 45.413 392.364 36.877 392.613 26.638 Z " fill="rgb(255,240,108)"/></g><g><path d=" M 450.24 53.912 C 450.312 24.966 473.828 1.465 502.722 1.465 C 531.616 1.465 555.016 24.966 554.945 53.912 C 554.873 82.858 531.357 106.359 502.463 106.359 C 473.569 106.359 450.169 82.858 450.24 53.912 Z " fill="rgb(255,70,29)"/><path d=" M 456.633 48.318 C 457.249 22.941 478.959 2.871 505.084 3.527 C 531.209 4.183 551.919 25.319 551.303 50.696 C 550.687 76.072 528.977 96.142 502.852 95.486 C 476.727 94.83 456.017 73.695 456.633 48.318 Z " fill="rgb(253,133,53)"/><path d=" M 464.722 43.476 C 465.251 21.662 483.093 4.389 504.538 4.928 C 525.984 5.467 542.965 23.614 542.436 45.427 C 541.906 67.241 524.065 84.514 502.619 83.975 C 481.174 83.436 464.192 65.289 464.722 43.476 Z " fill="rgb(255,168,29)"/><path d=" M 469.595 37.301 C 470.017 19.939 484.928 6.21 502.872 6.66 C 520.816 7.111 535.043 21.572 534.621 38.934 C 534.2 56.296 519.289 70.026 501.345 69.575 C 483.4 69.124 469.174 54.663 469.595 37.301 Z " fill="rgb(253,218,42)"/><path d=" M 480.891 26.486 C 481.139 16.247 490.224 8.157 501.166 8.432 C 512.108 8.707 520.789 17.242 520.541 27.481 C 520.292 37.721 511.207 45.81 500.265 45.535 C 489.324 45.261 480.642 36.725 480.891 26.486 Z " fill="rgb(255,240,108)"/></g><g><path d=" M 543.962 54.925 C 544.034 25.979 567.55 2.478 596.444 2.478 C 625.338 2.478 648.738 25.979 648.667 54.925 C 648.595 83.871 625.079 107.372 596.185 107.372 C 567.291 107.372 543.89 83.871 543.962 54.925 Z " fill="rgb(255,70,29)"/><path d=" M 550.355 49.331 C 550.971 23.954 572.681 3.884 598.806 4.54 C 624.931 5.196 645.641 26.332 645.025 51.709 C 644.409 77.085 622.699 97.155 596.574 96.499 C 570.449 95.843 549.739 74.708 550.355 49.331 Z " fill="rgb(253,133,53)"/><path d=" M 558.444 44.489 C 558.973 22.675 576.814 5.402 598.26 5.941 C 619.706 6.48 636.687 24.627 636.158 46.44 C 635.628 68.254 617.787 85.527 596.341 84.988 C 574.895 84.449 557.914 66.302 558.444 44.489 Z " fill="rgb(255,168,29)"/><path d=" M 563.317 38.314 C 563.739 20.952 578.649 7.223 596.594 7.673 C 614.538 8.124 628.765 22.585 628.343 39.947 C 627.922 57.309 613.011 71.039 595.067 70.588 C 577.122 70.138 562.896 55.676 563.317 38.314 Z " fill="rgb(253,218,42)"/><path d=" M 574.613 27.499 C 574.861 17.26 583.946 9.17 594.888 9.445 C 605.83 9.72 614.511 18.256 614.263 28.495 C 614.014 38.734 604.929 46.823 593.987 46.549 C 583.046 46.274 574.364 37.738 574.613 27.499 Z " fill="rgb(255,240,108)"/></g><g><path d=" M 270.24 57.912 C 270.312 28.966 293.828 5.465 322.722 5.465 C 351.616 5.465 375.016 28.966 374.945 57.912 C 374.873 86.858 351.357 110.359 322.463 110.359 C 293.569 110.359 270.169 86.858 270.24 57.912 Z " fill="rgb(255,70,29)"/><path d=" M 276.633 52.318 C 277.249 26.941 298.959 6.871 325.084 7.527 C 351.209 8.183 371.919 29.319 371.303 54.696 C 370.687 80.072 348.977 100.142 322.852 99.486 C 296.727 98.83 276.017 77.695 276.633 52.318 Z " fill="rgb(253,133,53)"/><path d=" M 284.722 47.476 C 285.251 25.662 303.093 8.389 324.538 8.928 C 345.984 9.467 362.965 27.614 362.436 49.427 C 361.906 71.241 344.065 88.514 322.619 87.975 C 301.174 87.436 284.192 69.289 284.722 47.476 Z " fill="rgb(255,168,29)"/><path d=" M 289.595 41.301 C 290.017 23.939 304.928 10.21 322.872 10.66 C 340.816 11.111 355.043 25.572 354.621 42.934 C 354.2 60.296 339.289 74.026 321.345 73.575 C 303.4 73.124 289.174 58.663 289.595 41.301 Z " fill="rgb(253,218,42)"/><path d=" M 300.891 30.486 C 301.139 20.247 310.224 12.157 321.166 12.432 C 332.108 12.707 340.789 21.242 340.541 31.481 C 340.292 41.721 331.207 49.81 320.265 49.535 C 309.324 49.261 300.642 40.725 300.891 30.486 Z " fill="rgb(255,240,108)"/></g></g></svg>