<?xml version="1.0" standalone="no"?><!-- Generator: Gravit.io --><svg xmlns="http://www.w3.org/2000/svg" xmlns:xlink="http://www.w3.org/1999/xlink" style="isolation:isolate" viewBox="0 0 500 500" width="500" height="500"><defs><clipPath id="_clipPath_SMfoihyMH0QjP4tWA2i0uZBAZE2e5cMH"><rect width="500" height="500"/></clipPath></defs><g clip-path="url(#_clipPath_SMfoihyMH0QjP4tWA2i0uZBAZE2e5cMH)"><g><g><g><path d="M 186.405 204.863 L 186.405 204.863 C 225.499 204.863 257.239 248.869 257.239 303.072 L 257.239 303.072 C 257.239 326.65 227.785 345.793 191.506 345.793 L 181.305 345.793 C 145.026 345.793 115.572 326.65 115.572 303.072 L 115.572 303.072 C 115.572 248.869 147.311 204.863 186.405 204.863 Z" style="stroke:none;fill:#AC8449;stroke-miterlimit:10;"/></g><g><path d=" M 131.778 164.335 C 125.465 160.684 122.889 153.438 126.03 148.164 C 129.171 142.889 136.846 141.57 143.16 145.22 C 149.473 148.871 152.049 156.117 148.908 161.391 C 145.767 166.666 138.092 167.985 131.778 164.335 Z " fill="rgb(189,146,82)"/><path d=" M 134.336 162.592 C 130.524 160.387 128.832 156.24 130.561 153.336 C 132.29 150.432 136.789 149.864 140.602 152.069 C 144.414 154.273 146.106 158.421 144.377 161.325 C 142.648 164.228 138.149 164.796 134.336 162.592 Z " fill="rgb(255,255,208)"/><path d=" M 238.222 164.335 C 244.535 160.684 247.111 153.438 243.97 148.164 C 240.829 142.889 233.154 141.57 226.84 145.22 C 220.527 148.871 217.951 156.117 221.092 161.391 C 224.233 166.666 231.908 167.985 238.222 164.335 Z " fill="rgb(189,146,82)"/><path d=" M 235.664 162.592 C 239.476 160.387 241.168 156.24 239.439 153.336 C 237.71 150.432 233.211 149.864 229.398 152.069 C 225.586 154.273 223.894 158.421 225.623 161.325 C 227.352 164.228 231.851 164.796 235.664 162.592 Z " fill="rgb(255,255,208)"/><ellipse vector-effect="non-scaling-stroke" cx="184.83386136944785" cy="184.81302642288745" rx="52.29601357715819" ry="49.04710393706219" fill="rgb(189,146,82)"/><ellipse vector-effect="non-scaling-stroke" cx="159.5401677175059" cy="172.71570813400962" rx="6.406378622059236" ry="6.316659308641221" fill="rgb(23,23,23)"/><ellipse vector-effect="non-scaling-stroke" cx="160.6999431577061" cy="169.76636262435466" rx="2.2090960765721377" ry="2.1293694899112836" fill="rgb(255,255,255)"/><ellipse vector-effect="non-scaling-stroke" cx="209.07914723463608" cy="172.71570813400962" rx="6.406378622059236" ry="6.316659308641221" fill="rgb(23,23,23)"/><ellipse vector-effect="non-scaling-stroke" cx="207.75368958869305" cy="169.76636262435466" rx="2.2090960765721377" ry="2.1293694899112836" fill="rgb(255,255,255)"/><ellipse vector-effect="non-scaling-stroke" cx="184.83386136944796" cy="204.67427189402304" rx="55.822579865512466" ry="31.168544815358302" fill="rgb(215,170,103)"/><path d=" M 148.129 205.834 C 147.15 202.95 148.554 200.089 151.261 199.449 C 153.969 198.809 156.961 200.631 157.94 203.515 C 158.919 206.398 157.515 209.259 154.808 209.899 C 152.1 210.54 149.108 208.718 148.129 205.834 Z " fill="rgb(255,255,208)"/><path d=" M 222.868 205.834 C 223.846 202.95 222.443 200.089 219.735 199.449 C 217.028 198.809 214.035 200.631 213.057 203.515 C 212.078 206.398 213.482 209.259 216.189 209.899 C 218.896 210.54 221.889 208.718 222.868 205.834 Z " fill="rgb(255,255,208)"/></g><g><path d="M 284.348 371.423 L 85.652 371.423 C 79.773 371.423 75 366.65 75 360.771 L 75 289.929 C 75 284.05 79.773 279.276 85.652 279.276 L 284.348 279.276 C 290.227 279.276 295 284.05 295 289.929 L 295 360.771 C 295 366.65 290.227 371.423 284.348 371.423 Z" style="stroke:none;fill:#EBEBEB;stroke-miterlimit:10;"/><path d="M 284.348 371.423 L 85.652 371.423 C 79.773 371.423 75 366.65 75 360.771 L 75 289.929 C 75 284.05 79.773 279.276 85.652 279.276 L 284.348 279.276 C 290.227 279.276 295 284.05 295 289.929 L 295 360.771 C 295 366.65 290.227 371.423 284.348 371.423 Z" style="fill:none;stroke:#CECECE;stroke-width:2;stroke-linecap:square;stroke-miterlimit:2;"/><path d="M 279.278 363.406 L 273.03 363.406 C 271.145 363.406 269.615 361.876 269.615 359.991 L 269.615 356.205 C 269.615 354.321 271.145 352.791 273.03 352.791 L 279.278 352.791 C 281.162 352.791 282.692 354.321 282.692 356.205 L 282.692 359.991 C 282.692 361.876 281.162 363.406 279.278 363.406 Z" style="stroke:none;fill:#BDBDBD;stroke-linecap:square;stroke-miterlimit:2;"/><path d="M 241.311 363.406 L 235.063 363.406 C 233.178 363.406 231.648 361.876 231.648 359.991 L 231.648 356.205 C 231.648 354.321 233.178 352.791 235.063 352.791 L 241.311 352.791 C 243.195 352.791 244.725 354.321 244.725 356.205 L 244.725 359.991 C 244.725 361.876 243.195 363.406 241.311 363.406 Z" style="stroke:none;fill:#BDBDBD;stroke-linecap:square;stroke-miterlimit:2;"/><path d="M 222.062 363.406 L 215.814 363.406 C 213.929 363.406 212.399 361.876 212.399 359.991 L 212.399 356.205 C 212.399 354.321 213.929 352.791 215.814 352.791 L 222.062 352.791 C 223.946 352.791 225.476 354.321 225.476 356.205 L 225.476 359.991 C 225.476 361.876 223.946 363.406 222.062 363.406 Z" style="stroke:none;fill:#BDBDBD;stroke-linecap:square;stroke-miterlimit:2;"/><path d="M 261.329 363.406 L 255.081 363.406 C 253.197 363.406 251.667 361.876 251.667 359.991 L 251.667 356.205 C 251.667 354.321 253.197 352.791 255.081 352.791 L 261.329 352.791 C 263.214 352.791 264.744 354.321 264.744 356.205 L 264.744 359.991 C 264.744 361.876 263.214 363.406 261.329 363.406 Z" style="stroke:none;fill:#BDBDBD;stroke-linecap:square;stroke-miterlimit:2;"/><path d="M 202.636 363.406 L 196.388 363.406 C 194.503 363.406 192.974 361.876 192.974 359.991 L 192.974 356.205 C 192.974 354.321 194.503 352.791 196.388 352.791 L 202.636 352.791 C 204.521 352.791 206.051 354.321 206.051 356.205 L 206.051 359.991 C 206.051 361.876 204.521 363.406 202.636 363.406 Z" style="stroke:none;fill:#BDBDBD;stroke-linecap:square;stroke-miterlimit:2;"/><path d="M 183.211 363.406 L 176.962 363.406 C 175.078 363.406 173.548 361.876 173.548 359.991 L 173.548 356.205 C 173.548 354.321 175.078 352.791 176.962 352.791 L 183.211 352.791 C 185.095 352.791 186.625 354.321 186.625 356.205 L 186.625 359.991 C 186.625 361.876 185.095 363.406 183.211 363.406 Z" style="stroke:none;fill:#BDBDBD;stroke-linecap:square;stroke-miterlimit:2;"/><path d="M 163.785 363.406 L 157.536 363.406 C 155.652 363.406 154.122 361.876 154.122 359.991 L 154.122 356.205 C 154.122 354.321 155.652 352.791 157.536 352.791 L 163.785 352.791 C 165.669 352.791 167.199 354.321 167.199 356.205 L 167.199 359.991 C 167.199 361.876 165.669 363.406 163.785 363.406 Z" style="stroke:none;fill:#BDBDBD;stroke-linecap:square;stroke-miterlimit:2;"/><path d="M 144.359 363.406 L 138.111 363.406 C 136.226 363.406 134.696 361.876 134.696 359.991 L 134.696 356.205 C 134.696 354.321 136.226 352.791 138.111 352.791 L 144.359 352.791 C 146.244 352.791 147.773 354.321 147.773 356.205 L 147.773 359.991 C 147.773 361.876 146.244 363.406 144.359 363.406 Z" style="stroke:none;fill:#BDBDBD;stroke-linecap:square;stroke-miterlimit:2;"/><path d="M 124.933 363.406 L 118.685 363.406 C 116.801 363.406 115.271 361.876 115.271 359.991 L 115.271 356.205 C 115.271 354.321 116.801 352.791 118.685 352.791 L 124.933 352.791 C 126.818 352.791 128.348 354.321 128.348 356.205 L 128.348 359.991 C 128.348 361.876 126.818 363.406 124.933 363.406 Z" style="stroke:none;fill:#BDBDBD;stroke-linecap:square;stroke-miterlimit:2;"/><path d="M 106.199 363.406 L 93.25 363.406 C 90.82 363.406 88.846 361.432 88.846 359.002 L 88.846 357.195 C 88.846 354.764 90.82 352.791 93.25 352.791 L 106.199 352.791 C 108.63 352.791 110.603 354.764 110.603 357.195 L 110.603 359.002 C 110.603 361.432 108.63 363.406 106.199 363.406 Z" style="stroke:none;fill:#BDBDBD;stroke-linecap:square;stroke-miterlimit:2;"/><path d="M 277.418 348.161 L 260.806 348.161 C 257.895 348.161 255.532 345.798 255.532 342.887 L 255.532 341.239 C 255.532 338.328 257.895 335.965 260.806 335.965 L 277.418 335.965 C 280.329 335.965 282.692 338.328 282.692 341.239 L 282.692 342.887 C 282.692 345.798 280.329 348.161 277.418 348.161 Z" style="stroke:none;fill:#BDBDBD;stroke-linecap:square;stroke-miterlimit:2;"/><path d="M 277.483 331.448 L 252.324 331.448 C 248.901 331.448 246.122 328.715 246.122 325.35 L 246.122 325.35 C 246.122 321.984 248.901 319.252 252.324 319.252 L 277.483 319.252 C 280.907 319.252 283.686 321.984 283.686 325.35 L 283.686 325.35 C 283.686 328.715 280.907 331.448 277.483 331.448 Z" style="stroke:none;fill:#BDBDBD;stroke-linecap:square;stroke-miterlimit:2;"/><path d="M 277.483 314.735 L 252.324 314.735 C 248.901 314.735 246.122 312.003 246.122 308.637 L 246.122 308.637 C 246.122 305.271 248.901 302.539 252.324 302.539 L 277.483 302.539 C 280.907 302.539 283.686 305.271 283.686 308.637 L 283.686 308.637 C 283.686 312.003 280.907 314.735 277.483 314.735 Z" style="stroke:none;fill:#BDBDBD;stroke-linecap:square;stroke-miterlimit:2;"/><path d="M 238.481 330.657 L 232.233 330.657 C 230.349 330.657 228.819 329.128 228.819 327.243 L 228.819 323.457 C 228.819 321.572 230.349 320.042 232.233 320.042 L 238.481 320.042 C 240.366 320.042 241.896 321.572 241.896 323.457 L 241.896 327.243 C 241.896 329.128 240.366 330.657 238.481 330.657 Z" style="stroke:none;fill:#BDBDBD;stroke-linecap:square;stroke-miterlimit:2;"/><path d="M 221.136 330.657 L 214.888 330.657 C 213.004 330.657 211.474 329.128 211.474 327.243 L 211.474 323.457 C 211.474 321.572 213.004 320.042 214.888 320.042 L 221.136 320.042 C 223.021 320.042 224.551 321.572 224.551 323.457 L 224.551 327.243 C 224.551 329.128 223.021 330.657 221.136 330.657 Z" style="stroke:none;fill:#BDBDBD;stroke-linecap:square;stroke-miterlimit:2;"/><path d="M 203.012 330.657 L 196.763 330.657 C 194.879 330.657 193.349 329.128 193.349 327.243 L 193.349 323.457 C 193.349 321.572 194.879 320.042 196.763 320.042 L 203.012 320.042 C 204.896 320.042 206.426 321.572 206.426 323.457 L 206.426 327.243 C 206.426 329.128 204.896 330.657 203.012 330.657 Z" style="stroke:none;fill:#BDBDBD;stroke-linecap:square;stroke-miterlimit:2;"/><path d="M 185.433 330.657 L 179.185 330.657 C 177.301 330.657 175.771 329.128 175.771 327.243 L 175.771 323.457 C 175.771 321.572 177.301 320.042 179.185 320.042 L 185.433 320.042 C 187.318 320.042 188.848 321.572 188.848 323.457 L 188.848 327.243 C 188.848 329.128 187.318 330.657 185.433 330.657 Z" style="stroke:none;fill:#BDBDBD;stroke-linecap:square;stroke-miterlimit:2;"/><path d="M 167.494 330.657 L 161.245 330.657 C 159.361 330.657 157.831 329.128 157.831 327.243 L 157.831 323.457 C 157.831 321.572 159.361 320.042 161.245 320.042 L 167.494 320.042 C 169.378 320.042 170.908 321.572 170.908 323.457 L 170.908 327.243 C 170.908 329.128 169.378 330.657 167.494 330.657 Z" style="stroke:none;fill:#BDBDBD;stroke-linecap:square;stroke-miterlimit:2;"/><path d="M 132.089 330.657 L 125.841 330.657 C 123.957 330.657 122.427 329.128 122.427 327.243 L 122.427 323.457 C 122.427 321.572 123.957 320.042 125.841 320.042 L 132.089 320.042 C 133.974 320.042 135.504 321.572 135.504 323.457 L 135.504 327.243 C 135.504 329.128 133.974 330.657 132.089 330.657 Z" style="stroke:none;fill:#BDBDBD;stroke-linecap:square;stroke-miterlimit:2;"/><path d="M 149.609 330.657 L 143.361 330.657 C 141.476 330.657 139.946 329.128 139.946 327.243 L 139.946 323.457 C 139.946 321.572 141.476 320.042 143.361 320.042 L 149.609 320.042 C 151.493 320.042 153.023 321.572 153.023 323.457 L 153.023 327.243 C 153.023 329.128 151.493 330.657 149.609 330.657 Z" style="stroke:none;fill:#BDBDBD;stroke-linecap:square;stroke-miterlimit:2;"/><path d="M 112.572 330.657 L 98.287 330.657 C 95.765 330.657 93.718 328.61 93.718 326.088 L 93.718 324.612 C 93.718 322.09 95.765 320.042 98.287 320.042 L 112.572 320.042 C 115.094 320.042 117.142 322.09 117.142 324.612 L 117.142 326.088 C 117.142 328.61 115.094 330.657 112.572 330.657 Z" style="stroke:none;fill:#BDBDBD;stroke-linecap:square;stroke-miterlimit:2;"/><path d="M 238.504 314.735 L 232.244 314.735 C 230.372 314.735 228.852 313.215 228.852 311.343 L 228.852 307.625 C 228.852 305.753 230.372 304.233 232.244 304.233 L 238.504 304.233 C 240.376 304.233 241.896 305.753 241.896 307.625 L 241.896 311.343 C 241.896 313.215 240.376 314.735 238.504 314.735 Z" style="stroke:none;fill:#BDBDBD;stroke-linecap:square;stroke-miterlimit:2;"/><path d="M 221.203 314.735 L 214.943 314.735 C 213.071 314.735 211.552 313.215 211.552 311.343 L 211.552 307.625 C 211.552 305.753 213.071 304.233 214.943 304.233 L 221.203 304.233 C 223.075 304.233 224.595 305.753 224.595 307.625 L 224.595 311.343 C 224.595 313.215 223.075 314.735 221.203 314.735 Z" style="stroke:none;fill:#BDBDBD;stroke-linecap:square;stroke-miterlimit:2;"/><path d="M 203.125 314.735 L 196.865 314.735 C 194.993 314.735 193.473 313.215 193.473 311.343 L 193.473 307.625 C 193.473 305.753 194.993 304.233 196.865 304.233 L 203.125 304.233 C 204.997 304.233 206.517 305.753 206.517 307.625 L 206.517 311.343 C 206.517 313.215 204.997 314.735 203.125 314.735 Z" style="stroke:none;fill:#BDBDBD;stroke-linecap:square;stroke-miterlimit:2;"/><path d="M 185.592 314.735 L 179.332 314.735 C 177.46 314.735 175.94 313.215 175.94 311.343 L 175.94 307.625 C 175.94 305.753 177.46 304.233 179.332 304.233 L 185.592 304.233 C 187.464 304.233 188.983 305.753 188.983 307.625 L 188.983 311.343 C 188.983 313.215 187.464 314.735 185.592 314.735 Z" style="stroke:none;fill:#BDBDBD;stroke-linecap:square;stroke-miterlimit:2;"/><path d="M 167.698 314.735 L 161.438 314.735 C 159.566 314.735 158.046 313.215 158.046 311.343 L 158.046 307.625 C 158.046 305.753 159.566 304.233 161.438 304.233 L 167.698 304.233 C 169.57 304.233 171.09 305.753 171.09 307.625 L 171.09 311.343 C 171.09 313.215 169.57 314.735 167.698 314.735 Z" style="stroke:none;fill:#BDBDBD;stroke-linecap:square;stroke-miterlimit:2;"/><path d="M 132.384 314.735 L 126.124 314.735 C 124.252 314.735 122.732 313.215 122.732 311.343 L 122.732 307.625 C 122.732 305.753 124.252 304.233 126.124 304.233 L 132.384 304.233 C 134.256 304.233 135.776 305.753 135.776 307.625 L 135.776 311.343 C 135.776 313.215 134.256 314.735 132.384 314.735 Z" style="stroke:none;fill:#BDBDBD;stroke-linecap:square;stroke-miterlimit:2;"/><path d="M 149.859 314.735 L 143.599 314.735 C 141.727 314.735 140.207 313.215 140.207 311.343 L 140.207 307.625 C 140.207 305.753 141.727 304.233 143.599 304.233 L 149.859 304.233 C 151.731 304.233 153.251 305.753 153.251 307.625 L 153.251 311.343 C 153.251 313.215 151.731 314.735 149.859 314.735 Z" style="stroke:none;fill:#BDBDBD;stroke-linecap:square;stroke-miterlimit:2;"/><path d="M 114.203 314.735 L 108.687 314.735 C 106.889 314.735 105.43 313.275 105.43 311.478 L 105.43 307.49 C 105.43 305.693 106.889 304.233 108.687 304.233 L 114.203 304.233 C 116.001 304.233 117.461 305.693 117.461 307.49 L 117.461 311.478 C 117.461 313.275 116.001 314.735 114.203 314.735 Z" style="stroke:none;fill:#BDBDBD;stroke-linecap:square;stroke-miterlimit:2;"/><path d="M 97.62 314.735 L 92.104 314.735 C 90.306 314.735 88.846 313.275 88.846 311.478 L 88.846 307.49 C 88.846 305.693 90.306 304.233 92.104 304.233 L 97.62 304.233 C 99.418 304.233 100.877 305.693 100.877 307.49 L 100.877 311.478 C 100.877 313.275 99.418 314.735 97.62 314.735 Z" style="stroke:none;fill:#BDBDBD;stroke-linecap:square;stroke-miterlimit:2;"/><path d="M 251.927 298.431 L 244.245 298.431 C 242.256 298.431 240.641 296.816 240.641 294.827 L 240.641 291.647 C 240.641 289.657 242.256 288.042 244.245 288.042 L 251.927 288.042 C 253.917 288.042 255.532 289.657 255.532 291.647 L 255.532 294.827 C 255.532 296.816 253.917 298.431 251.927 298.431 Z" style="stroke:none;fill:#BDBDBD;stroke-linecap:square;stroke-miterlimit:2;"/><path d="M 267.946 298.431 L 261.862 298.431 C 260.02 298.431 258.526 296.937 258.526 295.095 L 258.526 291.378 C 258.526 289.537 260.02 288.042 261.862 288.042 L 267.946 288.042 C 269.787 288.042 271.282 289.537 271.282 291.378 L 271.282 295.095 C 271.282 296.937 269.787 298.431 267.946 298.431 Z" style="stroke:none;fill:#BDBDBD;stroke-linecap:square;stroke-miterlimit:2;"/><path d="M 280.045 298.431 L 277.306 298.431 C 275.844 298.431 274.658 297.245 274.658 295.784 L 274.658 290.69 C 274.658 289.229 275.844 288.042 277.306 288.042 L 280.045 288.042 C 281.506 288.042 282.692 289.229 282.692 290.69 L 282.692 295.784 C 282.692 297.245 281.506 298.431 280.045 298.431 Z" style="stroke:none;fill:#BDBDBD;stroke-linecap:square;stroke-miterlimit:2;"/><path d="M 233.487 298.022 L 171.384 298.022 C 169.074 298.022 167.199 296.147 167.199 293.837 L 167.199 291.592 C 167.199 289.282 169.074 287.407 171.384 287.407 L 233.487 287.407 C 235.797 287.407 237.672 289.282 237.672 291.592 L 237.672 293.837 C 237.672 296.147 235.797 298.022 233.487 298.022 Z" style="stroke:none;fill:#BDBDBD;stroke-linecap:square;stroke-miterlimit:2;"/><path d="M 160.874 298.431 L 154.626 298.431 C 152.741 298.431 151.211 296.902 151.211 295.017 L 151.211 291.231 C 151.211 289.346 152.741 287.816 154.626 287.816 L 160.874 287.816 C 162.758 287.816 164.288 289.346 164.288 291.231 L 164.288 295.017 C 164.288 296.902 162.758 298.431 160.874 298.431 Z" style="stroke:none;fill:#BDBDBD;stroke-linecap:square;stroke-miterlimit:2;"/><path d="M 142.989 297.796 L 136.741 297.796 C 134.857 297.796 133.327 296.266 133.327 294.382 L 133.327 290.595 C 133.327 288.711 134.857 287.181 136.741 287.181 L 142.989 287.181 C 144.874 287.181 146.404 288.711 146.404 290.595 L 146.404 294.382 C 146.404 296.266 144.874 297.796 142.989 297.796 Z" style="stroke:none;fill:#BDBDBD;stroke-linecap:square;stroke-miterlimit:2;"/><path d="M 124.97 297.796 L 118.649 297.796 C 116.784 297.796 115.271 296.283 115.271 294.418 L 115.271 290.785 C 115.271 288.921 116.784 287.407 118.649 287.407 L 124.97 287.407 C 126.834 287.407 128.348 288.921 128.348 290.785 L 128.348 294.418 C 128.348 296.283 126.834 297.796 124.97 297.796 Z" style="stroke:none;fill:#BDBDBD;stroke-linecap:square;stroke-miterlimit:2;"/><path d="M 94.743 297.796 L 88.422 297.796 C 86.557 297.796 85.044 296.283 85.044 294.418 L 85.044 290.785 C 85.044 288.921 86.557 287.407 88.422 287.407 L 94.743 287.407 C 96.607 287.407 98.121 288.921 98.121 290.785 L 98.121 294.418 C 98.121 296.283 96.607 297.796 94.743 297.796 Z" style="stroke:none;fill:#BDBDBD;stroke-linecap:square;stroke-miterlimit:2;"/><path d="M 111.06 297.796 L 102.332 297.796 C 101.132 297.796 100.157 296.832 100.157 295.644 L 100.157 295.644 C 100.157 294.455 101.132 293.491 102.332 293.491 L 111.06 293.491 C 112.26 293.491 113.234 294.455 113.234 295.644 L 113.234 295.644 C 113.234 296.832 112.26 297.796 111.06 297.796 Z" style="stroke:none;fill:#BDBDBD;stroke-linecap:square;stroke-miterlimit:2;"/><path d="M 246.306 348.161 L 240.057 348.161 C 238.173 348.161 236.643 346.631 236.643 344.747 L 236.643 340.96 C 236.643 339.076 238.173 337.546 240.057 337.546 L 246.306 337.546 C 248.19 337.546 249.72 339.076 249.72 340.96 L 249.72 344.747 C 249.72 346.631 248.19 348.161 246.306 348.161 Z" style="stroke:none;fill:#BDBDBD;stroke-linecap:square;stroke-miterlimit:2;"/><path d="M 228.961 348.161 L 222.712 348.161 C 220.828 348.161 219.298 346.631 219.298 344.747 L 219.298 340.96 C 219.298 339.076 220.828 337.546 222.712 337.546 L 228.961 337.546 C 230.845 337.546 232.375 339.076 232.375 340.96 L 232.375 344.747 C 232.375 346.631 230.845 348.161 228.961 348.161 Z" style="stroke:none;fill:#BDBDBD;stroke-linecap:square;stroke-miterlimit:2;"/><path d="M 210.836 348.161 L 204.588 348.161 C 202.703 348.161 201.173 346.631 201.173 344.747 L 201.173 340.96 C 201.173 339.076 202.703 337.546 204.588 337.546 L 210.836 337.546 C 212.72 337.546 214.25 339.076 214.25 340.96 L 214.25 344.747 C 214.25 346.631 212.72 348.161 210.836 348.161 Z" style="stroke:none;fill:#BDBDBD;stroke-linecap:square;stroke-miterlimit:2;"/><path d="M 193.258 348.161 L 187.009 348.161 C 185.125 348.161 183.595 346.631 183.595 344.747 L 183.595 340.96 C 183.595 339.076 185.125 337.546 187.009 337.546 L 193.258 337.546 C 195.142 337.546 196.672 339.076 196.672 340.96 L 196.672 344.747 C 196.672 346.631 195.142 348.161 193.258 348.161 Z" style="stroke:none;fill:#BDBDBD;stroke-linecap:square;stroke-miterlimit:2;"/><path d="M 175.318 348.161 L 169.069 348.161 C 167.185 348.161 165.655 346.631 165.655 344.747 L 165.655 340.96 C 165.655 339.076 167.185 337.546 169.069 337.546 L 175.318 337.546 C 177.202 337.546 178.732 339.076 178.732 340.96 L 178.732 344.747 C 178.732 346.631 177.202 348.161 175.318 348.161 Z" style="stroke:none;fill:#BDBDBD;stroke-linecap:square;stroke-miterlimit:2;"/><path d="M 139.914 348.161 L 133.665 348.161 C 131.781 348.161 130.251 346.631 130.251 344.747 L 130.251 340.96 C 130.251 339.076 131.781 337.546 133.665 337.546 L 139.914 337.546 C 141.798 337.546 143.328 339.076 143.328 340.96 L 143.328 344.747 C 143.328 346.631 141.798 348.161 139.914 348.161 Z" style="stroke:none;fill:#BDBDBD;stroke-linecap:square;stroke-miterlimit:2;"/><path d="M 157.433 348.161 L 151.185 348.161 C 149.3 348.161 147.771 346.631 147.771 344.747 L 147.771 340.96 C 147.771 339.076 149.3 337.546 151.185 337.546 L 157.433 337.546 C 159.318 337.546 160.847 339.076 160.847 340.96 L 160.847 344.747 C 160.847 346.631 159.318 348.161 157.433 348.161 Z" style="stroke:none;fill:#BDBDBD;stroke-linecap:square;stroke-miterlimit:2;"/><path d="M 121.837 348.161 L 115.588 348.161 C 113.704 348.161 112.174 346.631 112.174 344.747 L 112.174 340.96 C 112.174 339.076 113.704 337.546 115.588 337.546 L 121.837 337.546 C 123.721 337.546 125.251 339.076 125.251 340.96 L 125.251 344.747 C 125.251 346.631 123.721 348.161 121.837 348.161 Z" style="stroke:none;fill:#BDBDBD;stroke-linecap:square;stroke-miterlimit:2;"/><path d="M 103.76 348.161 L 97.511 348.161 C 95.627 348.161 94.097 346.631 94.097 344.747 L 94.097 340.96 C 94.097 339.076 95.627 337.546 97.511 337.546 L 103.76 337.546 C 105.644 337.546 107.174 339.076 107.174 340.96 L 107.174 344.747 C 107.174 346.631 105.644 348.161 103.76 348.161 Z" style="stroke:none;fill:#BDBDBD;stroke-linecap:square;stroke-miterlimit:2;"/><path d="M 111.06 292.079 L 102.332 292.079 C 101.132 292.079 100.157 291.115 100.157 289.927 L 100.157 289.927 C 100.157 288.739 101.132 287.774 102.332 287.774 L 111.06 287.774 C 112.26 287.774 113.234 288.739 113.234 289.927 L 113.234 289.927 C 113.234 291.115 112.26 292.079 111.06 292.079 Z" style="stroke:none;fill:#BDBDBD;stroke-linecap:square;stroke-miterlimit:2;"/></g><path d=" M 209.028 257.895 C 202.622 274.394 203.543 289.857 211.084 292.404 C 218.624 294.95 229.946 283.621 236.352 267.122" fill="rgb(172,132,73)" vector-effect="non-scaling-stroke" stroke-width="3" stroke="rgb(147,112,60)" stroke-linejoin="miter" stroke-linecap="square" stroke-miterlimit="3"/><path d=" M 128.838 260.903 C 109.04 242.038 98.157 221.742 104.549 215.608 C 110.941 209.473 132.203 219.809 152 238.674" fill="rgb(172,132,73)"/></g></g></g></svg>