<?xml version="1.0" standalone="no"?><!-- Generator: Gravit.io --><svg xmlns="http://www.w3.org/2000/svg" xmlns:xlink="http://www.w3.org/1999/xlink" style="isolation:isolate" viewBox="0 0 400 700" width="400" height="700"><defs><clipPath id="_clipPath_Ya9jbKzd1lU9H1ILV7Zog3SCaMCODT0e"><rect width="400" height="700"/></clipPath></defs><g clip-path="url(#_clipPath_Ya9jbKzd1lU9H1ILV7Zog3SCaMCODT0e)"><g><g><path d="M 211.725 287.962 L 211.725 287.962 C 259.704 287.962 298.657 343.984 298.657 412.986 L 298.657 412.986 C 298.657 443.003 261.841 467.372 216.494 467.372 L 206.956 467.372 C 161.609 467.372 124.793 443.003 124.793 412.986 L 124.793 412.986 C 124.793 343.984 163.746 287.962 211.725 287.962 Z" style="stroke:none;fill:#AC8449;stroke-miterlimit:10;"/></g><g><path d=" M 144.683 236.369 C 136.935 231.722 133.773 222.498 137.628 215.783 C 141.482 209.068 150.902 207.389 158.65 212.036 C 166.399 216.683 169.56 225.907 165.705 232.622 C 161.851 239.337 152.431 241.016 144.683 236.369 Z " fill="rgb(189,146,82)"/><path d=" M 147.822 234.15 C 143.143 231.344 141.066 226.064 143.188 222.367 C 145.31 218.671 150.832 217.948 155.511 220.754 C 160.191 223.561 162.267 228.84 160.145 232.537 C 158.023 236.234 152.501 236.956 147.822 234.15 Z " fill="rgb(255,255,208)"/><path d=" M 275.317 236.369 C 283.065 231.722 286.227 222.498 282.372 215.783 C 278.518 209.068 269.098 207.389 261.35 212.036 C 253.601 216.683 250.44 225.907 254.295 232.622 C 258.149 239.337 267.569 241.016 275.317 236.369 Z " fill="rgb(189,146,82)"/><path d=" M 272.178 234.15 C 276.857 231.344 278.934 226.064 276.812 222.367 C 274.69 218.671 269.168 217.948 264.489 220.754 C 259.809 223.561 257.733 228.84 259.855 232.537 C 261.977 236.234 267.499 236.956 272.178 234.15 Z " fill="rgb(255,255,208)"/><ellipse vector-effect="non-scaling-stroke" cx="209.79610258977684" cy="262.43863276625984" rx="64.18147120833046" ry="62.43863276626003" fill="rgb(189,146,82)"/><ellipse vector-effect="non-scaling-stroke" cx="178.75384219875718" cy="247.03833481869785" rx="7.862373763436324" ry="8.041322304940394" fill="rgb(23,23,23)"/><ellipse vector-effect="non-scaling-stroke" cx="180.17720296627567" cy="243.28371759574264" rx="2.7111633667021806" ry="2.710759839660625" fill="rgb(255,255,255)"/><ellipse vector-effect="non-scaling-stroke" cx="239.5516806970532" cy="247.03833481869785" rx="7.862373763436324" ry="8.041322304940394" fill="rgb(23,23,23)"/><ellipse vector-effect="non-scaling-stroke" cx="237.92498267703238" cy="243.28371759574264" rx="2.7111633667021806" ry="2.710759839660625" fill="rgb(255,255,255)"/><ellipse vector-effect="non-scaling-stroke" cx="209.79610258977698" cy="287.72267428365717" rx="68.5095298349471" ry="39.678618457924856" fill="rgb(215,170,103)"/><path d=" M 164.749 289.199 C 163.548 285.528 165.271 281.886 168.594 281.071 C 171.916 280.256 175.589 282.575 176.79 286.246 C 177.991 289.917 176.269 293.56 172.946 294.374 C 169.623 295.189 165.95 292.87 164.749 289.199 Z " fill="rgb(255,255,208)"/><path d=" M 256.474 289.199 C 257.675 285.528 255.953 281.886 252.63 281.071 C 249.307 280.256 245.634 282.575 244.433 286.246 C 243.232 289.917 244.955 293.56 248.277 294.374 C 251.6 295.189 255.273 292.87 256.474 289.199 Z " fill="rgb(255,255,208)"/></g><g><path d="M 331.685 500 L 88.315 500 C 80.966 500 75 494.034 75 486.685 L 75 396.008 C 75 388.66 80.966 382.694 88.315 382.694 L 331.685 382.694 C 339.034 382.694 345 388.66 345 396.008 L 345 486.685 C 345 494.034 339.034 500 331.685 500 Z" style="stroke:none;fill:#EBEBEB;stroke-miterlimit:10;"/><path d="M 331.685 500 L 88.315 500 C 80.966 500 75 494.034 75 486.685 L 75 396.008 C 75 388.66 80.966 382.694 88.315 382.694 L 331.685 382.694 C 339.034 382.694 345 388.66 345 396.008 L 345 486.685 C 345 494.034 339.034 500 331.685 500 Z" style="fill:none;stroke:#CECECE;stroke-width:2;stroke-linecap:square;stroke-miterlimit:2;"/><path d="M 325.627 489.793 L 318.114 489.793 C 315.758 489.793 313.846 487.881 313.846 485.526 L 313.846 480.548 C 313.846 478.192 315.758 476.28 318.114 476.28 L 325.627 476.28 C 327.983 476.28 329.895 478.192 329.895 480.548 L 329.895 485.526 C 329.895 487.881 327.983 489.793 325.627 489.793 Z" style="stroke:none;fill:#BDBDBD;stroke-linecap:square;stroke-miterlimit:2;"/><path d="M 279.032 489.793 L 271.518 489.793 C 269.163 489.793 267.25 487.881 267.25 485.526 L 267.25 480.548 C 267.25 478.192 269.163 476.28 271.518 476.28 L 279.032 476.28 C 281.387 476.28 283.299 478.192 283.299 480.548 L 283.299 485.526 C 283.299 487.881 281.387 489.793 279.032 489.793 Z" style="stroke:none;fill:#BDBDBD;stroke-linecap:square;stroke-miterlimit:2;"/><path d="M 255.408 489.793 L 247.894 489.793 C 245.539 489.793 243.626 487.881 243.626 485.526 L 243.626 480.548 C 243.626 478.192 245.539 476.28 247.894 476.28 L 255.408 476.28 C 257.763 476.28 259.675 478.192 259.675 480.548 L 259.675 485.526 C 259.675 487.881 257.763 489.793 255.408 489.793 Z" style="stroke:none;fill:#BDBDBD;stroke-linecap:square;stroke-miterlimit:2;"/><path d="M 303.599 489.793 L 296.086 489.793 C 293.73 489.793 291.818 487.881 291.818 485.526 L 291.818 480.548 C 291.818 478.192 293.73 476.28 296.086 476.28 L 303.599 476.28 C 305.955 476.28 307.867 478.192 307.867 480.548 L 307.867 485.526 C 307.867 487.881 305.955 489.793 303.599 489.793 Z" style="stroke:none;fill:#BDBDBD;stroke-linecap:square;stroke-miterlimit:2;"/><path d="M 231.567 489.793 L 224.053 489.793 C 221.698 489.793 219.786 487.881 219.786 485.526 L 219.786 480.548 C 219.786 478.192 221.698 476.28 224.053 476.28 L 231.567 476.28 C 233.922 476.28 235.835 478.192 235.835 480.548 L 235.835 485.526 C 235.835 487.881 233.922 489.793 231.567 489.793 Z" style="stroke:none;fill:#BDBDBD;stroke-linecap:square;stroke-miterlimit:2;"/><path d="M 207.726 489.793 L 200.213 489.793 C 197.857 489.793 195.945 487.881 195.945 485.526 L 195.945 480.548 C 195.945 478.192 197.857 476.28 200.213 476.28 L 207.726 476.28 C 210.082 476.28 211.994 478.192 211.994 480.548 L 211.994 485.526 C 211.994 487.881 210.082 489.793 207.726 489.793 Z" style="stroke:none;fill:#BDBDBD;stroke-linecap:square;stroke-miterlimit:2;"/><path d="M 183.886 489.793 L 176.372 489.793 C 174.017 489.793 172.104 487.881 172.104 485.526 L 172.104 480.548 C 172.104 478.192 174.017 476.28 176.372 476.28 L 183.886 476.28 C 186.241 476.28 188.153 478.192 188.153 480.548 L 188.153 485.526 C 188.153 487.881 186.241 489.793 183.886 489.793 Z" style="stroke:none;fill:#BDBDBD;stroke-linecap:square;stroke-miterlimit:2;"/><path d="M 160.045 489.793 L 152.531 489.793 C 150.176 489.793 148.264 487.881 148.264 485.526 L 148.264 480.548 C 148.264 478.192 150.176 476.28 152.531 476.28 L 160.045 476.28 C 162.401 476.28 164.313 478.192 164.313 480.548 L 164.313 485.526 C 164.313 487.881 162.401 489.793 160.045 489.793 Z" style="stroke:none;fill:#BDBDBD;stroke-linecap:square;stroke-miterlimit:2;"/><path d="M 136.205 489.793 L 128.691 489.793 C 126.335 489.793 124.423 487.881 124.423 485.526 L 124.423 480.548 C 124.423 478.192 126.335 476.28 128.691 476.28 L 136.205 476.28 C 138.56 476.28 140.472 478.192 140.472 480.548 L 140.472 485.526 C 140.472 487.881 138.56 489.793 136.205 489.793 Z" style="stroke:none;fill:#BDBDBD;stroke-linecap:square;stroke-miterlimit:2;"/><path d="M 113.19 489.793 L 97.498 489.793 C 94.46 489.793 91.993 487.327 91.993 484.288 L 91.993 481.785 C 91.993 478.747 94.46 476.28 97.498 476.28 L 113.19 476.28 C 116.228 476.28 118.695 478.747 118.695 481.785 L 118.695 484.288 C 118.695 487.327 116.228 489.793 113.19 489.793 Z" style="stroke:none;fill:#BDBDBD;stroke-linecap:square;stroke-miterlimit:2;"/><path d="M 323.303 470.386 L 303.154 470.386 C 299.516 470.386 296.562 467.432 296.562 463.793 L 296.562 461.453 C 296.562 457.814 299.516 454.86 303.154 454.86 L 323.303 454.86 C 326.941 454.86 329.895 457.814 329.895 461.453 L 329.895 463.793 C 329.895 467.432 326.941 470.386 323.303 470.386 Z" style="stroke:none;fill:#BDBDBD;stroke-linecap:square;stroke-miterlimit:2;"/><path d="M 323.362 449.11 L 292.766 449.11 C 288.487 449.11 285.013 445.636 285.013 441.357 L 285.013 441.337 C 285.013 437.058 288.487 433.584 292.766 433.584 L 323.362 433.584 C 327.641 433.584 331.115 437.058 331.115 441.337 L 331.115 441.357 C 331.115 445.636 327.641 449.11 323.362 449.11 Z" style="stroke:none;fill:#BDBDBD;stroke-linecap:square;stroke-miterlimit:2;"/><path d="M 323.362 427.834 L 292.766 427.834 C 288.487 427.834 285.013 424.36 285.013 420.081 L 285.013 420.061 C 285.013 415.782 288.487 412.308 292.766 412.308 L 323.362 412.308 C 327.641 412.308 331.115 415.782 331.115 420.061 L 331.115 420.081 C 331.115 424.36 327.641 427.834 323.362 427.834 Z" style="stroke:none;fill:#BDBDBD;stroke-linecap:square;stroke-miterlimit:2;"/><path d="M 275.559 448.104 L 268.045 448.104 C 265.69 448.104 263.778 446.191 263.778 443.836 L 263.778 438.858 C 263.778 436.503 265.69 434.59 268.045 434.59 L 275.559 434.59 C 277.914 434.59 279.826 436.503 279.826 438.858 L 279.826 443.836 C 279.826 446.191 277.914 448.104 275.559 448.104 Z" style="stroke:none;fill:#BDBDBD;stroke-linecap:square;stroke-miterlimit:2;"/><path d="M 254.272 448.104 L 246.758 448.104 C 244.403 448.104 242.491 446.191 242.491 443.836 L 242.491 438.858 C 242.491 436.503 244.403 434.59 246.758 434.59 L 254.272 434.59 C 256.627 434.59 258.54 436.503 258.54 438.858 L 258.54 443.836 C 258.54 446.191 256.627 448.104 254.272 448.104 Z" style="stroke:none;fill:#BDBDBD;stroke-linecap:square;stroke-miterlimit:2;"/><path d="M 232.028 448.104 L 224.514 448.104 C 222.159 448.104 220.247 446.191 220.247 443.836 L 220.247 438.858 C 220.247 436.503 222.159 434.59 224.514 434.59 L 232.028 434.59 C 234.383 434.59 236.296 436.503 236.296 438.858 L 236.296 443.836 C 236.296 446.191 234.383 448.104 232.028 448.104 Z" style="stroke:none;fill:#BDBDBD;stroke-linecap:square;stroke-miterlimit:2;"/><path d="M 210.455 448.104 L 202.941 448.104 C 200.585 448.104 198.673 446.191 198.673 443.836 L 198.673 438.858 C 198.673 436.503 200.585 434.59 202.941 434.59 L 210.455 434.59 C 212.81 434.59 214.722 436.503 214.722 438.858 L 214.722 443.836 C 214.722 446.191 212.81 448.104 210.455 448.104 Z" style="stroke:none;fill:#BDBDBD;stroke-linecap:square;stroke-miterlimit:2;"/><path d="M 188.438 448.104 L 180.924 448.104 C 178.568 448.104 176.656 446.191 176.656 443.836 L 176.656 438.858 C 176.656 436.503 178.568 434.59 180.924 434.59 L 188.438 434.59 C 190.793 434.59 192.705 436.503 192.705 438.858 L 192.705 443.836 C 192.705 446.191 190.793 448.104 188.438 448.104 Z" style="stroke:none;fill:#BDBDBD;stroke-linecap:square;stroke-miterlimit:2;"/><path d="M 144.987 448.104 L 137.473 448.104 C 135.118 448.104 133.206 446.191 133.206 443.836 L 133.206 438.858 C 133.206 436.503 135.118 434.59 137.473 434.59 L 144.987 434.59 C 147.342 434.59 149.255 436.503 149.255 438.858 L 149.255 443.836 C 149.255 446.191 147.342 448.104 144.987 448.104 Z" style="stroke:none;fill:#BDBDBD;stroke-linecap:square;stroke-miterlimit:2;"/><path d="M 166.488 448.104 L 158.975 448.104 C 156.619 448.104 154.707 446.191 154.707 443.836 L 154.707 438.858 C 154.707 436.503 156.619 434.59 158.975 434.59 L 166.488 434.59 C 168.844 434.59 170.756 436.503 170.756 438.858 L 170.756 443.836 C 170.756 446.191 168.844 448.104 166.488 448.104 Z" style="stroke:none;fill:#BDBDBD;stroke-linecap:square;stroke-miterlimit:2;"/><path d="M 121.008 448.104 L 103.684 448.104 C 100.531 448.104 97.972 445.544 97.972 442.392 L 97.972 440.302 C 97.972 437.15 100.531 434.59 103.684 434.59 L 121.008 434.59 C 124.16 434.59 126.719 437.15 126.719 440.302 L 126.719 442.392 C 126.719 445.544 124.16 448.104 121.008 448.104 Z" style="stroke:none;fill:#BDBDBD;stroke-linecap:square;stroke-miterlimit:2;"/><path d="M 275.587 427.834 L 268.058 427.834 C 265.718 427.834 263.819 425.934 263.819 423.594 L 263.819 418.704 C 263.819 416.364 265.718 414.464 268.058 414.464 L 275.587 414.464 C 277.927 414.464 279.826 416.364 279.826 418.704 L 279.826 423.594 C 279.826 425.934 277.927 427.834 275.587 427.834 Z" style="stroke:none;fill:#BDBDBD;stroke-linecap:square;stroke-miterlimit:2;"/><path d="M 254.355 427.834 L 246.826 427.834 C 244.486 427.834 242.586 425.934 242.586 423.594 L 242.586 418.704 C 242.586 416.364 244.486 414.464 246.826 414.464 L 254.355 414.464 C 256.694 414.464 258.594 416.364 258.594 418.704 L 258.594 423.594 C 258.594 425.934 256.694 427.834 254.355 427.834 Z" style="stroke:none;fill:#BDBDBD;stroke-linecap:square;stroke-miterlimit:2;"/><path d="M 232.167 427.834 L 224.638 427.834 C 222.299 427.834 220.399 425.934 220.399 423.594 L 220.399 418.704 C 220.399 416.364 222.299 414.464 224.638 414.464 L 232.167 414.464 C 234.507 414.464 236.407 416.364 236.407 418.704 L 236.407 423.594 C 236.407 425.934 234.507 427.834 232.167 427.834 Z" style="stroke:none;fill:#BDBDBD;stroke-linecap:square;stroke-miterlimit:2;"/><path d="M 210.649 427.834 L 203.12 427.834 C 200.78 427.834 198.881 425.934 198.881 423.594 L 198.881 418.704 C 198.881 416.364 200.78 414.464 203.12 414.464 L 210.649 414.464 C 212.989 414.464 214.889 416.364 214.889 418.704 L 214.889 423.594 C 214.889 425.934 212.989 427.834 210.649 427.834 Z" style="stroke:none;fill:#BDBDBD;stroke-linecap:square;stroke-miterlimit:2;"/><path d="M 188.689 427.834 L 181.16 427.834 C 178.82 427.834 176.92 425.934 176.92 423.594 L 176.92 418.704 C 176.92 416.364 178.82 414.464 181.16 414.464 L 188.689 414.464 C 191.028 414.464 192.928 416.364 192.928 418.704 L 192.928 423.594 C 192.928 425.934 191.028 427.834 188.689 427.834 Z" style="stroke:none;fill:#BDBDBD;stroke-linecap:square;stroke-miterlimit:2;"/><path d="M 145.349 427.834 L 137.82 427.834 C 135.48 427.834 133.581 425.934 133.581 423.594 L 133.581 418.704 C 133.581 416.364 135.48 414.464 137.82 414.464 L 145.349 414.464 C 147.689 414.464 149.589 416.364 149.589 418.704 L 149.589 423.594 C 149.589 425.934 147.689 427.834 145.349 427.834 Z" style="stroke:none;fill:#BDBDBD;stroke-linecap:square;stroke-miterlimit:2;"/><path d="M 166.795 427.834 L 159.266 427.834 C 156.927 427.834 155.027 425.934 155.027 423.594 L 155.027 418.704 C 155.027 416.364 156.927 414.464 159.266 414.464 L 166.795 414.464 C 169.135 414.464 171.035 416.364 171.035 418.704 L 171.035 423.594 C 171.035 425.934 169.135 427.834 166.795 427.834 Z" style="stroke:none;fill:#BDBDBD;stroke-linecap:square;stroke-miterlimit:2;"/><path d="M 123.039 427.834 L 116.417 427.834 C 114.17 427.834 112.346 426.009 112.346 423.762 L 112.346 418.536 C 112.346 416.289 114.17 414.464 116.417 414.464 L 123.039 414.464 C 125.287 414.464 127.111 416.289 127.111 418.536 L 127.111 423.762 C 127.111 426.009 125.287 427.834 123.039 427.834 Z" style="stroke:none;fill:#BDBDBD;stroke-linecap:square;stroke-miterlimit:2;"/><path d="M 102.687 427.834 L 96.065 427.834 C 93.817 427.834 91.993 426.009 91.993 423.762 L 91.993 418.536 C 91.993 416.289 93.817 414.464 96.065 414.464 L 102.687 414.464 C 104.934 414.464 106.758 416.289 106.758 418.536 L 106.758 423.762 C 106.758 426.009 104.934 427.834 102.687 427.834 Z" style="stroke:none;fill:#BDBDBD;stroke-linecap:square;stroke-miterlimit:2;"/><path d="M 292.056 407.079 L 282.792 407.079 C 280.305 407.079 278.287 405.06 278.287 402.573 L 278.287 398.358 C 278.287 395.872 280.305 393.853 282.792 393.853 L 292.056 393.853 C 294.543 393.853 296.562 395.872 296.562 398.358 L 296.562 402.573 C 296.562 405.06 294.543 407.079 292.056 407.079 Z" style="stroke:none;fill:#BDBDBD;stroke-linecap:square;stroke-miterlimit:2;"/><path d="M 311.722 407.079 L 304.406 407.079 C 302.105 407.079 300.236 405.21 300.236 402.909 L 300.236 398.023 C 300.236 395.721 302.105 393.853 304.406 393.853 L 311.722 393.853 C 314.023 393.853 315.892 395.721 315.892 398.023 L 315.892 402.909 C 315.892 405.21 314.023 407.079 311.722 407.079 Z" style="stroke:none;fill:#BDBDBD;stroke-linecap:square;stroke-miterlimit:2;"/><path d="M 326.586 407.079 L 323.344 407.079 C 321.518 407.079 320.035 405.596 320.035 403.769 L 320.035 397.162 C 320.035 395.336 321.518 393.853 323.344 393.853 L 326.586 393.853 C 328.412 393.853 329.895 395.336 329.895 397.162 L 329.895 403.769 C 329.895 405.596 328.412 407.079 326.586 407.079 Z" style="stroke:none;fill:#BDBDBD;stroke-linecap:square;stroke-miterlimit:2;"/><path d="M 269.412 406.558 L 193.384 406.558 C 190.497 406.558 188.153 404.214 188.153 401.327 L 188.153 398.275 C 188.153 395.388 190.497 393.044 193.384 393.044 L 269.412 393.044 C 272.299 393.044 274.643 395.388 274.643 398.275 L 274.643 401.327 C 274.643 404.214 272.299 406.558 269.412 406.558 Z" style="stroke:none;fill:#BDBDBD;stroke-linecap:square;stroke-miterlimit:2;"/><path d="M 180.313 407.079 L 172.8 407.079 C 170.444 407.079 168.532 405.166 168.532 402.811 L 168.532 397.833 C 168.532 395.478 170.444 393.565 172.8 393.565 L 180.313 393.565 C 182.669 393.565 184.581 395.478 184.581 397.833 L 184.581 402.811 C 184.581 405.166 182.669 407.079 180.313 407.079 Z" style="stroke:none;fill:#BDBDBD;stroke-linecap:square;stroke-miterlimit:2;"/><path d="M 158.364 406.27 L 150.85 406.27 C 148.495 406.27 146.583 404.358 146.583 402.002 L 146.583 397.024 C 146.583 394.669 148.495 392.757 150.85 392.757 L 158.364 392.757 C 160.72 392.757 162.632 394.669 162.632 397.024 L 162.632 402.002 C 162.632 404.358 160.72 406.27 158.364 406.27 Z" style="stroke:none;fill:#BDBDBD;stroke-linecap:square;stroke-miterlimit:2;"/><path d="M 136.25 406.27 L 128.645 406.27 C 126.315 406.27 124.423 404.378 124.423 402.048 L 124.423 397.266 C 124.423 394.936 126.315 393.044 128.645 393.044 L 136.25 393.044 C 138.58 393.044 140.472 394.936 140.472 397.266 L 140.472 402.048 C 140.472 404.378 138.58 406.27 136.25 406.27 Z" style="stroke:none;fill:#BDBDBD;stroke-linecap:square;stroke-miterlimit:2;"/><path d="M 99.154 406.27 L 91.549 406.27 C 89.218 406.27 87.327 404.378 87.327 402.048 L 87.327 397.266 C 87.327 394.936 89.218 393.044 91.549 393.044 L 99.154 393.044 C 101.484 393.044 103.376 394.936 103.376 397.266 L 103.376 402.048 C 103.376 404.378 101.484 406.27 99.154 406.27 Z" style="stroke:none;fill:#BDBDBD;stroke-linecap:square;stroke-miterlimit:2;"/><path d="M 119.206 406.27 L 108.593 406.27 C 107.093 406.27 105.875 405.052 105.875 403.552 L 105.875 403.507 C 105.875 402.007 107.093 400.789 108.593 400.789 L 119.206 400.789 C 120.706 400.789 121.924 402.007 121.924 403.507 L 121.924 403.552 C 121.924 405.052 120.706 406.27 119.206 406.27 Z" style="stroke:none;fill:#BDBDBD;stroke-linecap:square;stroke-miterlimit:2;"/><path d="M 285.161 470.386 L 277.648 470.386 C 275.292 470.386 273.38 468.474 273.38 466.118 L 273.38 461.14 C 273.38 458.785 275.292 456.873 277.648 456.873 L 285.161 456.873 C 287.517 456.873 289.429 458.785 289.429 461.14 L 289.429 466.118 C 289.429 468.474 287.517 470.386 285.161 470.386 Z" style="stroke:none;fill:#BDBDBD;stroke-linecap:square;stroke-miterlimit:2;"/><path d="M 263.874 470.386 L 256.361 470.386 C 254.005 470.386 252.093 468.474 252.093 466.118 L 252.093 461.14 C 252.093 458.785 254.005 456.873 256.361 456.873 L 263.874 456.873 C 266.23 456.873 268.142 458.785 268.142 461.14 L 268.142 466.118 C 268.142 468.474 266.23 470.386 263.874 470.386 Z" style="stroke:none;fill:#BDBDBD;stroke-linecap:square;stroke-miterlimit:2;"/><path d="M 241.63 470.386 L 234.117 470.386 C 231.761 470.386 229.849 468.474 229.849 466.118 L 229.849 461.14 C 229.849 458.785 231.761 456.873 234.117 456.873 L 241.63 456.873 C 243.986 456.873 245.898 458.785 245.898 461.14 L 245.898 466.118 C 245.898 468.474 243.986 470.386 241.63 470.386 Z" style="stroke:none;fill:#BDBDBD;stroke-linecap:square;stroke-miterlimit:2;"/><path d="M 220.057 470.386 L 212.543 470.386 C 210.188 470.386 208.276 468.474 208.276 466.118 L 208.276 461.14 C 208.276 458.785 210.188 456.873 212.543 456.873 L 220.057 456.873 C 222.412 456.873 224.325 458.785 224.325 461.14 L 224.325 466.118 C 224.325 468.474 222.412 470.386 220.057 470.386 Z" style="stroke:none;fill:#BDBDBD;stroke-linecap:square;stroke-miterlimit:2;"/><path d="M 198.04 470.386 L 190.526 470.386 C 188.171 470.386 186.259 468.474 186.259 466.118 L 186.259 461.14 C 186.259 458.785 188.171 456.873 190.526 456.873 L 198.04 456.873 C 200.395 456.873 202.308 458.785 202.308 461.14 L 202.308 466.118 C 202.308 468.474 200.395 470.386 198.04 470.386 Z" style="stroke:none;fill:#BDBDBD;stroke-linecap:square;stroke-miterlimit:2;"/><path d="M 154.589 470.386 L 147.076 470.386 C 144.72 470.386 142.808 468.474 142.808 466.118 L 142.808 461.14 C 142.808 458.785 144.72 456.873 147.076 456.873 L 154.589 456.873 C 156.945 456.873 158.857 458.785 158.857 461.14 L 158.857 466.118 C 158.857 468.474 156.945 470.386 154.589 470.386 Z" style="stroke:none;fill:#BDBDBD;stroke-linecap:square;stroke-miterlimit:2;"/><path d="M 176.091 470.386 L 168.577 470.386 C 166.222 470.386 164.309 468.474 164.309 466.118 L 164.309 461.14 C 164.309 458.785 166.222 456.873 168.577 456.873 L 176.091 456.873 C 178.446 456.873 180.358 458.785 180.358 461.14 L 180.358 466.118 C 180.358 468.474 178.446 470.386 176.091 470.386 Z" style="stroke:none;fill:#BDBDBD;stroke-linecap:square;stroke-miterlimit:2;"/><path d="M 132.404 470.386 L 124.89 470.386 C 122.535 470.386 120.623 468.474 120.623 466.118 L 120.623 461.14 C 120.623 458.785 122.535 456.873 124.89 456.873 L 132.404 456.873 C 134.759 456.873 136.672 458.785 136.672 461.14 L 136.672 466.118 C 136.672 468.474 134.759 470.386 132.404 470.386 Z" style="stroke:none;fill:#BDBDBD;stroke-linecap:square;stroke-miterlimit:2;"/><path d="M 110.219 470.386 L 102.705 470.386 C 100.35 470.386 98.437 468.474 98.437 466.118 L 98.437 461.14 C 98.437 458.785 100.35 456.873 102.705 456.873 L 110.219 456.873 C 112.574 456.873 114.486 458.785 114.486 461.14 L 114.486 466.118 C 114.486 468.474 112.574 470.386 110.219 470.386 Z" style="stroke:none;fill:#BDBDBD;stroke-linecap:square;stroke-miterlimit:2;"/><path d="M 119.206 398.992 L 108.593 398.992 C 107.093 398.992 105.875 397.774 105.875 396.274 L 105.875 396.229 C 105.875 394.729 107.093 393.512 108.593 393.512 L 119.206 393.512 C 120.706 393.512 121.924 394.729 121.924 396.229 L 121.924 396.274 C 121.924 397.774 120.706 398.992 119.206 398.992 Z" style="stroke:none;fill:#BDBDBD;stroke-linecap:square;stroke-miterlimit:2;"/></g><path d=" M 239.489 355.474 C 231.627 376.479 232.758 396.164 242.012 399.405 C 251.266 402.646 265.161 388.225 273.023 367.22" fill="rgb(172,132,73)" vector-effect="non-scaling-stroke" stroke-width="3" stroke="rgb(147,112,60)" stroke-linejoin="miter" stroke-linecap="square" stroke-miterlimit="3"/><path d=" M 181.901 355.474 C 189.763 376.479 188.633 396.164 179.379 399.405 C 170.125 402.646 156.229 388.225 148.368 367.22" fill="rgb(172,132,73)" vector-effect="non-scaling-stroke" stroke-width="3" stroke="rgb(147,112,60)" stroke-linejoin="miter" stroke-linecap="square" stroke-miterlimit="3"/></g></g></svg>