<?xml version="1.0" standalone="no"?><!-- Generator: Gravit.io --><svg xmlns="http://www.w3.org/2000/svg" xmlns:xlink="http://www.w3.org/1999/xlink" style="isolation:isolate" viewBox="0 0 500 500" width="500" height="500"><defs><clipPath id="_clipPath_Fn85ZlPsDqeaoji8jUqKF42YSF9yrTtI"><rect width="500" height="500"/></clipPath></defs><g clip-path="url(#_clipPath_Fn85ZlPsDqeaoji8jUqKF42YSF9yrTtI)"><g><g><path d="M 239.725 187.962 L 239.725 187.962 C 287.704 187.962 326.657 243.984 326.657 312.986 L 326.657 312.986 C 326.657 343.003 289.841 367.372 244.494 367.372 L 234.956 367.372 C 189.609 367.372 152.793 343.003 152.793 312.986 L 152.793 312.986 C 152.793 243.984 191.746 187.962 239.725 187.962 Z" style="stroke:none;fill:#AC8449;stroke-miterlimit:10;"/></g><g><path d=" M 172.683 136.369 C 164.935 131.722 161.773 122.498 165.628 115.783 C 169.482 109.068 178.902 107.389 186.65 112.036 C 194.399 116.683 197.56 125.907 193.705 132.622 C 189.851 139.337 180.431 141.016 172.683 136.369 Z " fill="rgb(189,146,82)"/><path d=" M 175.822 134.15 C 171.143 131.344 169.066 126.064 171.188 122.367 C 173.31 118.671 178.832 117.948 183.511 120.754 C 188.191 123.561 190.267 128.84 188.145 132.537 C 186.023 136.234 180.501 136.956 175.822 134.15 Z " fill="rgb(255,255,208)"/><path d=" M 303.317 136.369 C 311.065 131.722 314.227 122.498 310.372 115.783 C 306.518 109.068 297.098 107.389 289.35 112.036 C 281.601 116.683 278.44 125.907 282.295 132.622 C 286.149 139.337 295.569 141.016 303.317 136.369 Z " fill="rgb(189,146,82)"/><path d=" M 300.178 134.15 C 304.857 131.344 306.934 126.064 304.812 122.367 C 302.69 118.671 297.168 117.948 292.489 120.754 C 287.809 123.561 285.733 128.84 287.855 132.537 C 289.977 136.234 295.499 136.956 300.178 134.15 Z " fill="rgb(255,255,208)"/><ellipse vector-effect="non-scaling-stroke" cx="237.79610258977684" cy="162.43863276625999" rx="64.18147120833046" ry="62.4386327662601" fill="rgb(189,146,82)"/><ellipse vector-effect="non-scaling-stroke" cx="206.75384219875718" cy="147.03833481869793" rx="7.862373763436324" ry="8.041322304940394" fill="rgb(23,23,23)"/><ellipse vector-effect="non-scaling-stroke" cx="208.1772029662757" cy="143.2837175957428" rx="2.7111633667021806" ry="2.710759839660625" fill="rgb(255,255,255)"/><ellipse vector-effect="non-scaling-stroke" cx="267.55168069705326" cy="147.03833481869793" rx="7.862373763436324" ry="8.041322304940394" fill="rgb(23,23,23)"/><ellipse vector-effect="non-scaling-stroke" cx="265.9249826770324" cy="143.2837175957428" rx="2.7111633667021806" ry="2.710759839660625" fill="rgb(255,255,255)"/><ellipse vector-effect="non-scaling-stroke" cx="237.7961025897771" cy="187.7226742836573" rx="68.5095298349471" ry="39.67861845792484" fill="rgb(215,170,103)"/><path d=" M 192.749 189.199 C 191.548 185.528 193.271 181.886 196.594 181.071 C 199.916 180.256 203.589 182.575 204.79 186.246 C 205.991 189.917 204.269 193.56 200.946 194.374 C 197.623 195.189 193.95 192.87 192.749 189.199 Z " fill="rgb(255,255,208)"/><path d=" M 284.474 189.199 C 285.675 185.528 283.953 181.886 280.63 181.071 C 277.307 180.256 273.634 182.575 272.433 186.246 C 271.232 189.917 272.955 193.56 276.277 194.374 C 279.6 195.189 283.273 192.87 284.474 189.199 Z " fill="rgb(255,255,208)"/></g><line x1="212" y1="137" x2="195" y2="144" vector-effect="non-scaling-stroke" stroke-width="2" stroke="rgb(104,80,43)" stroke-linejoin="miter" stroke-linecap="square" stroke-miterlimit="3"/><line x1="262" y1="137" x2="279" y2="144" vector-effect="non-scaling-stroke" stroke-width="2" stroke="rgb(104,80,43)" stroke-linejoin="miter" stroke-linecap="square" stroke-miterlimit="3"/><g><path d="M 359.685 400 L 116.315 400 C 108.966 400 103 394.034 103 386.685 L 103 296.008 C 103 288.66 108.966 282.694 116.315 282.694 L 359.685 282.694 C 367.034 282.694 373 288.66 373 296.008 L 373 386.685 C 373 394.034 367.034 400 359.685 400 Z" style="stroke:none;fill:#EBEBEB;stroke-miterlimit:10;"/><path d="M 359.685 400 L 116.315 400 C 108.966 400 103 394.034 103 386.685 L 103 296.008 C 103 288.66 108.966 282.694 116.315 282.694 L 359.685 282.694 C 367.034 282.694 373 288.66 373 296.008 L 373 386.685 C 373 394.034 367.034 400 359.685 400 Z" style="fill:none;stroke:#CECECE;stroke-width:2;stroke-linecap:square;stroke-miterlimit:2;"/><path d="M 353.627 389.793 L 346.114 389.793 C 343.758 389.793 341.846 387.881 341.846 385.526 L 341.846 380.548 C 341.846 378.192 343.758 376.28 346.114 376.28 L 353.627 376.28 C 355.983 376.28 357.895 378.192 357.895 380.548 L 357.895 385.526 C 357.895 387.881 355.983 389.793 353.627 389.793 Z" style="stroke:none;fill:#BDBDBD;stroke-linecap:square;stroke-miterlimit:2;"/><path d="M 307.032 389.793 L 299.518 389.793 C 297.163 389.793 295.25 387.881 295.25 385.526 L 295.25 380.548 C 295.25 378.192 297.163 376.28 299.518 376.28 L 307.032 376.28 C 309.387 376.28 311.299 378.192 311.299 380.548 L 311.299 385.526 C 311.299 387.881 309.387 389.793 307.032 389.793 Z" style="stroke:none;fill:#BDBDBD;stroke-linecap:square;stroke-miterlimit:2;"/><path d="M 283.408 389.793 L 275.894 389.793 C 273.539 389.793 271.626 387.881 271.626 385.526 L 271.626 380.548 C 271.626 378.192 273.539 376.28 275.894 376.28 L 283.408 376.28 C 285.763 376.28 287.675 378.192 287.675 380.548 L 287.675 385.526 C 287.675 387.881 285.763 389.793 283.408 389.793 Z" style="stroke:none;fill:#BDBDBD;stroke-linecap:square;stroke-miterlimit:2;"/><path d="M 331.599 389.793 L 324.086 389.793 C 321.73 389.793 319.818 387.881 319.818 385.526 L 319.818 380.548 C 319.818 378.192 321.73 376.28 324.086 376.28 L 331.599 376.28 C 333.955 376.28 335.867 378.192 335.867 380.548 L 335.867 385.526 C 335.867 387.881 333.955 389.793 331.599 389.793 Z" style="stroke:none;fill:#BDBDBD;stroke-linecap:square;stroke-miterlimit:2;"/><path d="M 259.567 389.793 L 252.053 389.793 C 249.698 389.793 247.786 387.881 247.786 385.526 L 247.786 380.548 C 247.786 378.192 249.698 376.28 252.053 376.28 L 259.567 376.28 C 261.922 376.28 263.835 378.192 263.835 380.548 L 263.835 385.526 C 263.835 387.881 261.922 389.793 259.567 389.793 Z" style="stroke:none;fill:#BDBDBD;stroke-linecap:square;stroke-miterlimit:2;"/><path d="M 235.726 389.793 L 228.213 389.793 C 225.857 389.793 223.945 387.881 223.945 385.526 L 223.945 380.548 C 223.945 378.192 225.857 376.28 228.213 376.28 L 235.726 376.28 C 238.082 376.28 239.994 378.192 239.994 380.548 L 239.994 385.526 C 239.994 387.881 238.082 389.793 235.726 389.793 Z" style="stroke:none;fill:#BDBDBD;stroke-linecap:square;stroke-miterlimit:2;"/><path d="M 211.886 389.793 L 204.372 389.793 C 202.017 389.793 200.104 387.881 200.104 385.526 L 200.104 380.548 C 200.104 378.192 202.017 376.28 204.372 376.28 L 211.886 376.28 C 214.241 376.28 216.153 378.192 216.153 380.548 L 216.153 385.526 C 216.153 387.881 214.241 389.793 211.886 389.793 Z" style="stroke:none;fill:#BDBDBD;stroke-linecap:square;stroke-miterlimit:2;"/><path d="M 188.045 389.793 L 180.531 389.793 C 178.176 389.793 176.264 387.881 176.264 385.526 L 176.264 380.548 C 176.264 378.192 178.176 376.28 180.531 376.28 L 188.045 376.28 C 190.401 376.28 192.313 378.192 192.313 380.548 L 192.313 385.526 C 192.313 387.881 190.401 389.793 188.045 389.793 Z" style="stroke:none;fill:#BDBDBD;stroke-linecap:square;stroke-miterlimit:2;"/><path d="M 164.205 389.793 L 156.691 389.793 C 154.335 389.793 152.423 387.881 152.423 385.526 L 152.423 380.548 C 152.423 378.192 154.335 376.28 156.691 376.28 L 164.205 376.28 C 166.56 376.28 168.472 378.192 168.472 380.548 L 168.472 385.526 C 168.472 387.881 166.56 389.793 164.205 389.793 Z" style="stroke:none;fill:#BDBDBD;stroke-linecap:square;stroke-miterlimit:2;"/><path d="M 141.19 389.793 L 125.498 389.793 C 122.46 389.793 119.993 387.327 119.993 384.288 L 119.993 381.785 C 119.993 378.747 122.46 376.28 125.498 376.28 L 141.19 376.28 C 144.228 376.28 146.695 378.747 146.695 381.785 L 146.695 384.288 C 146.695 387.327 144.228 389.793 141.19 389.793 Z" style="stroke:none;fill:#BDBDBD;stroke-linecap:square;stroke-miterlimit:2;"/><path d="M 351.303 370.386 L 331.154 370.386 C 327.516 370.386 324.562 367.432 324.562 363.793 L 324.562 361.453 C 324.562 357.814 327.516 354.86 331.154 354.86 L 351.303 354.86 C 354.941 354.86 357.895 357.814 357.895 361.453 L 357.895 363.793 C 357.895 367.432 354.941 370.386 351.303 370.386 Z" style="stroke:none;fill:#BDBDBD;stroke-linecap:square;stroke-miterlimit:2;"/><path d="M 351.362 349.11 L 320.766 349.11 C 316.487 349.11 313.013 345.636 313.013 341.357 L 313.013 341.337 C 313.013 337.058 316.487 333.584 320.766 333.584 L 351.362 333.584 C 355.641 333.584 359.115 337.058 359.115 341.337 L 359.115 341.357 C 359.115 345.636 355.641 349.11 351.362 349.11 Z" style="stroke:none;fill:#BDBDBD;stroke-linecap:square;stroke-miterlimit:2;"/><path d="M 351.362 327.834 L 320.766 327.834 C 316.487 327.834 313.013 324.36 313.013 320.081 L 313.013 320.061 C 313.013 315.782 316.487 312.308 320.766 312.308 L 351.362 312.308 C 355.641 312.308 359.115 315.782 359.115 320.061 L 359.115 320.081 C 359.115 324.36 355.641 327.834 351.362 327.834 Z" style="stroke:none;fill:#BDBDBD;stroke-linecap:square;stroke-miterlimit:2;"/><path d="M 303.559 348.104 L 296.045 348.104 C 293.69 348.104 291.778 346.191 291.778 343.836 L 291.778 338.858 C 291.778 336.503 293.69 334.59 296.045 334.59 L 303.559 334.59 C 305.914 334.59 307.826 336.503 307.826 338.858 L 307.826 343.836 C 307.826 346.191 305.914 348.104 303.559 348.104 Z" style="stroke:none;fill:#BDBDBD;stroke-linecap:square;stroke-miterlimit:2;"/><path d="M 282.272 348.104 L 274.758 348.104 C 272.403 348.104 270.491 346.191 270.491 343.836 L 270.491 338.858 C 270.491 336.503 272.403 334.59 274.758 334.59 L 282.272 334.59 C 284.627 334.59 286.54 336.503 286.54 338.858 L 286.54 343.836 C 286.54 346.191 284.627 348.104 282.272 348.104 Z" style="stroke:none;fill:#BDBDBD;stroke-linecap:square;stroke-miterlimit:2;"/><path d="M 260.028 348.104 L 252.514 348.104 C 250.159 348.104 248.247 346.191 248.247 343.836 L 248.247 338.858 C 248.247 336.503 250.159 334.59 252.514 334.59 L 260.028 334.59 C 262.383 334.59 264.296 336.503 264.296 338.858 L 264.296 343.836 C 264.296 346.191 262.383 348.104 260.028 348.104 Z" style="stroke:none;fill:#BDBDBD;stroke-linecap:square;stroke-miterlimit:2;"/><path d="M 238.455 348.104 L 230.941 348.104 C 228.585 348.104 226.673 346.191 226.673 343.836 L 226.673 338.858 C 226.673 336.503 228.585 334.59 230.941 334.59 L 238.455 334.59 C 240.81 334.59 242.722 336.503 242.722 338.858 L 242.722 343.836 C 242.722 346.191 240.81 348.104 238.455 348.104 Z" style="stroke:none;fill:#BDBDBD;stroke-linecap:square;stroke-miterlimit:2;"/><path d="M 216.438 348.104 L 208.924 348.104 C 206.568 348.104 204.656 346.191 204.656 343.836 L 204.656 338.858 C 204.656 336.503 206.568 334.59 208.924 334.59 L 216.438 334.59 C 218.793 334.59 220.705 336.503 220.705 338.858 L 220.705 343.836 C 220.705 346.191 218.793 348.104 216.438 348.104 Z" style="stroke:none;fill:#BDBDBD;stroke-linecap:square;stroke-miterlimit:2;"/><path d="M 172.987 348.104 L 165.473 348.104 C 163.118 348.104 161.206 346.191 161.206 343.836 L 161.206 338.858 C 161.206 336.503 163.118 334.59 165.473 334.59 L 172.987 334.59 C 175.342 334.59 177.255 336.503 177.255 338.858 L 177.255 343.836 C 177.255 346.191 175.342 348.104 172.987 348.104 Z" style="stroke:none;fill:#BDBDBD;stroke-linecap:square;stroke-miterlimit:2;"/><path d="M 194.488 348.104 L 186.975 348.104 C 184.619 348.104 182.707 346.191 182.707 343.836 L 182.707 338.858 C 182.707 336.503 184.619 334.59 186.975 334.59 L 194.488 334.59 C 196.844 334.59 198.756 336.503 198.756 338.858 L 198.756 343.836 C 198.756 346.191 196.844 348.104 194.488 348.104 Z" style="stroke:none;fill:#BDBDBD;stroke-linecap:square;stroke-miterlimit:2;"/><path d="M 149.008 348.104 L 131.684 348.104 C 128.531 348.104 125.972 345.544 125.972 342.392 L 125.972 340.302 C 125.972 337.15 128.531 334.59 131.684 334.59 L 149.008 334.59 C 152.16 334.59 154.719 337.15 154.719 340.302 L 154.719 342.392 C 154.719 345.544 152.16 348.104 149.008 348.104 Z" style="stroke:none;fill:#BDBDBD;stroke-linecap:square;stroke-miterlimit:2;"/><path d="M 303.587 327.834 L 296.058 327.834 C 293.718 327.834 291.819 325.934 291.819 323.594 L 291.819 318.704 C 291.819 316.364 293.718 314.464 296.058 314.464 L 303.587 314.464 C 305.927 314.464 307.826 316.364 307.826 318.704 L 307.826 323.594 C 307.826 325.934 305.927 327.834 303.587 327.834 Z" style="stroke:none;fill:#BDBDBD;stroke-linecap:square;stroke-miterlimit:2;"/><path d="M 282.355 327.834 L 274.826 327.834 C 272.486 327.834 270.586 325.934 270.586 323.594 L 270.586 318.704 C 270.586 316.364 272.486 314.464 274.826 314.464 L 282.355 314.464 C 284.694 314.464 286.594 316.364 286.594 318.704 L 286.594 323.594 C 286.594 325.934 284.694 327.834 282.355 327.834 Z" style="stroke:none;fill:#BDBDBD;stroke-linecap:square;stroke-miterlimit:2;"/><path d="M 260.167 327.834 L 252.638 327.834 C 250.299 327.834 248.399 325.934 248.399 323.594 L 248.399 318.704 C 248.399 316.364 250.299 314.464 252.638 314.464 L 260.167 314.464 C 262.507 314.464 264.407 316.364 264.407 318.704 L 264.407 323.594 C 264.407 325.934 262.507 327.834 260.167 327.834 Z" style="stroke:none;fill:#BDBDBD;stroke-linecap:square;stroke-miterlimit:2;"/><path d="M 238.649 327.834 L 231.12 327.834 C 228.78 327.834 226.881 325.934 226.881 323.594 L 226.881 318.704 C 226.881 316.364 228.78 314.464 231.12 314.464 L 238.649 314.464 C 240.989 314.464 242.889 316.364 242.889 318.704 L 242.889 323.594 C 242.889 325.934 240.989 327.834 238.649 327.834 Z" style="stroke:none;fill:#BDBDBD;stroke-linecap:square;stroke-miterlimit:2;"/><path d="M 216.689 327.834 L 209.16 327.834 C 206.82 327.834 204.92 325.934 204.92 323.594 L 204.92 318.704 C 204.92 316.364 206.82 314.464 209.16 314.464 L 216.689 314.464 C 219.028 314.464 220.928 316.364 220.928 318.704 L 220.928 323.594 C 220.928 325.934 219.028 327.834 216.689 327.834 Z" style="stroke:none;fill:#BDBDBD;stroke-linecap:square;stroke-miterlimit:2;"/><path d="M 173.349 327.834 L 165.82 327.834 C 163.48 327.834 161.581 325.934 161.581 323.594 L 161.581 318.704 C 161.581 316.364 163.48 314.464 165.82 314.464 L 173.349 314.464 C 175.689 314.464 177.589 316.364 177.589 318.704 L 177.589 323.594 C 177.589 325.934 175.689 327.834 173.349 327.834 Z" style="stroke:none;fill:#BDBDBD;stroke-linecap:square;stroke-miterlimit:2;"/><path d="M 194.795 327.834 L 187.266 327.834 C 184.927 327.834 183.027 325.934 183.027 323.594 L 183.027 318.704 C 183.027 316.364 184.927 314.464 187.266 314.464 L 194.795 314.464 C 197.135 314.464 199.035 316.364 199.035 318.704 L 199.035 323.594 C 199.035 325.934 197.135 327.834 194.795 327.834 Z" style="stroke:none;fill:#BDBDBD;stroke-linecap:square;stroke-miterlimit:2;"/><path d="M 151.039 327.834 L 144.417 327.834 C 142.17 327.834 140.346 326.009 140.346 323.762 L 140.346 318.536 C 140.346 316.289 142.17 314.464 144.417 314.464 L 151.039 314.464 C 153.287 314.464 155.111 316.289 155.111 318.536 L 155.111 323.762 C 155.111 326.009 153.287 327.834 151.039 327.834 Z" style="stroke:none;fill:#BDBDBD;stroke-linecap:square;stroke-miterlimit:2;"/><path d="M 130.687 327.834 L 124.065 327.834 C 121.817 327.834 119.993 326.009 119.993 323.762 L 119.993 318.536 C 119.993 316.289 121.817 314.464 124.065 314.464 L 130.687 314.464 C 132.934 314.464 134.758 316.289 134.758 318.536 L 134.758 323.762 C 134.758 326.009 132.934 327.834 130.687 327.834 Z" style="stroke:none;fill:#BDBDBD;stroke-linecap:square;stroke-miterlimit:2;"/><path d="M 320.056 307.079 L 310.792 307.079 C 308.305 307.079 306.287 305.06 306.287 302.573 L 306.287 298.358 C 306.287 295.872 308.305 293.853 310.792 293.853 L 320.056 293.853 C 322.543 293.853 324.562 295.872 324.562 298.358 L 324.562 302.573 C 324.562 305.06 322.543 307.079 320.056 307.079 Z" style="stroke:none;fill:#BDBDBD;stroke-linecap:square;stroke-miterlimit:2;"/><path d="M 339.722 307.079 L 332.406 307.079 C 330.105 307.079 328.236 305.21 328.236 302.909 L 328.236 298.023 C 328.236 295.721 330.105 293.853 332.406 293.853 L 339.722 293.853 C 342.023 293.853 343.892 295.721 343.892 298.023 L 343.892 302.909 C 343.892 305.21 342.023 307.079 339.722 307.079 Z" style="stroke:none;fill:#BDBDBD;stroke-linecap:square;stroke-miterlimit:2;"/><path d="M 354.586 307.079 L 351.344 307.079 C 349.518 307.079 348.035 305.596 348.035 303.769 L 348.035 297.162 C 348.035 295.336 349.518 293.853 351.344 293.853 L 354.586 293.853 C 356.412 293.853 357.895 295.336 357.895 297.162 L 357.895 303.769 C 357.895 305.596 356.412 307.079 354.586 307.079 Z" style="stroke:none;fill:#BDBDBD;stroke-linecap:square;stroke-miterlimit:2;"/><path d="M 297.412 306.558 L 221.384 306.558 C 218.497 306.558 216.153 304.214 216.153 301.327 L 216.153 298.275 C 216.153 295.388 218.497 293.044 221.384 293.044 L 297.412 293.044 C 300.299 293.044 302.643 295.388 302.643 298.275 L 302.643 301.327 C 302.643 304.214 300.299 306.558 297.412 306.558 Z" style="stroke:none;fill:#BDBDBD;stroke-linecap:square;stroke-miterlimit:2;"/><path d="M 208.313 307.079 L 200.8 307.079 C 198.444 307.079 196.532 305.166 196.532 302.811 L 196.532 297.833 C 196.532 295.478 198.444 293.565 200.8 293.565 L 208.313 293.565 C 210.669 293.565 212.581 295.478 212.581 297.833 L 212.581 302.811 C 212.581 305.166 210.669 307.079 208.313 307.079 Z" style="stroke:none;fill:#BDBDBD;stroke-linecap:square;stroke-miterlimit:2;"/><path d="M 186.364 306.27 L 178.85 306.27 C 176.495 306.27 174.583 304.358 174.583 302.002 L 174.583 297.024 C 174.583 294.669 176.495 292.757 178.85 292.757 L 186.364 292.757 C 188.72 292.757 190.632 294.669 190.632 297.024 L 190.632 302.002 C 190.632 304.358 188.72 306.27 186.364 306.27 Z" style="stroke:none;fill:#BDBDBD;stroke-linecap:square;stroke-miterlimit:2;"/><path d="M 164.25 306.27 L 156.645 306.27 C 154.315 306.27 152.423 304.378 152.423 302.048 L 152.423 297.266 C 152.423 294.936 154.315 293.044 156.645 293.044 L 164.25 293.044 C 166.58 293.044 168.472 294.936 168.472 297.266 L 168.472 302.048 C 168.472 304.378 166.58 306.27 164.25 306.27 Z" style="stroke:none;fill:#BDBDBD;stroke-linecap:square;stroke-miterlimit:2;"/><path d="M 127.154 306.27 L 119.549 306.27 C 117.218 306.27 115.327 304.378 115.327 302.048 L 115.327 297.266 C 115.327 294.936 117.218 293.044 119.549 293.044 L 127.154 293.044 C 129.484 293.044 131.376 294.936 131.376 297.266 L 131.376 302.048 C 131.376 304.378 129.484 306.27 127.154 306.27 Z" style="stroke:none;fill:#BDBDBD;stroke-linecap:square;stroke-miterlimit:2;"/><path d="M 147.206 306.27 L 136.593 306.27 C 135.093 306.27 133.875 305.052 133.875 303.552 L 133.875 303.507 C 133.875 302.007 135.093 300.789 136.593 300.789 L 147.206 300.789 C 148.706 300.789 149.924 302.007 149.924 303.507 L 149.924 303.552 C 149.924 305.052 148.706 306.27 147.206 306.27 Z" style="stroke:none;fill:#BDBDBD;stroke-linecap:square;stroke-miterlimit:2;"/><path d="M 313.161 370.386 L 305.648 370.386 C 303.292 370.386 301.38 368.474 301.38 366.118 L 301.38 361.14 C 301.38 358.785 303.292 356.873 305.648 356.873 L 313.161 356.873 C 315.517 356.873 317.429 358.785 317.429 361.14 L 317.429 366.118 C 317.429 368.474 315.517 370.386 313.161 370.386 Z" style="stroke:none;fill:#BDBDBD;stroke-linecap:square;stroke-miterlimit:2;"/><path d="M 291.874 370.386 L 284.361 370.386 C 282.005 370.386 280.093 368.474 280.093 366.118 L 280.093 361.14 C 280.093 358.785 282.005 356.873 284.361 356.873 L 291.874 356.873 C 294.23 356.873 296.142 358.785 296.142 361.14 L 296.142 366.118 C 296.142 368.474 294.23 370.386 291.874 370.386 Z" style="stroke:none;fill:#BDBDBD;stroke-linecap:square;stroke-miterlimit:2;"/><path d="M 269.63 370.386 L 262.117 370.386 C 259.761 370.386 257.849 368.474 257.849 366.118 L 257.849 361.14 C 257.849 358.785 259.761 356.873 262.117 356.873 L 269.63 356.873 C 271.986 356.873 273.898 358.785 273.898 361.14 L 273.898 366.118 C 273.898 368.474 271.986 370.386 269.63 370.386 Z" style="stroke:none;fill:#BDBDBD;stroke-linecap:square;stroke-miterlimit:2;"/><path d="M 248.057 370.386 L 240.543 370.386 C 238.188 370.386 236.276 368.474 236.276 366.118 L 236.276 361.14 C 236.276 358.785 238.188 356.873 240.543 356.873 L 248.057 356.873 C 250.412 356.873 252.325 358.785 252.325 361.14 L 252.325 366.118 C 252.325 368.474 250.412 370.386 248.057 370.386 Z" style="stroke:none;fill:#BDBDBD;stroke-linecap:square;stroke-miterlimit:2;"/><path d="M 226.04 370.386 L 218.526 370.386 C 216.171 370.386 214.259 368.474 214.259 366.118 L 214.259 361.14 C 214.259 358.785 216.171 356.873 218.526 356.873 L 226.04 356.873 C 228.395 356.873 230.308 358.785 230.308 361.14 L 230.308 366.118 C 230.308 368.474 228.395 370.386 226.04 370.386 Z" style="stroke:none;fill:#BDBDBD;stroke-linecap:square;stroke-miterlimit:2;"/><path d="M 182.589 370.386 L 175.076 370.386 C 172.72 370.386 170.808 368.474 170.808 366.118 L 170.808 361.14 C 170.808 358.785 172.72 356.873 175.076 356.873 L 182.589 356.873 C 184.945 356.873 186.857 358.785 186.857 361.14 L 186.857 366.118 C 186.857 368.474 184.945 370.386 182.589 370.386 Z" style="stroke:none;fill:#BDBDBD;stroke-linecap:square;stroke-miterlimit:2;"/><path d="M 204.091 370.386 L 196.577 370.386 C 194.222 370.386 192.309 368.474 192.309 366.118 L 192.309 361.14 C 192.309 358.785 194.222 356.873 196.577 356.873 L 204.091 356.873 C 206.446 356.873 208.358 358.785 208.358 361.14 L 208.358 366.118 C 208.358 368.474 206.446 370.386 204.091 370.386 Z" style="stroke:none;fill:#BDBDBD;stroke-linecap:square;stroke-miterlimit:2;"/><path d="M 160.404 370.386 L 152.89 370.386 C 150.535 370.386 148.623 368.474 148.623 366.118 L 148.623 361.14 C 148.623 358.785 150.535 356.873 152.89 356.873 L 160.404 356.873 C 162.759 356.873 164.672 358.785 164.672 361.14 L 164.672 366.118 C 164.672 368.474 162.759 370.386 160.404 370.386 Z" style="stroke:none;fill:#BDBDBD;stroke-linecap:square;stroke-miterlimit:2;"/><path d="M 138.219 370.386 L 130.705 370.386 C 128.35 370.386 126.437 368.474 126.437 366.118 L 126.437 361.14 C 126.437 358.785 128.35 356.873 130.705 356.873 L 138.219 356.873 C 140.574 356.873 142.486 358.785 142.486 361.14 L 142.486 366.118 C 142.486 368.474 140.574 370.386 138.219 370.386 Z" style="stroke:none;fill:#BDBDBD;stroke-linecap:square;stroke-miterlimit:2;"/><path d="M 147.206 298.992 L 136.593 298.992 C 135.093 298.992 133.875 297.774 133.875 296.274 L 133.875 296.229 C 133.875 294.729 135.093 293.512 136.593 293.512 L 147.206 293.512 C 148.706 293.512 149.924 294.729 149.924 296.229 L 149.924 296.274 C 149.924 297.774 148.706 298.992 147.206 298.992 Z" style="stroke:none;fill:#BDBDBD;stroke-linecap:square;stroke-miterlimit:2;"/></g><path d=" M 267.489 255.474 C 259.627 276.479 260.758 296.164 270.012 299.405 C 279.266 302.646 293.161 288.225 301.023 267.22" fill="rgb(172,132,73)" vector-effect="non-scaling-stroke" stroke-width="3" stroke="rgb(147,112,60)" stroke-linejoin="miter" stroke-linecap="square" stroke-miterlimit="3"/><path d=" M 209.901 255.474 C 217.763 276.479 216.633 296.164 207.379 299.405 C 198.125 302.646 184.229 288.225 176.368 267.22" fill="rgb(172,132,73)" vector-effect="non-scaling-stroke" stroke-width="3" stroke="rgb(147,112,60)" stroke-linejoin="miter" stroke-linecap="square" stroke-miterlimit="3"/></g><ellipse vector-effect="non-scaling-stroke" cx="200.49999999999994" cy="156" rx="6.499999999999972" ry="6" fill="rgb(202,222,255)"/><circle vector-effect="non-scaling-stroke" cx="205" cy="153" r="3" fill="rgb(255,255,255)"/></g></svg>