<?xml version="1.0" standalone="no"?><!-- Generator: Gravit.io --><svg xmlns="http://www.w3.org/2000/svg" xmlns:xlink="http://www.w3.org/1999/xlink" style="isolation:isolate" viewBox="0 0 272 302" width="272" height="302"><defs><clipPath id="_clipPath_9DTLqMmsNHxfeNEV4dOVAxCFw3fbQgrs"><rect width="272" height="302"/></clipPath></defs><g clip-path="url(#_clipPath_9DTLqMmsNHxfeNEV4dOVAxCFw3fbQgrs)"><g><path d="M 137.829 88.867 L 137.829 88.867 C 186.163 88.867 225.404 145.262 225.404 214.724 L 225.404 214.724 C 225.404 244.941 188.329 269.472 142.664 269.472 L 132.993 269.472 C 87.328 269.472 50.253 244.941 50.253 214.724 L 50.253 214.724 C 50.253 145.262 89.494 88.867 137.829 88.867 Z" style="stroke:none;fill:#AC8449;stroke-miterlimit:10;"/><path d=" M 70.29 36.93 C 62.484 32.252 59.3 22.966 63.183 16.206 C 67.066 9.446 76.555 7.756 84.361 12.434 C 92.166 17.112 95.351 26.398 91.468 33.158 C 87.585 39.917 78.095 41.608 70.29 36.93 Z " fill="rgb(189,146,82)"/><path d=" M 73.452 34.696 C 68.738 31.871 66.647 26.556 68.784 22.835 C 70.922 19.113 76.485 18.386 81.199 21.211 C 85.912 24.036 88.004 29.351 85.866 33.072 C 83.729 36.793 78.166 37.521 73.452 34.696 Z " fill="rgb(255,255,208)"/><path d=" M 201.892 36.93 C 209.698 32.252 212.882 22.966 208.999 16.206 C 205.116 9.446 195.626 7.756 187.821 12.434 C 180.015 17.112 176.831 26.398 180.714 33.158 C 184.597 39.917 194.087 41.608 201.892 36.93 Z " fill="rgb(189,146,82)"/><path d=" M 198.73 34.696 C 203.444 31.871 205.535 26.556 203.398 22.835 C 201.26 19.113 195.697 18.386 190.983 21.211 C 186.269 24.036 184.178 29.351 186.315 33.072 C 188.453 36.793 194.016 37.521 198.73 34.696 Z " fill="rgb(255,255,208)"/><ellipse vector-effect="non-scaling-stroke" cx="135.885501329499" cy="63.173072136216824" rx="64.65688951357737" ry="62.85489031803512" fill="rgb(189,146,82)"/><ellipse vector-effect="non-scaling-stroke" cx="104.61329826891613" cy="47.67010553567098" rx="7.920613569091415" ry="8.094931120306654" fill="rgb(23,23,23)"/><ellipse vector-effect="non-scaling-stroke" cx="106.04720244952738" cy="43.8904575312295" rx="2.731246058307377" ry="2.728831571925028" fill="rgb(255,255,255)"/><ellipse vector-effect="non-scaling-stroke" cx="165.8614911264588" cy="47.67010553567098" rx="7.920613569091415" ry="8.094931120306654" fill="rgb(23,23,23)"/><ellipse vector-effect="non-scaling-stroke" cx="164.22274349147477" cy="43.8904575312295" rx="2.731246058307363" ry="2.728831571925028" fill="rgb(255,255,255)"/><ellipse vector-effect="non-scaling-stroke" cx="135.88550132949916" cy="88.62567393039666" rx="69.0170078337245" ry="39.94314258097772" fill="rgb(215,170,103)"/><path d=" M 90.505 90.112 C 89.295 86.416 91.03 82.75 94.378 81.93 C 97.725 81.109 101.425 83.444 102.635 87.139 C 103.845 90.835 102.11 94.502 98.762 95.322 C 95.415 96.142 91.715 93.808 90.505 90.112 Z " fill="rgb(255,255,208)"/><path d=" M 182.909 90.112 C 184.119 86.416 182.384 82.75 179.037 81.93 C 175.689 81.109 171.989 83.444 170.779 87.139 C 169.569 90.835 171.305 94.502 174.652 95.322 C 177.999 96.142 181.699 93.808 182.909 90.112 Z " fill="rgb(255,255,208)"/><path d="M 258.683 302.318 L 13.499 302.318 C 6.099 302.318 0.091 296.31 0.091 288.91 L 0.091 197.638 C 0.091 190.238 6.099 184.23 13.499 184.23 L 258.683 184.23 C 266.083 184.23 272.091 190.238 272.091 197.638 L 272.091 288.91 C 272.091 296.31 266.083 302.318 258.683 302.318 Z" style="stroke:none;fill:#EBEBEB;stroke-miterlimit:10;"/><path d="M 252.576 292.043 L 245.004 292.043 C 242.632 292.043 240.706 290.118 240.706 287.746 L 240.706 282.738 C 240.706 280.366 242.632 278.44 245.004 278.44 L 252.576 278.44 C 254.948 278.44 256.874 280.366 256.874 282.738 L 256.874 287.746 C 256.874 290.118 254.948 292.043 252.576 292.043 Z" style="stroke:none;fill:#BDBDBD;stroke-miterlimit:10;"/><path d="M 205.635 292.043 L 198.063 292.043 C 195.691 292.043 193.765 290.118 193.765 287.746 L 193.765 282.738 C 193.765 280.366 195.691 278.44 198.063 278.44 L 205.635 278.44 C 208.007 278.44 209.933 280.366 209.933 282.738 L 209.933 287.746 C 209.933 290.118 208.007 292.043 205.635 292.043 Z" style="stroke:none;fill:#BDBDBD;stroke-miterlimit:10;"/><path d="M 181.837 292.043 L 174.264 292.043 C 171.892 292.043 169.966 290.118 169.966 287.746 L 169.966 282.738 C 169.966 280.366 171.892 278.44 174.264 278.44 L 181.837 278.44 C 184.209 278.44 186.134 280.366 186.134 282.738 L 186.134 287.746 C 186.134 290.118 184.209 292.043 181.837 292.043 Z" style="stroke:none;fill:#BDBDBD;stroke-miterlimit:10;"/><path d="M 230.385 292.043 L 222.813 292.043 C 220.441 292.043 218.515 290.118 218.515 287.746 L 218.515 282.738 C 218.515 280.366 220.441 278.44 222.813 278.44 L 230.385 278.44 C 232.757 278.44 234.683 280.366 234.683 282.738 L 234.683 287.746 C 234.683 290.118 232.757 292.043 230.385 292.043 Z" style="stroke:none;fill:#BDBDBD;stroke-miterlimit:10;"/><path d="M 157.819 292.043 L 150.247 292.043 C 147.875 292.043 145.949 290.118 145.949 287.746 L 145.949 282.738 C 145.949 280.366 147.875 278.44 150.247 278.44 L 157.819 278.44 C 160.191 278.44 162.117 280.366 162.117 282.738 L 162.117 287.746 C 162.117 290.118 160.191 292.043 157.819 292.043 Z" style="stroke:none;fill:#BDBDBD;stroke-miterlimit:10;"/><path d="M 133.802 292.043 L 126.23 292.043 C 123.858 292.043 121.932 290.118 121.932 287.746 L 121.932 282.738 C 121.932 280.366 123.858 278.44 126.23 278.44 L 133.802 278.44 C 136.174 278.44 138.1 280.366 138.1 282.738 L 138.1 287.746 C 138.1 290.118 136.174 292.043 133.802 292.043 Z" style="stroke:none;fill:#BDBDBD;stroke-miterlimit:10;"/><path d="M 109.785 292.043 L 102.212 292.043 C 99.84 292.043 97.915 290.118 97.915 287.746 L 97.915 282.738 C 97.915 280.366 99.84 278.44 102.212 278.44 L 109.785 278.44 C 112.157 278.44 114.083 280.366 114.083 282.738 L 114.083 287.746 C 114.083 290.118 112.157 292.043 109.785 292.043 Z" style="stroke:none;fill:#BDBDBD;stroke-miterlimit:10;"/><path d="M 85.768 292.043 L 78.195 292.043 C 75.823 292.043 73.897 290.118 73.897 287.746 L 73.897 282.738 C 73.897 280.366 75.823 278.44 78.195 278.44 L 85.768 278.44 C 88.14 278.44 90.065 280.366 90.065 282.738 L 90.065 287.746 C 90.065 290.118 88.14 292.043 85.768 292.043 Z" style="stroke:none;fill:#BDBDBD;stroke-miterlimit:10;"/><path d="M 61.75 292.043 L 54.178 292.043 C 51.806 292.043 49.88 290.118 49.88 287.746 L 49.88 282.738 C 49.88 280.366 51.806 278.44 54.178 278.44 L 61.75 278.44 C 64.122 278.44 66.048 280.366 66.048 282.738 L 66.048 287.746 C 66.048 290.118 64.122 292.043 61.75 292.043 Z" style="stroke:none;fill:#BDBDBD;stroke-miterlimit:10;"/><path d="M 38.566 292.043 L 22.753 292.043 C 19.694 292.043 17.21 289.559 17.21 286.5 L 17.21 283.983 C 17.21 280.924 19.694 278.44 22.753 278.44 L 38.566 278.44 C 41.625 278.44 44.109 280.924 44.109 283.983 L 44.109 286.5 C 44.109 289.559 41.625 292.043 38.566 292.043 Z" style="stroke:none;fill:#BDBDBD;stroke-miterlimit:10;"/><path d="M 250.235 272.507 L 229.933 272.507 C 226.269 272.507 223.294 269.532 223.294 265.868 L 223.294 263.516 C 223.294 259.852 226.269 256.877 229.933 256.877 L 250.235 256.877 C 253.899 256.877 256.874 259.852 256.874 263.516 L 256.874 265.868 C 256.874 269.532 253.899 272.507 250.235 272.507 Z" style="stroke:none;fill:#BDBDBD;stroke-miterlimit:10;"/><path d="M 250.295 251.089 L 219.467 251.089 C 215.158 251.089 211.66 247.59 211.66 243.281 L 211.66 243.267 C 211.66 238.958 215.158 235.459 219.467 235.459 L 250.295 235.459 C 254.604 235.459 258.103 238.958 258.103 243.267 L 258.103 243.281 C 258.103 247.59 254.604 251.089 250.295 251.089 Z" style="stroke:none;fill:#BDBDBD;stroke-miterlimit:10;"/><path d="M 250.295 229.671 L 219.467 229.671 C 215.158 229.671 211.66 226.172 211.66 221.863 L 211.66 221.849 C 211.66 217.54 215.158 214.041 219.467 214.041 L 250.295 214.041 C 254.604 214.041 258.103 217.54 258.103 221.849 L 258.103 221.863 C 258.103 226.172 254.604 229.671 250.295 229.671 Z" style="stroke:none;fill:#BDBDBD;stroke-miterlimit:10;"/><path d="M 202.137 250.076 L 194.564 250.076 C 192.193 250.076 190.267 248.15 190.267 245.778 L 190.267 240.77 C 190.267 238.398 192.193 236.472 194.564 236.472 L 202.137 236.472 C 204.509 236.472 206.435 238.398 206.435 240.77 L 206.435 245.778 C 206.435 248.15 204.509 250.076 202.137 250.076 Z" style="stroke:none;fill:#BDBDBD;stroke-miterlimit:10;"/><path d="M 180.692 250.076 L 173.12 250.076 C 170.748 250.076 168.822 248.15 168.822 245.778 L 168.822 240.77 C 168.822 238.398 170.748 236.472 173.12 236.472 L 180.692 236.472 C 183.064 236.472 184.99 238.398 184.99 240.77 L 184.99 245.778 C 184.99 248.15 183.064 250.076 180.692 250.076 Z" style="stroke:none;fill:#BDBDBD;stroke-miterlimit:10;"/><path d="M 158.284 250.076 L 150.711 250.076 C 148.339 250.076 146.413 248.15 146.413 245.778 L 146.413 240.77 C 146.413 238.398 148.339 236.472 150.711 236.472 L 158.284 236.472 C 160.656 236.472 162.581 238.398 162.581 240.77 L 162.581 245.778 C 162.581 248.15 160.656 250.076 158.284 250.076 Z" style="stroke:none;fill:#BDBDBD;stroke-miterlimit:10;"/><path d="M 136.55 250.076 L 128.978 250.076 C 126.606 250.076 124.68 248.15 124.68 245.778 L 124.68 240.77 C 124.68 238.398 126.606 236.472 128.978 236.472 L 136.55 236.472 C 138.922 236.472 140.848 238.398 140.848 240.77 L 140.848 245.778 C 140.848 248.15 138.922 250.076 136.55 250.076 Z" style="stroke:none;fill:#BDBDBD;stroke-miterlimit:10;"/><path d="M 114.37 250.076 L 106.798 250.076 C 104.426 250.076 102.5 248.15 102.5 245.778 L 102.5 240.77 C 102.5 238.398 104.426 236.472 106.798 236.472 L 114.37 236.472 C 116.742 236.472 118.668 238.398 118.668 240.77 L 118.668 245.778 C 118.668 248.15 116.742 250.076 114.37 250.076 Z" style="stroke:none;fill:#BDBDBD;stroke-miterlimit:10;"/><path d="M 70.598 250.076 L 63.025 250.076 C 60.653 250.076 58.728 248.15 58.728 245.778 L 58.728 240.77 C 58.728 238.398 60.653 236.472 63.025 236.472 L 70.598 236.472 C 72.97 236.472 74.895 238.398 74.895 240.77 L 74.895 245.778 C 74.895 248.15 72.97 250.076 70.598 250.076 Z" style="stroke:none;fill:#BDBDBD;stroke-miterlimit:10;"/><path d="M 92.258 250.076 L 84.686 250.076 C 82.314 250.076 80.388 248.15 80.388 245.778 L 80.388 240.77 C 80.388 238.398 82.314 236.472 84.686 236.472 L 92.258 236.472 C 94.63 236.472 96.556 238.398 96.556 240.77 L 96.556 245.778 C 96.556 248.15 94.63 250.076 92.258 250.076 Z" style="stroke:none;fill:#BDBDBD;stroke-miterlimit:10;"/><path d="M 46.441 250.076 L 28.985 250.076 C 25.81 250.076 23.233 247.498 23.233 244.324 L 23.233 242.224 C 23.233 239.05 25.81 236.472 28.985 236.472 L 46.441 236.472 C 49.616 236.472 52.193 239.05 52.193 242.224 L 52.193 244.324 C 52.193 247.498 49.616 250.076 46.441 250.076 Z" style="stroke:none;fill:#BDBDBD;stroke-miterlimit:10;"/><path d="M 202.165 229.671 L 194.577 229.671 C 192.221 229.671 190.308 227.758 190.308 225.401 L 190.308 220.481 C 190.308 218.125 192.221 216.212 194.577 216.212 L 202.165 216.212 C 204.522 216.212 206.435 218.125 206.435 220.481 L 206.435 225.401 C 206.435 227.758 204.522 229.671 202.165 229.671 Z" style="stroke:none;fill:#BDBDBD;stroke-miterlimit:10;"/><path d="M 180.776 229.671 L 173.188 229.671 C 170.831 229.671 168.918 227.758 168.918 225.401 L 168.918 220.481 C 168.918 218.125 170.831 216.212 173.188 216.212 L 180.776 216.212 C 183.132 216.212 185.045 218.125 185.045 220.481 L 185.045 225.401 C 185.045 227.758 183.132 229.671 180.776 229.671 Z" style="stroke:none;fill:#BDBDBD;stroke-miterlimit:10;"/><path d="M 158.424 229.671 L 150.836 229.671 C 148.48 229.671 146.567 227.758 146.567 225.401 L 146.567 220.481 C 146.567 218.125 148.48 216.212 150.836 216.212 L 158.424 216.212 C 160.78 216.212 162.693 218.125 162.693 220.481 L 162.693 225.401 C 162.693 227.758 160.78 229.671 158.424 229.671 Z" style="stroke:none;fill:#BDBDBD;stroke-miterlimit:10;"/><path d="M 136.747 229.671 L 129.159 229.671 C 126.802 229.671 124.889 227.758 124.889 225.401 L 124.889 220.481 C 124.889 218.125 126.802 216.212 129.159 216.212 L 136.747 216.212 C 139.103 216.212 141.016 218.125 141.016 220.481 L 141.016 225.401 C 141.016 227.758 139.103 229.671 136.747 229.671 Z" style="stroke:none;fill:#BDBDBD;stroke-miterlimit:10;"/><path d="M 114.623 229.671 L 107.035 229.671 C 104.679 229.671 102.766 227.758 102.766 225.401 L 102.766 220.481 C 102.766 218.125 104.679 216.212 107.035 216.212 L 114.623 216.212 C 116.98 216.212 118.893 218.125 118.893 220.481 L 118.893 225.401 C 118.893 227.758 116.98 229.671 114.623 229.671 Z" style="stroke:none;fill:#BDBDBD;stroke-miterlimit:10;"/><path d="M 70.963 229.671 L 63.375 229.671 C 61.019 229.671 59.106 227.758 59.106 225.401 L 59.106 220.481 C 59.106 218.125 61.019 216.212 63.375 216.212 L 70.963 216.212 C 73.319 216.212 75.232 218.125 75.232 220.481 L 75.232 225.401 C 75.232 227.758 73.319 229.671 70.963 229.671 Z" style="stroke:none;fill:#BDBDBD;stroke-miterlimit:10;"/><path d="M 92.568 229.671 L 84.98 229.671 C 82.624 229.671 80.711 227.758 80.711 225.401 L 80.711 220.481 C 80.711 218.125 82.624 216.212 84.98 216.212 L 92.568 216.212 C 94.924 216.212 96.837 218.125 96.837 220.481 L 96.837 225.401 C 96.837 227.758 94.924 229.671 92.568 229.671 Z" style="stroke:none;fill:#BDBDBD;stroke-miterlimit:10;"/><path d="M 48.488 229.671 L 41.813 229.671 C 39.55 229.671 37.713 227.834 37.713 225.571 L 37.713 220.312 C 37.713 218.049 39.55 216.212 41.813 216.212 L 48.488 216.212 C 50.751 216.212 52.588 218.049 52.588 220.312 L 52.588 225.571 C 52.588 227.834 50.751 229.671 48.488 229.671 Z" style="stroke:none;fill:#BDBDBD;stroke-miterlimit:10;"/><path d="M 27.984 229.671 L 21.31 229.671 C 19.047 229.671 17.21 227.834 17.21 225.571 L 17.21 220.312 C 17.21 218.049 19.047 216.212 21.31 216.212 L 27.984 216.212 C 30.247 216.212 32.084 218.049 32.084 220.312 L 32.084 225.571 C 32.084 227.834 30.247 229.671 27.984 229.671 Z" style="stroke:none;fill:#BDBDBD;stroke-miterlimit:10;"/><path d="M 218.757 208.777 L 209.42 208.777 C 206.916 208.777 204.883 206.744 204.883 204.24 L 204.883 200.001 C 204.883 197.496 206.916 195.464 209.42 195.464 L 218.757 195.464 C 221.261 195.464 223.294 197.496 223.294 200.001 L 223.294 204.24 C 223.294 206.744 221.261 208.777 218.757 208.777 Z" style="stroke:none;fill:#BDBDBD;stroke-miterlimit:10;"/><path d="M 238.568 208.777 L 231.195 208.777 C 228.877 208.777 226.995 206.896 226.995 204.578 L 226.995 199.663 C 226.995 197.345 228.877 195.464 231.195 195.464 L 238.568 195.464 C 240.885 195.464 242.767 197.345 242.767 199.663 L 242.767 204.578 C 242.767 206.896 240.885 208.777 238.568 208.777 Z" style="stroke:none;fill:#BDBDBD;stroke-miterlimit:10;"/><path d="M 253.542 208.777 L 250.274 208.777 C 248.434 208.777 246.941 207.284 246.941 205.445 L 246.941 198.796 C 246.941 196.957 248.434 195.464 250.274 195.464 L 253.542 195.464 C 255.381 195.464 256.874 196.957 256.874 198.796 L 256.874 205.445 C 256.874 207.284 255.381 208.777 253.542 208.777 Z" style="stroke:none;fill:#BDBDBD;stroke-miterlimit:10;"/><path d="M 195.945 208.253 L 119.35 208.253 C 116.443 208.253 114.083 205.892 114.083 202.985 L 114.083 199.917 C 114.083 197.01 116.443 194.649 119.35 194.649 L 195.945 194.649 C 198.852 194.649 201.213 197.01 201.213 199.917 L 201.213 202.985 C 201.213 205.892 198.852 208.253 195.945 208.253 Z" style="stroke:none;fill:#BDBDBD;stroke-miterlimit:10;"/><path d="M 106.186 208.777 L 98.614 208.777 C 96.242 208.777 94.316 206.852 94.316 204.48 L 94.316 199.472 C 94.316 197.1 96.242 195.174 98.614 195.174 L 106.186 195.174 C 108.558 195.174 110.484 197.1 110.484 199.472 L 110.484 204.48 C 110.484 206.852 108.558 208.777 106.186 208.777 Z" style="stroke:none;fill:#BDBDBD;stroke-miterlimit:10;"/><path d="M 84.074 207.963 L 76.502 207.963 C 74.13 207.963 72.204 206.038 72.204 203.666 L 72.204 198.658 C 72.204 196.286 74.13 194.36 76.502 194.36 L 84.074 194.36 C 86.446 194.36 88.372 196.286 88.372 198.658 L 88.372 203.666 C 88.372 206.038 86.446 207.963 84.074 207.963 Z" style="stroke:none;fill:#BDBDBD;stroke-miterlimit:10;"/><path d="M 61.796 207.963 L 54.132 207.963 C 51.785 207.963 49.88 206.058 49.88 203.712 L 49.88 198.901 C 49.88 196.555 51.785 194.649 54.132 194.649 L 61.796 194.649 C 64.143 194.649 66.048 196.555 66.048 198.901 L 66.048 203.712 C 66.048 206.058 64.143 207.963 61.796 207.963 Z" style="stroke:none;fill:#BDBDBD;stroke-miterlimit:10;"/><path d="M 24.425 207.963 L 16.761 207.963 C 14.414 207.963 12.509 206.058 12.509 203.712 L 12.509 198.901 C 12.509 196.555 14.414 194.649 16.761 194.649 L 24.425 194.649 C 26.772 194.649 28.677 196.555 28.677 198.901 L 28.677 203.712 C 28.677 206.058 26.772 207.963 24.425 207.963 Z" style="stroke:none;fill:#BDBDBD;stroke-miterlimit:10;"/><path d="M 44.625 207.963 L 33.932 207.963 C 32.421 207.963 31.195 206.737 31.195 205.226 L 31.195 205.183 C 31.195 203.672 32.421 202.446 33.932 202.446 L 44.625 202.446 C 46.136 202.446 47.362 203.672 47.362 205.183 L 47.362 205.226 C 47.362 206.737 46.136 207.963 44.625 207.963 Z" style="stroke:none;fill:#BDBDBD;stroke-miterlimit:10;"/><path d="M 211.81 272.507 L 204.238 272.507 C 201.866 272.507 199.94 270.581 199.94 268.209 L 199.94 263.201 C 199.94 260.829 201.866 258.903 204.238 258.903 L 211.81 258.903 C 214.182 258.903 216.108 260.829 216.108 263.201 L 216.108 268.209 C 216.108 270.581 214.182 272.507 211.81 272.507 Z" style="stroke:none;fill:#BDBDBD;stroke-miterlimit:10;"/><path d="M 190.366 272.507 L 182.793 272.507 C 180.421 272.507 178.496 270.581 178.496 268.209 L 178.496 263.201 C 178.496 260.829 180.421 258.903 182.793 258.903 L 190.366 258.903 C 192.738 258.903 194.663 260.829 194.663 263.201 L 194.663 268.209 C 194.663 270.581 192.738 272.507 190.366 272.507 Z" style="stroke:none;fill:#BDBDBD;stroke-miterlimit:10;"/><path d="M 167.957 272.507 L 160.385 272.507 C 158.013 272.507 156.087 270.581 156.087 268.209 L 156.087 263.201 C 156.087 260.829 158.013 258.903 160.385 258.903 L 167.957 258.903 C 170.329 258.903 172.255 260.829 172.255 263.201 L 172.255 268.209 C 172.255 270.581 170.329 272.507 167.957 272.507 Z" style="stroke:none;fill:#BDBDBD;stroke-miterlimit:10;"/><path d="M 146.224 272.507 L 138.651 272.507 C 136.279 272.507 134.354 270.581 134.354 268.209 L 134.354 263.201 C 134.354 260.829 136.279 258.903 138.651 258.903 L 146.224 258.903 C 148.596 258.903 150.522 260.829 150.522 263.201 L 150.522 268.209 C 150.522 270.581 148.596 272.507 146.224 272.507 Z" style="stroke:none;fill:#BDBDBD;stroke-miterlimit:10;"/><path d="M 124.044 272.507 L 116.471 272.507 C 114.099 272.507 112.174 270.581 112.174 268.209 L 112.174 263.201 C 112.174 260.829 114.099 258.903 116.471 258.903 L 124.044 258.903 C 126.416 258.903 128.341 260.829 128.341 263.201 L 128.341 268.209 C 128.341 270.581 126.416 272.507 124.044 272.507 Z" style="stroke:none;fill:#BDBDBD;stroke-miterlimit:10;"/><path d="M 80.271 272.507 L 72.699 272.507 C 70.327 272.507 68.401 270.581 68.401 268.209 L 68.401 263.201 C 68.401 260.829 70.327 258.903 72.699 258.903 L 80.271 258.903 C 82.643 258.903 84.569 260.829 84.569 263.201 L 84.569 268.209 C 84.569 270.581 82.643 272.507 80.271 272.507 Z" style="stroke:none;fill:#BDBDBD;stroke-miterlimit:10;"/><path d="M 101.932 272.507 L 94.359 272.507 C 91.987 272.507 90.062 270.581 90.062 268.209 L 90.062 263.201 C 90.062 260.829 91.987 258.903 94.359 258.903 L 101.932 258.903 C 104.304 258.903 106.23 260.829 106.23 263.201 L 106.23 268.209 C 106.23 270.581 104.304 272.507 101.932 272.507 Z" style="stroke:none;fill:#BDBDBD;stroke-miterlimit:10;"/><path d="M 57.922 272.507 L 50.349 272.507 C 47.977 272.507 46.051 270.581 46.051 268.209 L 46.051 263.201 C 46.051 260.829 47.977 258.903 50.349 258.903 L 57.922 258.903 C 60.294 258.903 62.219 260.829 62.219 263.201 L 62.219 268.209 C 62.219 270.581 60.294 272.507 57.922 272.507 Z" style="stroke:none;fill:#BDBDBD;stroke-miterlimit:10;"/><path d="M 35.572 272.507 L 28 272.507 C 25.628 272.507 23.702 270.581 23.702 268.209 L 23.702 263.201 C 23.702 260.829 25.628 258.903 28 258.903 L 35.572 258.903 C 37.944 258.903 39.87 260.829 39.87 263.201 L 39.87 268.209 C 39.87 270.581 37.944 272.507 35.572 272.507 Z" style="stroke:none;fill:#BDBDBD;stroke-miterlimit:10;"/><path d="M 44.625 200.637 L 33.932 200.637 C 32.421 200.637 31.195 199.411 31.195 197.9 L 31.195 197.857 C 31.195 196.346 32.421 195.12 33.932 195.12 L 44.625 195.12 C 46.136 195.12 47.362 196.346 47.362 197.857 L 47.362 197.9 C 47.362 199.411 46.136 200.637 44.625 200.637 Z" style="stroke:none;fill:#BDBDBD;stroke-miterlimit:10;"/><path d=" M 165.798 156.829 C 157.879 177.974 159.017 197.79 168.34 201.053 C 177.662 204.316 191.661 189.798 199.581 168.653" fill="rgb(172,132,73)" vector-effect="non-scaling-stroke" stroke-width="4" stroke="rgb(147,112,60)" stroke-linejoin="miter" stroke-linecap="square" stroke-miterlimit="3"/><path d=" M 65.533 153.575 C 42.348 139.618 27.808 121.508 33.084 113.158 C 38.36 104.809 61.467 109.361 84.653 123.318" fill="rgb(172,132,73)"/></g></g></svg>