<?xml version="1.0" standalone="no"?><!-- Generator: Gravit.io --><svg xmlns="http://www.w3.org/2000/svg" xmlns:xlink="http://www.w3.org/1999/xlink" style="isolation:isolate" viewBox="0 0 500 500" width="500" height="500"><defs><clipPath id="_clipPath_TfeaOSOpdW9oytIqHiiC1EhzNBh2iUPu"><rect width="500" height="500"/></clipPath></defs><g clip-path="url(#_clipPath_TfeaOSOpdW9oytIqHiiC1EhzNBh2iUPu)"><g><g><path d=" M 261.725 169.962 L 261.725 169.962 C 309.704 169.962 348.657 225.984 348.657 294.986 L 348.657 294.986 C 348.657 325.003 311.841 349.372 266.494 349.372 L 256.956 349.372 C 211.609 349.372 174.793 325.003 174.793 294.986 L 174.793 294.986 C 174.793 225.984 213.746 169.962 261.725 169.962 Z " fill="rgb(172,132,73)"/></g><g><path d=" M 194.683 118.369 C 186.935 113.722 183.773 104.498 187.628 97.783 C 191.482 91.068 200.902 89.389 208.65 94.036 C 216.399 98.683 219.56 107.907 215.705 114.622 C 211.851 121.337 202.431 123.016 194.683 118.369 Z " fill="rgb(189,146,82)"/><path d=" M 197.822 116.15 C 193.143 113.344 191.066 108.064 193.188 104.367 C 195.31 100.671 200.832 99.948 205.511 102.754 C 210.191 105.561 212.267 110.84 210.145 114.537 C 208.023 118.234 202.501 118.956 197.822 116.15 Z " fill="rgb(255,255,208)"/><path d=" M 325.317 118.369 C 333.065 113.722 336.227 104.498 332.372 97.783 C 328.518 91.068 319.098 89.389 311.35 94.036 C 303.601 98.683 300.44 107.907 304.295 114.622 C 308.149 121.337 317.569 123.016 325.317 118.369 Z " fill="rgb(189,146,82)"/><path d=" M 322.178 116.15 C 326.857 113.344 328.934 108.064 326.812 104.367 C 324.69 100.671 319.168 99.948 314.489 102.754 C 309.809 105.561 307.733 110.84 309.855 114.537 C 311.977 118.234 317.499 118.956 322.178 116.15 Z " fill="rgb(255,255,208)"/><ellipse vector-effect="non-scaling-stroke" cx="259.79610258977686" cy="144.43863276625984" rx="64.18147120833049" ry="62.43863276626004" fill="rgb(189,146,82)"/><ellipse vector-effect="non-scaling-stroke" cx="228.75384219875718" cy="129.03833481869782" rx="7.862373763436324" ry="8.041322304940394" fill="rgb(23,23,23)"/><ellipse vector-effect="non-scaling-stroke" cx="230.17720296627567" cy="125.28371759574264" rx="2.7111633667021806" ry="2.710759839660625" fill="rgb(255,255,255)"/><ellipse vector-effect="non-scaling-stroke" cx="289.5516806970532" cy="129.03833481869782" rx="7.862373763436324" ry="8.041322304940394" fill="rgb(23,23,23)"/><ellipse vector-effect="non-scaling-stroke" cx="287.9249826770324" cy="125.28371759574264" rx="2.7111633667021806" ry="2.710759839660625" fill="rgb(255,255,255)"/><ellipse vector-effect="non-scaling-stroke" cx="259.796102589777" cy="169.72267428365717" rx="68.5095298349471" ry="39.67861845792487" fill="rgb(215,170,103)"/><path d=" M 214.749 171.199 C 213.548 167.528 215.271 163.886 218.594 163.071 C 221.916 162.256 225.589 164.575 226.79 168.246 C 227.991 171.917 226.269 175.56 222.946 176.374 C 219.623 177.189 215.95 174.87 214.749 171.199 Z " fill="rgb(255,255,208)"/><path d=" M 306.474 171.199 C 307.675 167.528 305.953 163.886 302.63 163.071 C 299.307 162.256 295.634 164.575 294.433 168.246 C 293.232 171.917 294.955 175.56 298.277 176.374 C 301.6 177.189 305.273 174.87 306.474 171.199 Z " fill="rgb(255,255,208)"/></g><g><path d=" M 381.685 382 L 138.315 382 C 130.966 382 125 376.034 125 368.685 L 125 278.008 C 125 270.66 130.966 264.694 138.315 264.694 L 381.685 264.694 C 389.034 264.694 395 270.66 395 278.008 L 395 368.685 C 395 376.034 389.034 382 381.685 382 Z " fill="rgb(235,235,235)"/><path d=" M 381.685 382 L 138.315 382 C 130.966 382 125 376.034 125 368.685 L 125 278.008 C 125 270.66 130.966 264.694 138.315 264.694 L 381.685 264.694 C 389.034 264.694 395 270.66 395 278.008 L 395 368.685 C 395 376.034 389.034 382 381.685 382 Z " fill="none" vector-effect="non-scaling-stroke" stroke-width="2" stroke="rgb(206,206,206)" stroke-linejoin="miter" stroke-linecap="square" stroke-miterlimit="2"/><path d=" M 375.627 371.793 L 368.114 371.793 C 365.758 371.793 363.846 369.881 363.846 367.526 L 363.846 362.548 C 363.846 360.192 365.758 358.28 368.114 358.28 L 375.627 358.28 C 377.983 358.28 379.895 360.192 379.895 362.548 L 379.895 367.526 C 379.895 369.881 377.983 371.793 375.627 371.793 Z " fill="rgb(189,189,189)"/><path d=" M 329.032 371.793 L 321.518 371.793 C 319.163 371.793 317.25 369.881 317.25 367.526 L 317.25 362.548 C 317.25 360.192 319.163 358.28 321.518 358.28 L 329.032 358.28 C 331.387 358.28 333.299 360.192 333.299 362.548 L 333.299 367.526 C 333.299 369.881 331.387 371.793 329.032 371.793 Z " fill="rgb(189,189,189)"/><path d=" M 305.408 371.793 L 297.894 371.793 C 295.539 371.793 293.626 369.881 293.626 367.526 L 293.626 362.548 C 293.626 360.192 295.539 358.28 297.894 358.28 L 305.408 358.28 C 307.763 358.28 309.675 360.192 309.675 362.548 L 309.675 367.526 C 309.675 369.881 307.763 371.793 305.408 371.793 Z " fill="rgb(189,189,189)"/><path d=" M 353.599 371.793 L 346.086 371.793 C 343.73 371.793 341.818 369.881 341.818 367.526 L 341.818 362.548 C 341.818 360.192 343.73 358.28 346.086 358.28 L 353.599 358.28 C 355.955 358.28 357.867 360.192 357.867 362.548 L 357.867 367.526 C 357.867 369.881 355.955 371.793 353.599 371.793 Z " fill="rgb(189,189,189)"/><path d=" M 281.567 371.793 L 274.053 371.793 C 271.698 371.793 269.786 369.881 269.786 367.526 L 269.786 362.548 C 269.786 360.192 271.698 358.28 274.053 358.28 L 281.567 358.28 C 283.922 358.28 285.835 360.192 285.835 362.548 L 285.835 367.526 C 285.835 369.881 283.922 371.793 281.567 371.793 Z " fill="rgb(189,189,189)"/><path d=" M 257.726 371.793 L 250.213 371.793 C 247.857 371.793 245.945 369.881 245.945 367.526 L 245.945 362.548 C 245.945 360.192 247.857 358.28 250.213 358.28 L 257.726 358.28 C 260.082 358.28 261.994 360.192 261.994 362.548 L 261.994 367.526 C 261.994 369.881 260.082 371.793 257.726 371.793 Z " fill="rgb(189,189,189)"/><path d=" M 233.886 371.793 L 226.372 371.793 C 224.017 371.793 222.104 369.881 222.104 367.526 L 222.104 362.548 C 222.104 360.192 224.017 358.28 226.372 358.28 L 233.886 358.28 C 236.241 358.28 238.153 360.192 238.153 362.548 L 238.153 367.526 C 238.153 369.881 236.241 371.793 233.886 371.793 Z " fill="rgb(189,189,189)"/><path d=" M 210.045 371.793 L 202.531 371.793 C 200.176 371.793 198.264 369.881 198.264 367.526 L 198.264 362.548 C 198.264 360.192 200.176 358.28 202.531 358.28 L 210.045 358.28 C 212.401 358.28 214.313 360.192 214.313 362.548 L 214.313 367.526 C 214.313 369.881 212.401 371.793 210.045 371.793 Z " fill="rgb(189,189,189)"/><path d=" M 186.205 371.793 L 178.691 371.793 C 176.335 371.793 174.423 369.881 174.423 367.526 L 174.423 362.548 C 174.423 360.192 176.335 358.28 178.691 358.28 L 186.205 358.28 C 188.56 358.28 190.472 360.192 190.472 362.548 L 190.472 367.526 C 190.472 369.881 188.56 371.793 186.205 371.793 Z " fill="rgb(189,189,189)"/><path d=" M 163.19 371.793 L 147.498 371.793 C 144.46 371.793 141.993 369.327 141.993 366.288 L 141.993 363.785 C 141.993 360.747 144.46 358.28 147.498 358.28 L 163.19 358.28 C 166.228 358.28 168.695 360.747 168.695 363.785 L 168.695 366.288 C 168.695 369.327 166.228 371.793 163.19 371.793 Z " fill="rgb(189,189,189)"/><path d=" M 373.303 352.386 L 353.154 352.386 C 349.516 352.386 346.562 349.432 346.562 345.793 L 346.562 343.453 C 346.562 339.814 349.516 336.86 353.154 336.86 L 373.303 336.86 C 376.941 336.86 379.895 339.814 379.895 343.453 L 379.895 345.793 C 379.895 349.432 376.941 352.386 373.303 352.386 Z " fill="rgb(189,189,189)"/><path d=" M 373.362 331.11 L 342.766 331.11 C 338.487 331.11 335.013 327.636 335.013 323.357 L 335.013 323.337 C 335.013 319.058 338.487 315.584 342.766 315.584 L 373.362 315.584 C 377.641 315.584 381.115 319.058 381.115 323.337 L 381.115 323.357 C 381.115 327.636 377.641 331.11 373.362 331.11 Z " fill="rgb(189,189,189)"/><path d=" M 373.362 309.834 L 342.766 309.834 C 338.487 309.834 335.013 306.36 335.013 302.081 L 335.013 302.061 C 335.013 297.782 338.487 294.308 342.766 294.308 L 373.362 294.308 C 377.641 294.308 381.115 297.782 381.115 302.061 L 381.115 302.081 C 381.115 306.36 377.641 309.834 373.362 309.834 Z " fill="rgb(189,189,189)"/><path d=" M 325.559 330.104 L 318.045 330.104 C 315.69 330.104 313.778 328.191 313.778 325.836 L 313.778 320.858 C 313.778 318.503 315.69 316.59 318.045 316.59 L 325.559 316.59 C 327.914 316.59 329.826 318.503 329.826 320.858 L 329.826 325.836 C 329.826 328.191 327.914 330.104 325.559 330.104 Z " fill="rgb(189,189,189)"/><path d=" M 304.272 330.104 L 296.758 330.104 C 294.403 330.104 292.491 328.191 292.491 325.836 L 292.491 320.858 C 292.491 318.503 294.403 316.59 296.758 316.59 L 304.272 316.59 C 306.627 316.59 308.54 318.503 308.54 320.858 L 308.54 325.836 C 308.54 328.191 306.627 330.104 304.272 330.104 Z " fill="rgb(189,189,189)"/><path d=" M 282.028 330.104 L 274.514 330.104 C 272.159 330.104 270.247 328.191 270.247 325.836 L 270.247 320.858 C 270.247 318.503 272.159 316.59 274.514 316.59 L 282.028 316.59 C 284.383 316.59 286.296 318.503 286.296 320.858 L 286.296 325.836 C 286.296 328.191 284.383 330.104 282.028 330.104 Z " fill="rgb(189,189,189)"/><path d=" M 260.455 330.104 L 252.941 330.104 C 250.585 330.104 248.673 328.191 248.673 325.836 L 248.673 320.858 C 248.673 318.503 250.585 316.59 252.941 316.59 L 260.455 316.59 C 262.81 316.59 264.722 318.503 264.722 320.858 L 264.722 325.836 C 264.722 328.191 262.81 330.104 260.455 330.104 Z " fill="rgb(189,189,189)"/><path d=" M 238.438 330.104 L 230.924 330.104 C 228.568 330.104 226.656 328.191 226.656 325.836 L 226.656 320.858 C 226.656 318.503 228.568 316.59 230.924 316.59 L 238.438 316.59 C 240.793 316.59 242.705 318.503 242.705 320.858 L 242.705 325.836 C 242.705 328.191 240.793 330.104 238.438 330.104 Z " fill="rgb(189,189,189)"/><path d=" M 194.987 330.104 L 187.473 330.104 C 185.118 330.104 183.206 328.191 183.206 325.836 L 183.206 320.858 C 183.206 318.503 185.118 316.59 187.473 316.59 L 194.987 316.59 C 197.342 316.59 199.255 318.503 199.255 320.858 L 199.255 325.836 C 199.255 328.191 197.342 330.104 194.987 330.104 Z " fill="rgb(189,189,189)"/><path d=" M 216.488 330.104 L 208.975 330.104 C 206.619 330.104 204.707 328.191 204.707 325.836 L 204.707 320.858 C 204.707 318.503 206.619 316.59 208.975 316.59 L 216.488 316.59 C 218.844 316.59 220.756 318.503 220.756 320.858 L 220.756 325.836 C 220.756 328.191 218.844 330.104 216.488 330.104 Z " fill="rgb(189,189,189)"/><path d=" M 171.008 330.104 L 153.684 330.104 C 150.531 330.104 147.972 327.544 147.972 324.392 L 147.972 322.302 C 147.972 319.15 150.531 316.59 153.684 316.59 L 171.008 316.59 C 174.16 316.59 176.719 319.15 176.719 322.302 L 176.719 324.392 C 176.719 327.544 174.16 330.104 171.008 330.104 Z " fill="rgb(189,189,189)"/><path d=" M 325.587 309.834 L 318.058 309.834 C 315.718 309.834 313.819 307.934 313.819 305.594 L 313.819 300.704 C 313.819 298.364 315.718 296.464 318.058 296.464 L 325.587 296.464 C 327.927 296.464 329.826 298.364 329.826 300.704 L 329.826 305.594 C 329.826 307.934 327.927 309.834 325.587 309.834 Z " fill="rgb(189,189,189)"/><path d=" M 304.355 309.834 L 296.826 309.834 C 294.486 309.834 292.586 307.934 292.586 305.594 L 292.586 300.704 C 292.586 298.364 294.486 296.464 296.826 296.464 L 304.355 296.464 C 306.694 296.464 308.594 298.364 308.594 300.704 L 308.594 305.594 C 308.594 307.934 306.694 309.834 304.355 309.834 Z " fill="rgb(189,189,189)"/><path d=" M 282.167 309.834 L 274.638 309.834 C 272.299 309.834 270.399 307.934 270.399 305.594 L 270.399 300.704 C 270.399 298.364 272.299 296.464 274.638 296.464 L 282.167 296.464 C 284.507 296.464 286.407 298.364 286.407 300.704 L 286.407 305.594 C 286.407 307.934 284.507 309.834 282.167 309.834 Z " fill="rgb(189,189,189)"/><path d=" M 260.649 309.834 L 253.12 309.834 C 250.78 309.834 248.881 307.934 248.881 305.594 L 248.881 300.704 C 248.881 298.364 250.78 296.464 253.12 296.464 L 260.649 296.464 C 262.989 296.464 264.889 298.364 264.889 300.704 L 264.889 305.594 C 264.889 307.934 262.989 309.834 260.649 309.834 Z " fill="rgb(189,189,189)"/><path d=" M 238.689 309.834 L 231.16 309.834 C 228.82 309.834 226.92 307.934 226.92 305.594 L 226.92 300.704 C 226.92 298.364 228.82 296.464 231.16 296.464 L 238.689 296.464 C 241.028 296.464 242.928 298.364 242.928 300.704 L 242.928 305.594 C 242.928 307.934 241.028 309.834 238.689 309.834 Z " fill="rgb(189,189,189)"/><path d=" M 195.349 309.834 L 187.82 309.834 C 185.48 309.834 183.581 307.934 183.581 305.594 L 183.581 300.704 C 183.581 298.364 185.48 296.464 187.82 296.464 L 195.349 296.464 C 197.689 296.464 199.589 298.364 199.589 300.704 L 199.589 305.594 C 199.589 307.934 197.689 309.834 195.349 309.834 Z " fill="rgb(189,189,189)"/><path d=" M 216.795 309.834 L 209.266 309.834 C 206.927 309.834 205.027 307.934 205.027 305.594 L 205.027 300.704 C 205.027 298.364 206.927 296.464 209.266 296.464 L 216.795 296.464 C 219.135 296.464 221.035 298.364 221.035 300.704 L 221.035 305.594 C 221.035 307.934 219.135 309.834 216.795 309.834 Z " fill="rgb(189,189,189)"/><path d=" M 173.039 309.834 L 166.417 309.834 C 164.17 309.834 162.346 308.009 162.346 305.762 L 162.346 300.536 C 162.346 298.289 164.17 296.464 166.417 296.464 L 173.039 296.464 C 175.287 296.464 177.111 298.289 177.111 300.536 L 177.111 305.762 C 177.111 308.009 175.287 309.834 173.039 309.834 Z " fill="rgb(189,189,189)"/><path d=" M 152.687 309.834 L 146.065 309.834 C 143.817 309.834 141.993 308.009 141.993 305.762 L 141.993 300.536 C 141.993 298.289 143.817 296.464 146.065 296.464 L 152.687 296.464 C 154.934 296.464 156.758 298.289 156.758 300.536 L 156.758 305.762 C 156.758 308.009 154.934 309.834 152.687 309.834 Z " fill="rgb(189,189,189)"/><path d=" M 342.056 289.079 L 332.792 289.079 C 330.305 289.079 328.287 287.06 328.287 284.573 L 328.287 280.358 C 328.287 277.872 330.305 275.853 332.792 275.853 L 342.056 275.853 C 344.543 275.853 346.562 277.872 346.562 280.358 L 346.562 284.573 C 346.562 287.06 344.543 289.079 342.056 289.079 Z " fill="rgb(189,189,189)"/><path d=" M 361.722 289.079 L 354.406 289.079 C 352.105 289.079 350.236 287.21 350.236 284.909 L 350.236 280.023 C 350.236 277.721 352.105 275.853 354.406 275.853 L 361.722 275.853 C 364.023 275.853 365.892 277.721 365.892 280.023 L 365.892 284.909 C 365.892 287.21 364.023 289.079 361.722 289.079 Z " fill="rgb(189,189,189)"/><path d=" M 376.586 289.079 L 373.344 289.079 C 371.518 289.079 370.035 287.596 370.035 285.769 L 370.035 279.162 C 370.035 277.336 371.518 275.853 373.344 275.853 L 376.586 275.853 C 378.412 275.853 379.895 277.336 379.895 279.162 L 379.895 285.769 C 379.895 287.596 378.412 289.079 376.586 289.079 Z " fill="rgb(189,189,189)"/><path d=" M 319.412 288.558 L 243.384 288.558 C 240.497 288.558 238.153 286.214 238.153 283.327 L 238.153 280.275 C 238.153 277.388 240.497 275.044 243.384 275.044 L 319.412 275.044 C 322.299 275.044 324.643 277.388 324.643 280.275 L 324.643 283.327 C 324.643 286.214 322.299 288.558 319.412 288.558 Z " fill="rgb(189,189,189)"/><path d=" M 230.313 289.079 L 222.8 289.079 C 220.444 289.079 218.532 287.166 218.532 284.811 L 218.532 279.833 C 218.532 277.478 220.444 275.565 222.8 275.565 L 230.313 275.565 C 232.669 275.565 234.581 277.478 234.581 279.833 L 234.581 284.811 C 234.581 287.166 232.669 289.079 230.313 289.079 Z " fill="rgb(189,189,189)"/><path d=" M 208.364 288.27 L 200.85 288.27 C 198.495 288.27 196.583 286.358 196.583 284.002 L 196.583 279.024 C 196.583 276.669 198.495 274.757 200.85 274.757 L 208.364 274.757 C 210.72 274.757 212.632 276.669 212.632 279.024 L 212.632 284.002 C 212.632 286.358 210.72 288.27 208.364 288.27 Z " fill="rgb(189,189,189)"/><path d=" M 186.25 288.27 L 178.645 288.27 C 176.315 288.27 174.423 286.378 174.423 284.048 L 174.423 279.266 C 174.423 276.936 176.315 275.044 178.645 275.044 L 186.25 275.044 C 188.58 275.044 190.472 276.936 190.472 279.266 L 190.472 284.048 C 190.472 286.378 188.58 288.27 186.25 288.27 Z " fill="rgb(189,189,189)"/><path d=" M 149.154 288.27 L 141.549 288.27 C 139.218 288.27 137.327 286.378 137.327 284.048 L 137.327 279.266 C 137.327 276.936 139.218 275.044 141.549 275.044 L 149.154 275.044 C 151.484 275.044 153.376 276.936 153.376 279.266 L 153.376 284.048 C 153.376 286.378 151.484 288.27 149.154 288.27 Z " fill="rgb(189,189,189)"/><path d=" M 169.206 288.27 L 158.593 288.27 C 157.093 288.27 155.875 287.052 155.875 285.552 L 155.875 285.507 C 155.875 284.007 157.093 282.789 158.593 282.789 L 169.206 282.789 C 170.706 282.789 171.924 284.007 171.924 285.507 L 171.924 285.552 C 171.924 287.052 170.706 288.27 169.206 288.27 Z " fill="rgb(189,189,189)"/><path d=" M 335.161 352.386 L 327.648 352.386 C 325.292 352.386 323.38 350.474 323.38 348.118 L 323.38 343.14 C 323.38 340.785 325.292 338.873 327.648 338.873 L 335.161 338.873 C 337.517 338.873 339.429 340.785 339.429 343.14 L 339.429 348.118 C 339.429 350.474 337.517 352.386 335.161 352.386 Z " fill="rgb(189,189,189)"/><path d=" M 313.874 352.386 L 306.361 352.386 C 304.005 352.386 302.093 350.474 302.093 348.118 L 302.093 343.14 C 302.093 340.785 304.005 338.873 306.361 338.873 L 313.874 338.873 C 316.23 338.873 318.142 340.785 318.142 343.14 L 318.142 348.118 C 318.142 350.474 316.23 352.386 313.874 352.386 Z " fill="rgb(189,189,189)"/><path d=" M 291.63 352.386 L 284.117 352.386 C 281.761 352.386 279.849 350.474 279.849 348.118 L 279.849 343.14 C 279.849 340.785 281.761 338.873 284.117 338.873 L 291.63 338.873 C 293.986 338.873 295.898 340.785 295.898 343.14 L 295.898 348.118 C 295.898 350.474 293.986 352.386 291.63 352.386 Z " fill="rgb(189,189,189)"/><path d=" M 270.057 352.386 L 262.543 352.386 C 260.188 352.386 258.276 350.474 258.276 348.118 L 258.276 343.14 C 258.276 340.785 260.188 338.873 262.543 338.873 L 270.057 338.873 C 272.412 338.873 274.325 340.785 274.325 343.14 L 274.325 348.118 C 274.325 350.474 272.412 352.386 270.057 352.386 Z " fill="rgb(189,189,189)"/><path d=" M 248.04 352.386 L 240.526 352.386 C 238.171 352.386 236.259 350.474 236.259 348.118 L 236.259 343.14 C 236.259 340.785 238.171 338.873 240.526 338.873 L 248.04 338.873 C 250.395 338.873 252.308 340.785 252.308 343.14 L 252.308 348.118 C 252.308 350.474 250.395 352.386 248.04 352.386 Z " fill="rgb(189,189,189)"/><path d=" M 204.589 352.386 L 197.076 352.386 C 194.72 352.386 192.808 350.474 192.808 348.118 L 192.808 343.14 C 192.808 340.785 194.72 338.873 197.076 338.873 L 204.589 338.873 C 206.945 338.873 208.857 340.785 208.857 343.14 L 208.857 348.118 C 208.857 350.474 206.945 352.386 204.589 352.386 Z " fill="rgb(189,189,189)"/><path d=" M 226.091 352.386 L 218.577 352.386 C 216.222 352.386 214.309 350.474 214.309 348.118 L 214.309 343.14 C 214.309 340.785 216.222 338.873 218.577 338.873 L 226.091 338.873 C 228.446 338.873 230.358 340.785 230.358 343.14 L 230.358 348.118 C 230.358 350.474 228.446 352.386 226.091 352.386 Z " fill="rgb(189,189,189)"/><path d=" M 182.404 352.386 L 174.89 352.386 C 172.535 352.386 170.623 350.474 170.623 348.118 L 170.623 343.14 C 170.623 340.785 172.535 338.873 174.89 338.873 L 182.404 338.873 C 184.759 338.873 186.672 340.785 186.672 343.14 L 186.672 348.118 C 186.672 350.474 184.759 352.386 182.404 352.386 Z " fill="rgb(189,189,189)"/><path d=" M 160.219 352.386 L 152.705 352.386 C 150.35 352.386 148.437 350.474 148.437 348.118 L 148.437 343.14 C 148.437 340.785 150.35 338.873 152.705 338.873 L 160.219 338.873 C 162.574 338.873 164.486 340.785 164.486 343.14 L 164.486 348.118 C 164.486 350.474 162.574 352.386 160.219 352.386 Z " fill="rgb(189,189,189)"/><path d=" M 169.206 280.992 L 158.593 280.992 C 157.093 280.992 155.875 279.774 155.875 278.274 L 155.875 278.229 C 155.875 276.729 157.093 275.512 158.593 275.512 L 169.206 275.512 C 170.706 275.512 171.924 276.729 171.924 278.229 L 171.924 278.274 C 171.924 279.774 170.706 280.992 169.206 280.992 Z " fill="rgb(189,189,189)"/></g><path d=" M 289.489 237.474 C 281.627 258.479 282.758 278.164 292.012 281.405 C 301.266 284.646 315.161 270.225 323.023 249.22" fill="rgb(172,132,73)" vector-effect="non-scaling-stroke" stroke-width="3" stroke="rgb(147,112,60)" stroke-opacity="100" stroke-linejoin="miter" stroke-linecap="square" stroke-miterlimit="3"/><path d=" M 189.967 239.941 C 166.568 222.059 152.379 199.825 158.302 190.32 C 164.225 180.815 188.029 187.615 211.427 205.497" fill="rgb(172,132,73)"/></g></g></svg>