<?xml version="1.0" standalone="no"?><!-- Generator: Gravit.io --><svg xmlns="http://www.w3.org/2000/svg" xmlns:xlink="http://www.w3.org/1999/xlink" style="isolation:isolate" viewBox="0 0 272 302" width="272" height="302"><defs><clipPath id="_clipPath_XAveEbrC48oM8mJTg1yGovDNglDwSeS8"><rect width="272" height="302"/></clipPath></defs><g clip-path="url(#_clipPath_XAveEbrC48oM8mJTg1yGovDNglDwSeS8)"><g><g><path d=" M 135.725 89.962 L 135.725 89.962 C 183.704 89.962 222.657 145.984 222.657 214.986 L 222.657 214.986 C 222.657 245.003 185.841 269.372 140.494 269.372 L 130.956 269.372 C 85.609 269.372 48.793 245.003 48.793 214.986 L 48.793 214.986 C 48.793 145.984 87.746 89.962 135.725 89.962 Z " fill="rgb(172,132,73)"/></g><g><path d=" M 68.683 38.369 C 60.935 33.722 57.773 24.498 61.628 17.783 C 65.482 11.068 74.902 9.389 82.65 14.036 C 90.399 18.683 93.56 27.907 89.705 34.622 C 85.851 41.337 76.431 43.016 68.683 38.369 Z " fill="rgb(189,146,82)"/><path d=" M 71.822 36.15 C 67.143 33.344 65.066 28.064 67.188 24.367 C 69.31 20.671 74.832 19.948 79.511 22.754 C 84.191 25.561 86.267 30.84 84.145 34.537 C 82.023 38.234 76.501 38.956 71.822 36.15 Z " fill="rgb(255,255,208)"/><path d=" M 199.317 38.369 C 207.065 33.722 210.227 24.498 206.372 17.783 C 202.518 11.068 193.098 9.389 185.35 14.036 C 177.601 18.683 174.44 27.907 178.295 34.622 C 182.149 41.337 191.569 43.016 199.317 38.369 Z " fill="rgb(189,146,82)"/><path d=" M 196.178 36.15 C 200.857 33.344 202.934 28.064 200.812 24.367 C 198.69 20.671 193.168 19.948 188.489 22.754 C 183.809 25.561 181.733 30.84 183.855 34.537 C 185.977 38.234 191.499 38.956 196.178 36.15 Z " fill="rgb(255,255,208)"/><ellipse vector-effect="non-scaling-stroke" cx="133.7961025897772" cy="64.43863276626004" rx="64.18147120833046" ry="62.43863276626004" fill="rgb(189,146,82)"/><ellipse vector-effect="non-scaling-stroke" cx="102.75384219875718" cy="49.038334818697926" rx="7.862373763436324" ry="8.041322304940394" fill="rgb(23,23,23)"/><ellipse vector-effect="non-scaling-stroke" cx="104.17720296627567" cy="45.2837175957426" rx="2.7111633667021806" ry="2.710759839660625" fill="rgb(255,255,255)"/><ellipse vector-effect="non-scaling-stroke" cx="163.55168069705311" cy="49.038334818697926" rx="7.862373763436324" ry="8.041322304940394" fill="rgb(23,23,23)"/><ellipse vector-effect="non-scaling-stroke" cx="161.9249826770324" cy="45.2837175957426" rx="2.7111633667021806" ry="2.710759839660625" fill="rgb(255,255,255)"/><ellipse vector-effect="non-scaling-stroke" cx="133.7961025897768" cy="89.72267428365728" rx="68.50952983494707" ry="39.678618457924856" fill="rgb(215,170,103)"/><path d=" M 88.749 91.199 C 87.548 87.528 89.271 83.886 92.594 83.071 C 95.916 82.256 99.589 84.575 100.79 88.246 C 101.991 91.917 100.269 95.56 96.946 96.374 C 93.623 97.189 89.95 94.87 88.749 91.199 Z " fill="rgb(255,255,208)"/><path d=" M 180.474 91.199 C 181.675 87.528 179.953 83.886 176.63 83.071 C 173.307 82.256 169.634 84.575 168.433 88.246 C 167.232 91.917 168.955 95.56 172.277 96.374 C 175.6 97.189 179.273 94.87 180.474 91.199 Z " fill="rgb(255,255,208)"/></g><g><path d=" M 255.685 302 L 12.315 302 C 4.966 302 -1 296.034 -1 288.685 L -1 198.008 C -1 190.66 4.966 184.694 12.315 184.694 L 255.685 184.694 C 263.034 184.694 269 190.66 269 198.008 L 269 288.685 C 269 296.034 263.034 302 255.685 302 Z " fill="rgb(235,235,235)"/><path d=" M 255.685 302 L 12.315 302 C 4.966 302 -1 296.034 -1 288.685 L -1 198.008 C -1 190.66 4.966 184.694 12.315 184.694 L 255.685 184.694 C 263.034 184.694 269 190.66 269 198.008 L 269 288.685 C 269 296.034 263.034 302 255.685 302 Z " fill="none" vector-effect="non-scaling-stroke" stroke-width="2" stroke="rgb(206,206,206)" stroke-linejoin="miter" stroke-linecap="square" stroke-miterlimit="2"/><path d=" M 249.627 291.793 L 242.114 291.793 C 239.758 291.793 237.846 289.881 237.846 287.526 L 237.846 282.548 C 237.846 280.192 239.758 278.28 242.114 278.28 L 249.627 278.28 C 251.983 278.28 253.895 280.192 253.895 282.548 L 253.895 287.526 C 253.895 289.881 251.983 291.793 249.627 291.793 Z " fill="rgb(189,189,189)"/><path d=" M 203.032 291.793 L 195.518 291.793 C 193.163 291.793 191.25 289.881 191.25 287.526 L 191.25 282.548 C 191.25 280.192 193.163 278.28 195.518 278.28 L 203.032 278.28 C 205.387 278.28 207.299 280.192 207.299 282.548 L 207.299 287.526 C 207.299 289.881 205.387 291.793 203.032 291.793 Z " fill="rgb(189,189,189)"/><path d=" M 179.408 291.793 L 171.894 291.793 C 169.539 291.793 167.626 289.881 167.626 287.526 L 167.626 282.548 C 167.626 280.192 169.539 278.28 171.894 278.28 L 179.408 278.28 C 181.763 278.28 183.675 280.192 183.675 282.548 L 183.675 287.526 C 183.675 289.881 181.763 291.793 179.408 291.793 Z " fill="rgb(189,189,189)"/><path d=" M 227.599 291.793 L 220.086 291.793 C 217.73 291.793 215.818 289.881 215.818 287.526 L 215.818 282.548 C 215.818 280.192 217.73 278.28 220.086 278.28 L 227.599 278.28 C 229.955 278.28 231.867 280.192 231.867 282.548 L 231.867 287.526 C 231.867 289.881 229.955 291.793 227.599 291.793 Z " fill="rgb(189,189,189)"/><path d=" M 155.567 291.793 L 148.053 291.793 C 145.698 291.793 143.786 289.881 143.786 287.526 L 143.786 282.548 C 143.786 280.192 145.698 278.28 148.053 278.28 L 155.567 278.28 C 157.922 278.28 159.835 280.192 159.835 282.548 L 159.835 287.526 C 159.835 289.881 157.922 291.793 155.567 291.793 Z " fill="rgb(189,189,189)"/><path d=" M 131.726 291.793 L 124.213 291.793 C 121.857 291.793 119.945 289.881 119.945 287.526 L 119.945 282.548 C 119.945 280.192 121.857 278.28 124.213 278.28 L 131.726 278.28 C 134.082 278.28 135.994 280.192 135.994 282.548 L 135.994 287.526 C 135.994 289.881 134.082 291.793 131.726 291.793 Z " fill="rgb(189,189,189)"/><path d=" M 107.886 291.793 L 100.372 291.793 C 98.017 291.793 96.104 289.881 96.104 287.526 L 96.104 282.548 C 96.104 280.192 98.017 278.28 100.372 278.28 L 107.886 278.28 C 110.241 278.28 112.153 280.192 112.153 282.548 L 112.153 287.526 C 112.153 289.881 110.241 291.793 107.886 291.793 Z " fill="rgb(189,189,189)"/><path d=" M 84.045 291.793 L 76.531 291.793 C 74.176 291.793 72.264 289.881 72.264 287.526 L 72.264 282.548 C 72.264 280.192 74.176 278.28 76.531 278.28 L 84.045 278.28 C 86.401 278.28 88.313 280.192 88.313 282.548 L 88.313 287.526 C 88.313 289.881 86.401 291.793 84.045 291.793 Z " fill="rgb(189,189,189)"/><path d=" M 60.205 291.793 L 52.691 291.793 C 50.335 291.793 48.423 289.881 48.423 287.526 L 48.423 282.548 C 48.423 280.192 50.335 278.28 52.691 278.28 L 60.205 278.28 C 62.56 278.28 64.472 280.192 64.472 282.548 L 64.472 287.526 C 64.472 289.881 62.56 291.793 60.205 291.793 Z " fill="rgb(189,189,189)"/><path d=" M 37.19 291.793 L 21.498 291.793 C 18.46 291.793 15.993 289.327 15.993 286.288 L 15.993 283.785 C 15.993 280.747 18.46 278.28 21.498 278.28 L 37.19 278.28 C 40.228 278.28 42.695 280.747 42.695 283.785 L 42.695 286.288 C 42.695 289.327 40.228 291.793 37.19 291.793 Z " fill="rgb(189,189,189)"/><path d=" M 247.303 272.386 L 227.154 272.386 C 223.516 272.386 220.562 269.432 220.562 265.793 L 220.562 263.453 C 220.562 259.814 223.516 256.86 227.154 256.86 L 247.303 256.86 C 250.941 256.86 253.895 259.814 253.895 263.453 L 253.895 265.793 C 253.895 269.432 250.941 272.386 247.303 272.386 Z " fill="rgb(189,189,189)"/><path d=" M 247.362 251.11 L 216.766 251.11 C 212.487 251.11 209.013 247.636 209.013 243.357 L 209.013 243.337 C 209.013 239.058 212.487 235.584 216.766 235.584 L 247.362 235.584 C 251.641 235.584 255.115 239.058 255.115 243.337 L 255.115 243.357 C 255.115 247.636 251.641 251.11 247.362 251.11 Z " fill="rgb(189,189,189)"/><path d=" M 247.362 229.834 L 216.766 229.834 C 212.487 229.834 209.013 226.36 209.013 222.081 L 209.013 222.061 C 209.013 217.782 212.487 214.308 216.766 214.308 L 247.362 214.308 C 251.641 214.308 255.115 217.782 255.115 222.061 L 255.115 222.081 C 255.115 226.36 251.641 229.834 247.362 229.834 Z " fill="rgb(189,189,189)"/><path d=" M 199.559 250.104 L 192.045 250.104 C 189.69 250.104 187.778 248.191 187.778 245.836 L 187.778 240.858 C 187.778 238.503 189.69 236.59 192.045 236.59 L 199.559 236.59 C 201.914 236.59 203.826 238.503 203.826 240.858 L 203.826 245.836 C 203.826 248.191 201.914 250.104 199.559 250.104 Z " fill="rgb(189,189,189)"/><path d=" M 178.272 250.104 L 170.758 250.104 C 168.403 250.104 166.491 248.191 166.491 245.836 L 166.491 240.858 C 166.491 238.503 168.403 236.59 170.758 236.59 L 178.272 236.59 C 180.627 236.59 182.54 238.503 182.54 240.858 L 182.54 245.836 C 182.54 248.191 180.627 250.104 178.272 250.104 Z " fill="rgb(189,189,189)"/><path d=" M 156.028 250.104 L 148.514 250.104 C 146.159 250.104 144.247 248.191 144.247 245.836 L 144.247 240.858 C 144.247 238.503 146.159 236.59 148.514 236.59 L 156.028 236.59 C 158.383 236.59 160.296 238.503 160.296 240.858 L 160.296 245.836 C 160.296 248.191 158.383 250.104 156.028 250.104 Z " fill="rgb(189,189,189)"/><path d=" M 134.455 250.104 L 126.941 250.104 C 124.585 250.104 122.673 248.191 122.673 245.836 L 122.673 240.858 C 122.673 238.503 124.585 236.59 126.941 236.59 L 134.455 236.59 C 136.81 236.59 138.722 238.503 138.722 240.858 L 138.722 245.836 C 138.722 248.191 136.81 250.104 134.455 250.104 Z " fill="rgb(189,189,189)"/><path d=" M 112.438 250.104 L 104.924 250.104 C 102.568 250.104 100.656 248.191 100.656 245.836 L 100.656 240.858 C 100.656 238.503 102.568 236.59 104.924 236.59 L 112.438 236.59 C 114.793 236.59 116.705 238.503 116.705 240.858 L 116.705 245.836 C 116.705 248.191 114.793 250.104 112.438 250.104 Z " fill="rgb(189,189,189)"/><path d=" M 68.987 250.104 L 61.473 250.104 C 59.118 250.104 57.206 248.191 57.206 245.836 L 57.206 240.858 C 57.206 238.503 59.118 236.59 61.473 236.59 L 68.987 236.59 C 71.342 236.59 73.255 238.503 73.255 240.858 L 73.255 245.836 C 73.255 248.191 71.342 250.104 68.987 250.104 Z " fill="rgb(189,189,189)"/><path d=" M 90.488 250.104 L 82.975 250.104 C 80.619 250.104 78.707 248.191 78.707 245.836 L 78.707 240.858 C 78.707 238.503 80.619 236.59 82.975 236.59 L 90.488 236.59 C 92.844 236.59 94.756 238.503 94.756 240.858 L 94.756 245.836 C 94.756 248.191 92.844 250.104 90.488 250.104 Z " fill="rgb(189,189,189)"/><path d=" M 45.008 250.104 L 27.684 250.104 C 24.531 250.104 21.972 247.544 21.972 244.392 L 21.972 242.302 C 21.972 239.15 24.531 236.59 27.684 236.59 L 45.008 236.59 C 48.16 236.59 50.719 239.15 50.719 242.302 L 50.719 244.392 C 50.719 247.544 48.16 250.104 45.008 250.104 Z " fill="rgb(189,189,189)"/><path d=" M 199.587 229.834 L 192.058 229.834 C 189.718 229.834 187.819 227.934 187.819 225.594 L 187.819 220.704 C 187.819 218.364 189.718 216.464 192.058 216.464 L 199.587 216.464 C 201.927 216.464 203.826 218.364 203.826 220.704 L 203.826 225.594 C 203.826 227.934 201.927 229.834 199.587 229.834 Z " fill="rgb(189,189,189)"/><path d=" M 178.355 229.834 L 170.826 229.834 C 168.486 229.834 166.586 227.934 166.586 225.594 L 166.586 220.704 C 166.586 218.364 168.486 216.464 170.826 216.464 L 178.355 216.464 C 180.694 216.464 182.594 218.364 182.594 220.704 L 182.594 225.594 C 182.594 227.934 180.694 229.834 178.355 229.834 Z " fill="rgb(189,189,189)"/><path d=" M 156.167 229.834 L 148.638 229.834 C 146.299 229.834 144.399 227.934 144.399 225.594 L 144.399 220.704 C 144.399 218.364 146.299 216.464 148.638 216.464 L 156.167 216.464 C 158.507 216.464 160.407 218.364 160.407 220.704 L 160.407 225.594 C 160.407 227.934 158.507 229.834 156.167 229.834 Z " fill="rgb(189,189,189)"/><path d=" M 134.649 229.834 L 127.12 229.834 C 124.78 229.834 122.881 227.934 122.881 225.594 L 122.881 220.704 C 122.881 218.364 124.78 216.464 127.12 216.464 L 134.649 216.464 C 136.989 216.464 138.889 218.364 138.889 220.704 L 138.889 225.594 C 138.889 227.934 136.989 229.834 134.649 229.834 Z " fill="rgb(189,189,189)"/><path d=" M 112.689 229.834 L 105.16 229.834 C 102.82 229.834 100.92 227.934 100.92 225.594 L 100.92 220.704 C 100.92 218.364 102.82 216.464 105.16 216.464 L 112.689 216.464 C 115.028 216.464 116.928 218.364 116.928 220.704 L 116.928 225.594 C 116.928 227.934 115.028 229.834 112.689 229.834 Z " fill="rgb(189,189,189)"/><path d=" M 69.349 229.834 L 61.82 229.834 C 59.48 229.834 57.581 227.934 57.581 225.594 L 57.581 220.704 C 57.581 218.364 59.48 216.464 61.82 216.464 L 69.349 216.464 C 71.689 216.464 73.589 218.364 73.589 220.704 L 73.589 225.594 C 73.589 227.934 71.689 229.834 69.349 229.834 Z " fill="rgb(189,189,189)"/><path d=" M 90.795 229.834 L 83.266 229.834 C 80.927 229.834 79.027 227.934 79.027 225.594 L 79.027 220.704 C 79.027 218.364 80.927 216.464 83.266 216.464 L 90.795 216.464 C 93.135 216.464 95.035 218.364 95.035 220.704 L 95.035 225.594 C 95.035 227.934 93.135 229.834 90.795 229.834 Z " fill="rgb(189,189,189)"/><path d=" M 47.039 229.834 L 40.417 229.834 C 38.17 229.834 36.346 228.009 36.346 225.762 L 36.346 220.536 C 36.346 218.289 38.17 216.464 40.417 216.464 L 47.039 216.464 C 49.287 216.464 51.111 218.289 51.111 220.536 L 51.111 225.762 C 51.111 228.009 49.287 229.834 47.039 229.834 Z " fill="rgb(189,189,189)"/><path d=" M 26.687 229.834 L 20.065 229.834 C 17.817 229.834 15.993 228.009 15.993 225.762 L 15.993 220.536 C 15.993 218.289 17.817 216.464 20.065 216.464 L 26.687 216.464 C 28.934 216.464 30.758 218.289 30.758 220.536 L 30.758 225.762 C 30.758 228.009 28.934 229.834 26.687 229.834 Z " fill="rgb(189,189,189)"/><path d=" M 216.056 209.079 L 206.792 209.079 C 204.305 209.079 202.287 207.06 202.287 204.573 L 202.287 200.358 C 202.287 197.872 204.305 195.853 206.792 195.853 L 216.056 195.853 C 218.543 195.853 220.562 197.872 220.562 200.358 L 220.562 204.573 C 220.562 207.06 218.543 209.079 216.056 209.079 Z " fill="rgb(189,189,189)"/><path d=" M 235.722 209.079 L 228.406 209.079 C 226.105 209.079 224.236 207.21 224.236 204.909 L 224.236 200.023 C 224.236 197.721 226.105 195.853 228.406 195.853 L 235.722 195.853 C 238.023 195.853 239.892 197.721 239.892 200.023 L 239.892 204.909 C 239.892 207.21 238.023 209.079 235.722 209.079 Z " fill="rgb(189,189,189)"/><path d=" M 250.586 209.079 L 247.344 209.079 C 245.518 209.079 244.035 207.596 244.035 205.769 L 244.035 199.162 C 244.035 197.336 245.518 195.853 247.344 195.853 L 250.586 195.853 C 252.412 195.853 253.895 197.336 253.895 199.162 L 253.895 205.769 C 253.895 207.596 252.412 209.079 250.586 209.079 Z " fill="rgb(189,189,189)"/><path d=" M 193.412 208.558 L 117.384 208.558 C 114.497 208.558 112.153 206.214 112.153 203.327 L 112.153 200.275 C 112.153 197.388 114.497 195.044 117.384 195.044 L 193.412 195.044 C 196.299 195.044 198.643 197.388 198.643 200.275 L 198.643 203.327 C 198.643 206.214 196.299 208.558 193.412 208.558 Z " fill="rgb(189,189,189)"/><path d=" M 104.313 209.079 L 96.8 209.079 C 94.444 209.079 92.532 207.166 92.532 204.811 L 92.532 199.833 C 92.532 197.478 94.444 195.565 96.8 195.565 L 104.313 195.565 C 106.669 195.565 108.581 197.478 108.581 199.833 L 108.581 204.811 C 108.581 207.166 106.669 209.079 104.313 209.079 Z " fill="rgb(189,189,189)"/><path d=" M 82.364 208.27 L 74.85 208.27 C 72.495 208.27 70.583 206.358 70.583 204.002 L 70.583 199.024 C 70.583 196.669 72.495 194.757 74.85 194.757 L 82.364 194.757 C 84.72 194.757 86.632 196.669 86.632 199.024 L 86.632 204.002 C 86.632 206.358 84.72 208.27 82.364 208.27 Z " fill="rgb(189,189,189)"/><path d=" M 60.25 208.27 L 52.645 208.27 C 50.315 208.27 48.423 206.378 48.423 204.048 L 48.423 199.266 C 48.423 196.936 50.315 195.044 52.645 195.044 L 60.25 195.044 C 62.58 195.044 64.472 196.936 64.472 199.266 L 64.472 204.048 C 64.472 206.378 62.58 208.27 60.25 208.27 Z " fill="rgb(189,189,189)"/><path d=" M 23.154 208.27 L 15.549 208.27 C 13.218 208.27 11.327 206.378 11.327 204.048 L 11.327 199.266 C 11.327 196.936 13.218 195.044 15.549 195.044 L 23.154 195.044 C 25.484 195.044 27.376 196.936 27.376 199.266 L 27.376 204.048 C 27.376 206.378 25.484 208.27 23.154 208.27 Z " fill="rgb(189,189,189)"/><path d=" M 43.206 208.27 L 32.593 208.27 C 31.093 208.27 29.875 207.052 29.875 205.552 L 29.875 205.507 C 29.875 204.007 31.093 202.789 32.593 202.789 L 43.206 202.789 C 44.706 202.789 45.924 204.007 45.924 205.507 L 45.924 205.552 C 45.924 207.052 44.706 208.27 43.206 208.27 Z " fill="rgb(189,189,189)"/><path d=" M 209.161 272.386 L 201.648 272.386 C 199.292 272.386 197.38 270.474 197.38 268.118 L 197.38 263.14 C 197.38 260.785 199.292 258.873 201.648 258.873 L 209.161 258.873 C 211.517 258.873 213.429 260.785 213.429 263.14 L 213.429 268.118 C 213.429 270.474 211.517 272.386 209.161 272.386 Z " fill="rgb(189,189,189)"/><path d=" M 187.874 272.386 L 180.361 272.386 C 178.005 272.386 176.093 270.474 176.093 268.118 L 176.093 263.14 C 176.093 260.785 178.005 258.873 180.361 258.873 L 187.874 258.873 C 190.23 258.873 192.142 260.785 192.142 263.14 L 192.142 268.118 C 192.142 270.474 190.23 272.386 187.874 272.386 Z " fill="rgb(189,189,189)"/><path d=" M 165.63 272.386 L 158.117 272.386 C 155.761 272.386 153.849 270.474 153.849 268.118 L 153.849 263.14 C 153.849 260.785 155.761 258.873 158.117 258.873 L 165.63 258.873 C 167.986 258.873 169.898 260.785 169.898 263.14 L 169.898 268.118 C 169.898 270.474 167.986 272.386 165.63 272.386 Z " fill="rgb(189,189,189)"/><path d=" M 144.057 272.386 L 136.543 272.386 C 134.188 272.386 132.276 270.474 132.276 268.118 L 132.276 263.14 C 132.276 260.785 134.188 258.873 136.543 258.873 L 144.057 258.873 C 146.412 258.873 148.325 260.785 148.325 263.14 L 148.325 268.118 C 148.325 270.474 146.412 272.386 144.057 272.386 Z " fill="rgb(189,189,189)"/><path d=" M 122.04 272.386 L 114.526 272.386 C 112.171 272.386 110.259 270.474 110.259 268.118 L 110.259 263.14 C 110.259 260.785 112.171 258.873 114.526 258.873 L 122.04 258.873 C 124.395 258.873 126.308 260.785 126.308 263.14 L 126.308 268.118 C 126.308 270.474 124.395 272.386 122.04 272.386 Z " fill="rgb(189,189,189)"/><path d=" M 78.589 272.386 L 71.076 272.386 C 68.72 272.386 66.808 270.474 66.808 268.118 L 66.808 263.14 C 66.808 260.785 68.72 258.873 71.076 258.873 L 78.589 258.873 C 80.945 258.873 82.857 260.785 82.857 263.14 L 82.857 268.118 C 82.857 270.474 80.945 272.386 78.589 272.386 Z " fill="rgb(189,189,189)"/><path d=" M 100.091 272.386 L 92.577 272.386 C 90.222 272.386 88.309 270.474 88.309 268.118 L 88.309 263.14 C 88.309 260.785 90.222 258.873 92.577 258.873 L 100.091 258.873 C 102.446 258.873 104.358 260.785 104.358 263.14 L 104.358 268.118 C 104.358 270.474 102.446 272.386 100.091 272.386 Z " fill="rgb(189,189,189)"/><path d=" M 56.404 272.386 L 48.89 272.386 C 46.535 272.386 44.623 270.474 44.623 268.118 L 44.623 263.14 C 44.623 260.785 46.535 258.873 48.89 258.873 L 56.404 258.873 C 58.759 258.873 60.672 260.785 60.672 263.14 L 60.672 268.118 C 60.672 270.474 58.759 272.386 56.404 272.386 Z " fill="rgb(189,189,189)"/><path d=" M 34.219 272.386 L 26.705 272.386 C 24.35 272.386 22.437 270.474 22.437 268.118 L 22.437 263.14 C 22.437 260.785 24.35 258.873 26.705 258.873 L 34.219 258.873 C 36.574 258.873 38.486 260.785 38.486 263.14 L 38.486 268.118 C 38.486 270.474 36.574 272.386 34.219 272.386 Z " fill="rgb(189,189,189)"/><path d=" M 43.206 200.992 L 32.593 200.992 C 31.093 200.992 29.875 199.774 29.875 198.274 L 29.875 198.229 C 29.875 196.729 31.093 195.512 32.593 195.512 L 43.206 195.512 C 44.706 195.512 45.924 196.729 45.924 198.229 L 45.924 198.274 C 45.924 199.774 44.706 200.992 43.206 200.992 Z " fill="rgb(189,189,189)"/></g><path d=" M 63.967 159.941 C 40.568 142.059 26.379 119.825 32.302 110.32 C 38.225 100.815 62.029 107.615 85.427 125.497" fill="rgb(172,132,73)"/></g><g><g><path d=" M 135.725 89.962 L 135.725 89.962 C 183.704 89.962 222.657 145.984 222.657 214.986 L 222.657 214.986 C 222.657 245.003 185.841 269.372 140.494 269.372 L 130.956 269.372 C 85.609 269.372 48.793 245.003 48.793 214.986 L 48.793 214.986 C 48.793 145.984 87.746 89.962 135.725 89.962 Z " fill="rgb(172,132,73)"/></g><g><path d=" M 68.683 38.369 C 60.935 33.722 57.773 24.498 61.628 17.783 C 65.482 11.068 74.902 9.389 82.65 14.036 C 90.399 18.683 93.56 27.907 89.705 34.622 C 85.851 41.337 76.431 43.016 68.683 38.369 Z " fill="rgb(189,146,82)"/><path d=" M 71.822 36.15 C 67.143 33.344 65.066 28.064 67.188 24.367 C 69.31 20.671 74.832 19.948 79.511 22.754 C 84.191 25.561 86.267 30.84 84.145 34.537 C 82.023 38.234 76.501 38.956 71.822 36.15 Z " fill="rgb(255,255,208)"/><path d=" M 199.317 38.369 C 207.065 33.722 210.227 24.498 206.372 17.783 C 202.518 11.068 193.098 9.389 185.35 14.036 C 177.601 18.683 174.44 27.907 178.295 34.622 C 182.149 41.337 191.569 43.016 199.317 38.369 Z " fill="rgb(189,146,82)"/><path d=" M 196.178 36.15 C 200.857 33.344 202.934 28.064 200.812 24.367 C 198.69 20.671 193.168 19.948 188.489 22.754 C 183.809 25.561 181.733 30.84 183.855 34.537 C 185.977 38.234 191.499 38.956 196.178 36.15 Z " fill="rgb(255,255,208)"/><ellipse vector-effect="non-scaling-stroke" cx="133.7961025897772" cy="64.43863276626004" rx="64.18147120833046" ry="62.43863276626004" fill="rgb(189,146,82)"/><ellipse vector-effect="non-scaling-stroke" cx="102.75384219875718" cy="49.038334818697926" rx="7.862373763436324" ry="8.041322304940394" fill="rgb(23,23,23)"/><ellipse vector-effect="non-scaling-stroke" cx="104.17720296627567" cy="45.2837175957426" rx="2.7111633667021806" ry="2.710759839660625" fill="rgb(255,255,255)"/><ellipse vector-effect="non-scaling-stroke" cx="163.55168069705311" cy="49.038334818697926" rx="7.862373763436324" ry="8.041322304940394" fill="rgb(23,23,23)"/><ellipse vector-effect="non-scaling-stroke" cx="161.9249826770324" cy="45.2837175957426" rx="2.7111633667021806" ry="2.710759839660625" fill="rgb(255,255,255)"/><ellipse vector-effect="non-scaling-stroke" cx="133.7961025897768" cy="89.72267428365728" rx="68.50952983494707" ry="39.678618457924856" fill="rgb(215,170,103)"/><path d=" M 88.749 91.199 C 87.548 87.528 89.271 83.886 92.594 83.071 C 95.916 82.256 99.589 84.575 100.79 88.246 C 101.991 91.917 100.269 95.56 96.946 96.374 C 93.623 97.189 89.95 94.87 88.749 91.199 Z " fill="rgb(255,255,208)"/><path d=" M 180.474 91.199 C 181.675 87.528 179.953 83.886 176.63 83.071 C 173.307 82.256 169.634 84.575 168.433 88.246 C 167.232 91.917 168.955 95.56 172.277 96.374 C 175.6 97.189 179.273 94.87 180.474 91.199 Z " fill="rgb(255,255,208)"/></g><g><path d=" M 258.537 302 L 12.463 302 C 5.032 302 -1 296.034 -1 288.685 L -1 198.008 C -1 190.66 5.032 184.694 12.463 184.694 L 258.537 184.694 C 265.968 184.694 272 190.66 272 198.008 L 272 288.685 C 272 296.034 265.968 302 258.537 302 Z " fill="rgb(235,235,235)"/><path d=" M 258.537 302 L 12.463 302 C 5.032 302 -1 296.034 -1 288.685 L -1 198.008 C -1 190.66 5.032 184.694 12.463 184.694 L 258.537 184.694 C 265.968 184.694 272 190.66 272 198.008 L 272 288.685 C 272 296.034 265.968 302 258.537 302 Z " fill="none" vector-effect="non-scaling-stroke" stroke-width="2" stroke="rgb(206,206,206)" stroke-linejoin="miter" stroke-linecap="square" stroke-miterlimit="2"/><path d=" M 252.412 291.793 L 244.815 291.793 C 242.433 291.793 240.5 289.881 240.5 287.526 L 240.5 282.548 C 240.5 280.192 242.433 278.28 244.815 278.28 L 252.412 278.28 C 254.794 278.28 256.727 280.192 256.727 282.548 L 256.727 287.526 C 256.727 289.881 254.794 291.793 252.412 291.793 Z " fill="rgb(189,189,189)"/><path d=" M 205.299 291.793 L 197.702 291.793 C 195.32 291.793 193.386 289.881 193.386 287.526 L 193.386 282.548 C 193.386 280.192 195.32 278.28 197.702 278.28 L 205.299 278.28 C 207.68 278.28 209.613 280.192 209.613 282.548 L 209.613 287.526 C 209.613 289.881 207.68 291.793 205.299 291.793 Z " fill="rgb(189,189,189)"/><path d=" M 181.413 291.793 L 173.815 291.793 C 171.434 291.793 169.5 289.881 169.5 287.526 L 169.5 282.548 C 169.5 280.192 171.434 278.28 173.815 278.28 L 181.413 278.28 C 183.794 278.28 185.727 280.192 185.727 282.548 L 185.727 287.526 C 185.727 289.881 183.794 291.793 181.413 291.793 Z " fill="rgb(189,189,189)"/><path d=" M 230.139 291.793 L 222.543 291.793 C 220.16 291.793 218.227 289.881 218.227 287.526 L 218.227 282.548 C 218.227 280.192 220.16 278.28 222.543 278.28 L 230.139 278.28 C 232.521 278.28 234.454 280.192 234.454 282.548 L 234.454 287.526 C 234.454 289.881 232.521 291.793 230.139 291.793 Z " fill="rgb(189,189,189)"/><path d=" M 157.307 291.793 L 149.709 291.793 C 147.328 291.793 145.395 289.881 145.395 287.526 L 145.395 282.548 C 145.395 280.192 147.328 278.28 149.709 278.28 L 157.307 278.28 C 159.688 278.28 161.622 280.192 161.622 282.548 L 161.622 287.526 C 161.622 289.881 159.688 291.793 157.307 291.793 Z " fill="rgb(189,189,189)"/><path d=" M 133.201 291.793 L 125.604 291.793 C 123.222 291.793 121.289 289.881 121.289 287.526 L 121.289 282.548 C 121.289 280.192 123.222 278.28 125.604 278.28 L 133.201 278.28 C 135.583 278.28 137.516 280.192 137.516 282.548 L 137.516 287.526 C 137.516 289.881 135.583 291.793 133.201 291.793 Z " fill="rgb(189,189,189)"/><path d=" M 109.096 291.793 L 101.498 291.793 C 99.117 291.793 97.183 289.881 97.183 287.526 L 97.183 282.548 C 97.183 280.192 99.117 278.28 101.498 278.28 L 109.096 278.28 C 111.477 278.28 113.41 280.192 113.41 282.548 L 113.41 287.526 C 113.41 289.881 111.477 291.793 109.096 291.793 Z " fill="rgb(189,189,189)"/><path d=" M 84.99 291.793 L 77.392 291.793 C 75.011 291.793 73.078 289.881 73.078 287.526 L 73.078 282.548 C 73.078 280.192 75.011 278.28 77.392 278.28 L 84.99 278.28 C 87.372 278.28 89.305 280.192 89.305 282.548 L 89.305 287.526 C 89.305 289.881 87.372 291.793 84.99 291.793 Z " fill="rgb(189,189,189)"/><path d=" M 60.885 291.793 L 53.288 291.793 C 50.905 291.793 48.972 289.881 48.972 287.526 L 48.972 282.548 C 48.972 280.192 50.905 278.28 53.288 278.28 L 60.885 278.28 C 63.266 278.28 65.199 280.192 65.199 282.548 L 65.199 287.526 C 65.199 289.881 63.266 291.793 60.885 291.793 Z " fill="rgb(189,189,189)"/><path d=" M 37.614 291.793 L 21.748 291.793 C 18.676 291.793 16.182 289.327 16.182 286.288 L 16.182 283.785 C 16.182 280.747 18.676 278.28 21.748 278.28 L 37.614 278.28 C 40.686 278.28 43.18 280.747 43.18 283.785 L 43.18 286.288 C 43.18 289.327 40.686 291.793 37.614 291.793 Z " fill="rgb(189,189,189)"/><path d=" M 250.062 272.386 L 229.689 272.386 C 226.011 272.386 223.024 269.432 223.024 265.793 L 223.024 263.453 C 223.024 259.814 226.011 256.86 229.689 256.86 L 250.062 256.86 C 253.74 256.86 256.727 259.814 256.727 263.453 L 256.727 265.793 C 256.727 269.432 253.74 272.386 250.062 272.386 Z " fill="rgb(189,189,189)"/><path d=" M 250.122 251.11 L 219.186 251.11 C 214.859 251.11 211.346 247.636 211.346 243.357 L 211.346 243.337 C 211.346 239.058 214.859 235.584 219.186 235.584 L 250.122 235.584 C 254.448 235.584 257.961 239.058 257.961 243.337 L 257.961 243.357 C 257.961 247.636 254.448 251.11 250.122 251.11 Z " fill="rgb(189,189,189)"/><path d=" M 250.122 229.834 L 219.186 229.834 C 214.859 229.834 211.346 226.36 211.346 222.081 L 211.346 222.061 C 211.346 217.782 214.859 214.308 219.186 214.308 L 250.122 214.308 C 254.448 214.308 257.961 217.782 257.961 222.061 L 257.961 222.081 C 257.961 226.36 254.448 229.834 250.122 229.834 Z " fill="rgb(189,189,189)"/><path d=" M 201.787 250.104 L 194.19 250.104 C 191.809 250.104 189.876 248.191 189.876 245.836 L 189.876 240.858 C 189.876 238.503 191.809 236.59 194.19 236.59 L 201.787 236.59 C 204.169 236.59 206.102 238.503 206.102 240.858 L 206.102 245.836 C 206.102 248.191 204.169 250.104 201.787 250.104 Z " fill="rgb(189,189,189)"/><path d=" M 180.264 250.104 L 172.666 250.104 C 170.285 250.104 168.352 248.191 168.352 245.836 L 168.352 240.858 C 168.352 238.503 170.285 236.59 172.666 236.59 L 180.264 236.59 C 182.645 236.59 184.579 238.503 184.579 240.858 L 184.579 245.836 C 184.579 248.191 182.645 250.104 180.264 250.104 Z " fill="rgb(189,189,189)"/><path d=" M 157.773 250.104 L 150.175 250.104 C 147.794 250.104 145.861 248.191 145.861 245.836 L 145.861 240.858 C 145.861 238.503 147.794 236.59 150.175 236.59 L 157.773 236.59 C 160.154 236.59 162.088 238.503 162.088 240.858 L 162.088 245.836 C 162.088 248.191 160.154 250.104 157.773 250.104 Z " fill="rgb(189,189,189)"/><path d=" M 135.96 250.104 L 128.363 250.104 C 125.98 250.104 124.047 248.191 124.047 245.836 L 124.047 240.858 C 124.047 238.503 125.98 236.59 128.363 236.59 L 135.96 236.59 C 138.341 236.59 140.274 238.503 140.274 240.858 L 140.274 245.836 C 140.274 248.191 138.341 250.104 135.96 250.104 Z " fill="rgb(189,189,189)"/><path d=" M 113.698 250.104 L 106.101 250.104 C 103.719 250.104 101.786 248.191 101.786 245.836 L 101.786 240.858 C 101.786 238.503 103.719 236.59 106.101 236.59 L 113.698 236.59 C 116.08 236.59 118.013 238.503 118.013 240.858 L 118.013 245.836 C 118.013 248.191 116.08 250.104 113.698 250.104 Z " fill="rgb(189,189,189)"/><path d=" M 69.765 250.104 L 62.167 250.104 C 59.786 250.104 57.853 248.191 57.853 245.836 L 57.853 240.858 C 57.853 238.503 59.786 236.59 62.167 236.59 L 69.765 236.59 C 72.146 236.59 74.08 238.503 74.08 240.858 L 74.08 245.836 C 74.08 248.191 72.146 250.104 69.765 250.104 Z " fill="rgb(189,189,189)"/><path d=" M 91.505 250.104 L 83.908 250.104 C 81.526 250.104 79.593 248.191 79.593 245.836 L 79.593 240.858 C 79.593 238.503 81.526 236.59 83.908 236.59 L 91.505 236.59 C 93.887 236.59 95.82 238.503 95.82 240.858 L 95.82 245.836 C 95.82 248.191 93.887 250.104 91.505 250.104 Z " fill="rgb(189,189,189)"/><path d=" M 45.519 250.104 L 28.003 250.104 C 24.815 250.104 22.227 247.544 22.227 244.392 L 22.227 242.302 C 22.227 239.15 24.815 236.59 28.003 236.59 L 45.519 236.59 C 48.706 236.59 51.294 239.15 51.294 242.302 L 51.294 244.392 C 51.294 247.544 48.706 250.104 45.519 250.104 Z " fill="rgb(189,189,189)"/><path d=" M 201.816 229.834 L 194.203 229.834 C 191.837 229.834 189.917 227.934 189.917 225.594 L 189.917 220.704 C 189.917 218.364 191.837 216.464 194.203 216.464 L 201.816 216.464 C 204.182 216.464 206.102 218.364 206.102 220.704 L 206.102 225.594 C 206.102 227.934 204.182 229.834 201.816 229.834 Z " fill="rgb(189,189,189)"/><path d=" M 180.348 229.834 L 172.735 229.834 C 170.369 229.834 168.448 227.934 168.448 225.594 L 168.448 220.704 C 168.448 218.364 170.369 216.464 172.735 216.464 L 180.348 216.464 C 182.713 216.464 184.634 218.364 184.634 220.704 L 184.634 225.594 C 184.634 227.934 182.713 229.834 180.348 229.834 Z " fill="rgb(189,189,189)"/><path d=" M 157.913 229.834 L 150.301 229.834 C 147.936 229.834 146.015 227.934 146.015 225.594 L 146.015 220.704 C 146.015 218.364 147.936 216.464 150.301 216.464 L 157.913 216.464 C 160.279 216.464 162.2 218.364 162.2 220.704 L 162.2 225.594 C 162.2 227.934 160.279 229.834 157.913 229.834 Z " fill="rgb(189,189,189)"/><path d=" M 136.156 229.834 L 128.544 229.834 C 126.178 229.834 124.257 227.934 124.257 225.594 L 124.257 220.704 C 124.257 218.364 126.178 216.464 128.544 216.464 L 136.156 216.464 C 138.522 216.464 140.443 218.364 140.443 220.704 L 140.443 225.594 C 140.443 227.934 138.522 229.834 136.156 229.834 Z " fill="rgb(189,189,189)"/><path d=" M 113.952 229.834 L 106.34 229.834 C 103.974 229.834 102.052 227.934 102.052 225.594 L 102.052 220.704 C 102.052 218.364 103.974 216.464 106.34 216.464 L 113.952 216.464 C 116.317 216.464 118.238 218.364 118.238 220.704 L 118.238 225.594 C 118.238 227.934 116.317 229.834 113.952 229.834 Z " fill="rgb(189,189,189)"/><path d=" M 70.131 229.834 L 62.518 229.834 C 60.152 229.834 58.232 227.934 58.232 225.594 L 58.232 220.704 C 58.232 218.364 60.152 216.464 62.518 216.464 L 70.131 216.464 C 72.497 216.464 74.418 218.364 74.418 220.704 L 74.418 225.594 C 74.418 227.934 72.497 229.834 70.131 229.834 Z " fill="rgb(189,189,189)"/><path d=" M 91.815 229.834 L 84.202 229.834 C 81.837 229.834 79.916 227.934 79.916 225.594 L 79.916 220.704 C 79.916 218.364 81.837 216.464 84.202 216.464 L 91.815 216.464 C 94.181 216.464 96.102 218.364 96.102 220.704 L 96.102 225.594 C 96.102 227.934 94.181 229.834 91.815 229.834 Z " fill="rgb(189,189,189)"/><path d=" M 47.573 229.834 L 40.877 229.834 C 38.605 229.834 36.761 228.009 36.761 225.762 L 36.761 220.536 C 36.761 218.289 38.605 216.464 40.877 216.464 L 47.573 216.464 C 49.846 216.464 51.69 218.289 51.69 220.536 L 51.69 225.762 C 51.69 228.009 49.846 229.834 47.573 229.834 Z " fill="rgb(189,189,189)"/><path d=" M 26.995 229.834 L 20.299 229.834 C 18.026 229.834 16.182 228.009 16.182 225.762 L 16.182 220.536 C 16.182 218.289 18.026 216.464 20.299 216.464 L 26.995 216.464 C 29.267 216.464 31.111 218.289 31.111 220.536 L 31.111 225.762 C 31.111 228.009 29.267 229.834 26.995 229.834 Z " fill="rgb(189,189,189)"/><path d=" M 218.468 209.079 L 209.101 209.079 C 206.586 209.079 204.546 207.06 204.546 204.573 L 204.546 200.358 C 204.546 197.872 206.586 195.853 209.101 195.853 L 218.468 195.853 C 220.982 195.853 223.024 197.872 223.024 200.358 L 223.024 204.573 C 223.024 207.06 220.982 209.079 218.468 209.079 Z " fill="rgb(189,189,189)"/><path d=" M 238.352 209.079 L 230.955 209.079 C 228.628 209.079 226.739 207.21 226.739 204.909 L 226.739 200.023 C 226.739 197.721 228.628 195.853 230.955 195.853 L 238.352 195.853 C 240.679 195.853 242.569 197.721 242.569 200.023 L 242.569 204.909 C 242.569 207.21 240.679 209.079 238.352 209.079 Z " fill="rgb(189,189,189)"/><path d=" M 253.381 209.079 L 250.103 209.079 C 248.257 209.079 246.758 207.596 246.758 205.769 L 246.758 199.162 C 246.758 197.336 248.257 195.853 250.103 195.853 L 253.381 195.853 C 255.228 195.853 256.727 197.336 256.727 199.162 L 256.727 205.769 C 256.727 207.596 255.228 209.079 253.381 209.079 Z " fill="rgb(189,189,189)"/><path d=" M 195.572 208.558 L 118.699 208.558 C 115.78 208.558 113.41 206.214 113.41 203.327 L 113.41 200.275 C 113.41 197.388 115.78 195.044 118.699 195.044 L 195.572 195.044 C 198.491 195.044 200.861 197.388 200.861 200.275 L 200.861 203.327 C 200.861 206.214 198.491 208.558 195.572 208.558 Z " fill="rgb(189,189,189)"/><path d=" M 105.483 209.079 L 97.887 209.079 C 95.504 209.079 93.571 207.166 93.571 204.811 L 93.571 199.833 C 93.571 197.478 95.504 195.565 97.887 195.565 L 105.483 195.565 C 107.865 195.565 109.799 197.478 109.799 199.833 L 109.799 204.811 C 109.799 207.166 107.865 209.079 105.483 209.079 Z " fill="rgb(189,189,189)"/><path d=" M 83.29 208.27 L 75.693 208.27 C 73.312 208.27 71.378 206.358 71.378 204.002 L 71.378 199.024 C 71.378 196.669 73.312 194.757 75.693 194.757 L 83.29 194.757 C 85.672 194.757 87.606 196.669 87.606 199.024 L 87.606 204.002 C 87.606 206.358 85.672 208.27 83.29 208.27 Z " fill="rgb(189,189,189)"/><path d=" M 60.931 208.27 L 53.241 208.27 C 50.885 208.27 48.972 206.378 48.972 204.048 L 48.972 199.266 C 48.972 196.936 50.885 195.044 53.241 195.044 L 60.931 195.044 C 63.286 195.044 65.199 196.936 65.199 199.266 L 65.199 204.048 C 65.199 206.378 63.286 208.27 60.931 208.27 Z " fill="rgb(189,189,189)"/><path d=" M 23.422 208.27 L 15.733 208.27 C 13.376 208.27 11.464 206.378 11.464 204.048 L 11.464 199.266 C 11.464 196.936 13.376 195.044 15.733 195.044 L 23.422 195.044 C 25.778 195.044 27.691 196.936 27.691 199.266 L 27.691 204.048 C 27.691 206.378 25.778 208.27 23.422 208.27 Z " fill="rgb(189,189,189)"/><path d=" M 43.697 208.27 L 32.966 208.27 C 31.45 208.27 30.218 207.052 30.218 205.552 L 30.218 205.507 C 30.218 204.007 31.45 202.789 32.966 202.789 L 43.697 202.789 C 45.214 202.789 46.445 204.007 46.445 205.507 L 46.445 205.552 C 46.445 207.052 45.214 208.27 43.697 208.27 Z " fill="rgb(189,189,189)"/><path d=" M 211.496 272.386 L 203.9 272.386 C 201.517 272.386 199.584 270.474 199.584 268.118 L 199.584 263.14 C 199.584 260.785 201.517 258.873 203.9 258.873 L 211.496 258.873 C 213.878 258.873 215.812 260.785 215.812 263.14 L 215.812 268.118 C 215.812 270.474 213.878 272.386 211.496 272.386 Z " fill="rgb(189,189,189)"/><path d=" M 189.973 272.386 L 182.376 272.386 C 179.994 272.386 178.061 270.474 178.061 268.118 L 178.061 263.14 C 178.061 260.785 179.994 258.873 182.376 258.873 L 189.973 258.873 C 192.355 258.873 194.288 260.785 194.288 263.14 L 194.288 268.118 C 194.288 270.474 192.355 272.386 189.973 272.386 Z " fill="rgb(189,189,189)"/><path d=" M 167.481 272.386 L 159.885 272.386 C 157.503 272.386 155.57 270.474 155.57 268.118 L 155.57 263.14 C 155.57 260.785 157.503 258.873 159.885 258.873 L 167.481 258.873 C 169.864 258.873 171.797 260.785 171.797 263.14 L 171.797 268.118 C 171.797 270.474 169.864 272.386 167.481 272.386 Z " fill="rgb(189,189,189)"/><path d=" M 145.669 272.386 L 138.071 272.386 C 135.69 272.386 133.757 270.474 133.757 268.118 L 133.757 263.14 C 133.757 260.785 135.69 258.873 138.071 258.873 L 145.669 258.873 C 148.05 258.873 149.984 260.785 149.984 263.14 L 149.984 268.118 C 149.984 270.474 148.05 272.386 145.669 272.386 Z " fill="rgb(189,189,189)"/><path d=" M 123.407 272.386 L 115.81 272.386 C 113.428 272.386 111.495 270.474 111.495 268.118 L 111.495 263.14 C 111.495 260.785 113.428 258.873 115.81 258.873 L 123.407 258.873 C 125.788 258.873 127.723 260.785 127.723 263.14 L 127.723 268.118 C 127.723 270.474 125.788 272.386 123.407 272.386 Z " fill="rgb(189,189,189)"/><path d=" M 79.473 272.386 L 71.877 272.386 C 69.495 272.386 67.561 270.474 67.561 268.118 L 67.561 263.14 C 67.561 260.785 69.495 258.873 71.877 258.873 L 79.473 258.873 C 81.856 258.873 83.789 260.785 83.789 263.14 L 83.789 268.118 C 83.789 270.474 81.856 272.386 79.473 272.386 Z " fill="rgb(189,189,189)"/><path d=" M 101.214 272.386 L 93.617 272.386 C 91.236 272.386 89.301 270.474 89.301 268.118 L 89.301 263.14 C 89.301 260.785 91.236 258.873 93.617 258.873 L 101.214 258.873 C 103.595 258.873 105.529 260.785 105.529 263.14 L 105.529 268.118 C 105.529 270.474 103.595 272.386 101.214 272.386 Z " fill="rgb(189,189,189)"/><path d=" M 57.042 272.386 L 49.444 272.386 C 47.063 272.386 45.13 270.474 45.13 268.118 L 45.13 263.14 C 45.13 260.785 47.063 258.873 49.444 258.873 L 57.042 258.873 C 59.423 258.873 61.357 260.785 61.357 263.14 L 61.357 268.118 C 61.357 270.474 59.423 272.386 57.042 272.386 Z " fill="rgb(189,189,189)"/><path d=" M 34.61 272.386 L 27.013 272.386 C 24.632 272.386 22.697 270.474 22.697 268.118 L 22.697 263.14 C 22.697 260.785 24.632 258.873 27.013 258.873 L 34.61 258.873 C 36.991 258.873 38.925 260.785 38.925 263.14 L 38.925 268.118 C 38.925 270.474 36.991 272.386 34.61 272.386 Z " fill="rgb(189,189,189)"/><path d=" M 43.697 200.992 L 32.966 200.992 C 31.45 200.992 30.218 199.774 30.218 198.274 L 30.218 198.229 C 30.218 196.729 31.45 195.512 32.966 195.512 L 43.697 195.512 C 45.214 195.512 46.445 196.729 46.445 198.229 L 46.445 198.274 C 46.445 199.774 45.214 200.992 43.697 200.992 Z " fill="rgb(189,189,189)"/></g><path d=" M 208.417 156.941 C 231.816 139.059 246.005 116.825 240.082 107.32 C 234.159 97.815 210.355 104.615 186.957 122.497" fill="rgb(172,132,73)"/></g><g><rect x="304.581" y="146.867" width="17.669" height="16.638" transform="matrix(0.872,0.489,-0.49,0.872,116.105,-133.375)" fill="rgb(55,203,253)"/><rect x="306.584" y="147.655" width="14.485" height="13.489" transform="matrix(0.867,0.498,-0.498,0.867,118.654,-135.831)" fill="rgb(133,224,255)"/><rect x="308.417" y="148.33" width="12.365" height="10.866" transform="matrix(0.867,0.498,-0.498,0.867,118.44,-136.301)" fill="rgb(171,234,255)"/><rect x="311.073" y="148.942" width="8.479" height="7.869" transform="matrix(0.867,0.498,-0.498,0.867,118.093,-136.774)" fill="rgb(202,242,255)"/><rect x="314.46" y="150.124" width="3.873" height="3.886" transform="matrix(0.867,0.498,-0.498,0.867,117.834,-137.422)" fill="rgb(251,254,255)"/></g><line x1="94.667" y1="37.111" x2="113.333" y2="45" vector-effect="non-scaling-stroke" stroke-width="2" stroke="rgb(117,90,50)" stroke-linejoin="miter" stroke-linecap="square" stroke-miterlimit="3"/><line x1="171.333" y1="37.111" x2="152.667" y2="45" vector-effect="non-scaling-stroke" stroke-width="2" stroke="rgb(117,90,50)" stroke-linejoin="miter" stroke-linecap="square" stroke-miterlimit="3"/><g><path d=" M 3.962 99.788 C 3.993 88.264 14.333 78.909 27.038 78.909 C 39.742 78.909 50.031 88.264 50 99.788 C 49.968 111.311 39.628 120.667 26.924 120.667 C 14.219 120.667 3.93 111.311 3.962 99.788 Z " fill="rgb(255,70,29)"/><path d=" M 6.773 97.561 C 7.044 87.458 16.589 79.468 28.076 79.73 C 39.563 79.991 48.67 88.405 48.399 98.507 C 48.128 108.61 38.582 116.6 27.095 116.338 C 15.608 116.077 6.502 107.663 6.773 97.561 Z " fill="rgb(253,133,53)"/><path d=" M 10.329 95.633 C 10.562 86.949 18.407 80.073 27.836 80.287 C 37.266 80.502 44.733 87.726 44.5 96.41 C 44.267 105.094 36.422 111.97 26.993 111.756 C 17.563 111.541 10.097 104.317 10.329 95.633 Z " fill="rgb(255,168,29)"/><path d=" M 12.472 93.175 C 12.658 86.263 19.214 80.798 27.104 80.977 C 34.994 81.156 41.249 86.913 41.064 93.825 C 40.879 100.737 34.322 106.203 26.432 106.023 C 18.542 105.844 12.287 100.087 12.472 93.175 Z " fill="rgb(253,218,42)"/><path d=" M 17.439 88.869 C 17.548 84.793 21.543 81.573 26.354 81.682 C 31.165 81.792 34.982 85.19 34.873 89.266 C 34.763 93.342 30.769 96.562 25.958 96.453 C 21.147 96.344 17.33 92.946 17.439 88.869 Z " fill="rgb(255,240,108)"/></g><g><path d=" M 23.962 17.788 C 23.978 11.784 29.377 6.909 36.011 6.909 C 42.644 6.909 48.016 11.784 48 17.788 C 47.984 23.792 42.585 28.667 35.951 28.667 C 29.318 28.667 23.945 23.792 23.962 17.788 Z " fill="rgb(255,70,29)"/><path d=" M 25.429 16.627 C 25.571 11.364 30.555 7.2 36.553 7.337 C 42.551 7.473 47.305 11.857 47.164 17.121 C 47.022 22.384 42.038 26.547 36.04 26.411 C 30.043 26.275 25.288 21.891 25.429 16.627 Z " fill="rgb(253,133,53)"/><path d=" M 27.287 15.623 C 27.408 11.098 31.504 7.515 36.428 7.627 C 41.351 7.739 45.25 11.503 45.128 16.028 C 45.007 20.553 40.911 24.135 35.987 24.024 C 31.064 23.912 27.165 20.148 27.287 15.623 Z " fill="rgb(255,168,29)"/><path d=" M 28.405 14.342 C 28.502 10.741 31.925 7.893 36.045 7.986 C 40.165 8.08 43.431 11.08 43.334 14.681 C 43.237 18.282 39.814 21.13 35.694 21.037 C 31.575 20.943 28.309 17.944 28.405 14.342 Z " fill="rgb(253,218,42)"/><path d=" M 30.999 12.099 C 31.056 9.975 33.141 8.297 35.653 8.354 C 38.165 8.411 40.159 10.181 40.101 12.305 C 40.044 14.429 37.959 16.107 35.447 16.05 C 32.935 15.993 30.942 14.223 30.999 12.099 Z " fill="rgb(255,240,108)"/></g><g><path d=" M 46.426 65.238 C 43.544 60.638 44.618 54.754 48.821 52.108 C 53.025 49.462 58.777 51.048 61.659 55.649 C 64.54 60.249 63.467 66.132 59.263 68.779 C 55.059 71.425 49.307 69.838 46.426 65.238 Z " fill="rgb(255,70,29)"/><path d=" M 46.797 63.765 C 44.351 59.681 45.505 54.508 49.371 52.219 C 53.237 49.931 58.362 51.388 60.808 55.472 C 63.253 59.555 62.1 64.729 58.233 67.018 C 54.367 69.306 49.243 67.849 46.797 63.765 Z " fill="rgb(253,133,53)"/><path d=" M 47.49 62.256 C 45.388 58.745 46.258 54.37 49.432 52.491 C 52.605 50.613 56.889 51.937 58.991 55.448 C 61.093 58.958 60.223 63.333 57.05 65.212 C 53.876 67.091 49.592 65.766 47.49 62.256 Z " fill="rgb(255,168,29)"/><path d=" M 47.582 60.829 C 45.909 58.035 46.707 54.491 49.362 52.919 C 52.018 51.347 55.532 52.339 57.206 55.133 C 58.879 57.927 58.081 61.471 55.426 63.043 C 52.77 64.615 49.255 63.623 47.582 60.829 Z " fill="rgb(253,218,42)"/><path d=" M 48.145 58.078 C 47.158 56.431 47.672 54.315 49.291 53.356 C 50.91 52.398 53.026 52.957 54.013 54.605 C 55 56.253 54.486 58.369 52.867 59.327 C 51.248 60.286 49.132 59.726 48.145 58.078 Z " fill="rgb(255,240,108)"/></g><g><path d=" M 15.521 56.212 C 13.688 53.284 14.613 49.387 17.587 47.515 C 20.56 45.643 24.462 46.501 26.295 49.43 C 28.129 52.358 27.203 56.255 24.23 58.127 C 21.257 59.999 17.354 59.141 15.521 56.212 Z " fill="rgb(255,70,29)"/><path d=" M 15.823 55.233 C 14.273 52.63 15.231 49.196 17.961 47.57 C 20.691 45.944 24.166 46.737 25.716 49.341 C 27.266 51.944 26.309 55.377 23.578 57.003 C 20.848 58.63 17.373 57.836 15.823 55.233 Z " fill="rgb(253,133,53)"/><path d=" M 16.348 54.22 C 15.015 51.982 15.753 49.082 17.994 47.747 C 20.235 46.412 23.136 47.145 24.469 49.383 C 25.801 51.621 25.064 54.521 22.823 55.856 C 20.582 57.191 17.68 56.458 16.348 54.22 Z " fill="rgb(255,168,29)"/><path d=" M 16.456 53.281 C 15.396 51.5 16.057 49.147 17.932 48.03 C 19.808 46.913 22.191 47.452 23.252 49.233 C 24.312 51.014 23.651 53.367 21.776 54.484 C 19.901 55.601 17.517 55.062 16.456 53.281 Z " fill="rgb(253,218,42)"/><path d=" M 16.931 51.456 C 16.306 50.406 16.726 49.001 17.87 48.319 C 19.013 47.638 20.449 47.938 21.075 48.989 C 21.7 50.039 21.28 51.445 20.136 52.126 C 18.993 52.807 17.557 52.507 16.931 51.456 Z " fill="rgb(255,240,108)"/></g><g><path d=" M 213.123 49.03 C 214.775 46.79 218.417 46.656 221.251 48.732 C 224.086 50.807 225.047 54.311 223.396 56.551 C 221.745 58.792 218.103 58.926 215.268 56.85 C 212.433 54.774 211.472 51.27 213.123 49.03 Z " fill="rgb(255,70,29)"/><path d=" M 214.068 49.055 C 215.57 47.131 218.84 47.134 221.366 49.061 C 223.892 50.989 224.723 54.116 223.221 56.04 C 221.72 57.965 218.45 57.962 215.924 56.034 C 213.398 54.107 212.567 50.98 214.068 49.055 Z " fill="rgb(253,133,53)"/><path d=" M 215.137 49.261 C 216.428 47.607 219.159 47.548 221.233 49.131 C 223.306 50.713 223.942 53.341 222.651 54.995 C 221.36 56.649 218.628 56.707 216.555 55.125 C 214.481 53.542 213.846 50.915 215.137 49.261 Z " fill="rgb(255,168,29)"/><path d=" M 215.966 49.132 C 216.993 47.815 219.236 47.821 220.971 49.145 C 222.706 50.469 223.28 52.613 222.253 53.93 C 221.225 55.246 218.983 55.24 217.248 53.916 C 215.513 52.592 214.938 50.448 215.966 49.132 Z " fill="rgb(253,218,42)"/><path d=" M 217.688 49.104 C 218.294 48.328 219.645 48.353 220.703 49.16 C 221.761 49.967 222.128 51.253 221.522 52.03 C 220.916 52.806 219.565 52.781 218.507 51.974 C 217.449 51.166 217.082 49.881 217.688 49.104 Z " fill="rgb(255,240,108)"/></g><g><path d=" M 15.609 149.724 C 18.601 143.399 26.537 140.851 33.319 144.038 C 40.101 147.225 43.179 154.947 40.186 161.272 C 37.194 167.597 29.258 170.145 22.476 166.958 C 15.694 163.771 12.617 156.049 15.609 149.724 Z " fill="rgb(255,70,29)"/><path d=" M 17.684 149.205 C 20.438 143.721 27.597 141.725 33.662 144.75 C 39.727 147.775 42.415 154.683 39.662 160.167 C 36.909 165.65 29.75 167.647 23.685 164.622 C 17.62 161.597 14.931 154.689 17.684 149.205 Z " fill="rgb(253,133,53)"/><path d=" M 20.081 149.038 C 22.448 144.324 28.411 142.513 33.39 144.996 C 38.368 147.479 40.489 153.322 38.122 158.036 C 35.756 162.75 29.792 164.561 24.814 162.078 C 19.835 159.595 17.714 153.752 20.081 149.038 Z " fill="rgb(255,168,29)"/><path d=" M 21.86 148.225 C 23.743 144.473 28.655 143.114 32.82 145.191 C 36.986 147.269 38.839 152.002 36.955 155.754 C 35.072 159.506 30.16 160.865 25.995 158.787 C 21.829 156.709 19.976 151.977 21.86 148.225 Z " fill="rgb(253,218,42)"/><path d=" M 25.623 147.104 C 26.734 144.892 29.698 144.124 32.238 145.391 C 34.778 146.658 35.938 149.482 34.827 151.695 C 33.717 153.908 30.753 154.676 28.212 153.409 C 25.672 152.142 24.512 149.317 25.623 147.104 Z " fill="rgb(255,240,108)"/></g><g><path d=" M 236.365 161.02 C 232.586 156.543 232.594 150.301 236.383 147.088 C 240.172 143.876 246.316 144.903 250.095 149.38 C 253.875 153.857 253.867 160.1 250.078 163.312 C 246.289 166.524 240.145 165.497 236.365 161.02 Z " fill="rgb(255,70,29)"/><path d=" M 236.471 159.446 C 233.231 155.459 233.451 149.947 236.962 147.144 C 240.474 144.341 245.956 145.302 249.197 149.289 C 252.438 153.275 252.218 158.787 248.706 161.59 C 245.194 164.393 239.712 163.432 236.471 159.446 Z " fill="rgb(253,133,53)"/><path d=" M 236.898 157.799 C 234.113 154.372 234.191 149.722 237.074 147.421 C 239.957 145.12 244.559 146.034 247.345 149.461 C 250.13 152.888 250.051 157.538 247.169 159.839 C 244.286 162.14 239.684 161.226 236.898 157.799 Z " fill="rgb(255,168,29)"/><path d=" M 236.729 156.304 C 234.512 153.576 234.67 149.799 237.082 147.874 C 239.494 145.949 243.253 146.6 245.47 149.327 C 247.687 152.055 247.529 155.832 245.117 157.757 C 242.705 159.682 238.946 159.031 236.729 156.304 Z " fill="rgb(253,218,42)"/><path d=" M 236.795 153.378 C 235.487 151.77 235.62 149.511 237.091 148.337 C 238.561 147.163 240.817 147.516 242.124 149.124 C 243.432 150.733 243.3 152.992 241.829 154.166 C 240.358 155.34 238.102 154.987 236.795 153.378 Z " fill="rgb(255,240,108)"/></g><g><path d=" M 254.185 139.071 C 254.482 135.247 258.149 132.399 262.369 132.715 C 266.59 133.031 269.775 136.391 269.479 140.215 C 269.182 144.038 265.515 146.886 261.295 146.571 C 257.074 146.255 253.889 142.894 254.185 139.071 Z " fill="rgb(255,70,29)"/><path d=" M 255.174 138.402 C 255.515 135.056 258.884 132.641 262.694 133.013 C 266.503 133.385 269.319 136.404 268.979 139.75 C 268.638 143.096 265.268 145.511 261.459 145.138 C 257.649 144.766 254.833 141.748 255.174 138.402 Z " fill="rgb(253,133,53)"/><path d=" M 256.403 137.85 C 256.696 134.974 259.473 132.887 262.6 133.192 C 265.727 133.498 268.028 136.081 267.736 138.957 C 267.443 141.833 264.666 143.921 261.539 143.615 C 258.412 143.31 256.111 140.726 256.403 137.85 Z " fill="rgb(255,168,29)"/><path d=" M 257.176 137.088 C 257.41 134.798 259.723 133.147 262.34 133.403 C 264.956 133.659 266.891 135.725 266.658 138.014 C 266.425 140.303 264.111 141.954 261.495 141.699 C 258.878 141.443 256.943 139.377 257.176 137.088 Z " fill="rgb(253,218,42)"/><path d=" M 258.933 135.782 C 259.071 134.432 260.478 133.463 262.073 133.618 C 263.669 133.774 264.852 134.997 264.715 136.347 C 264.577 137.697 263.17 138.667 261.575 138.511 C 259.979 138.355 258.796 137.132 258.933 135.782 Z " fill="rgb(255,240,108)"/></g><g><path d=" M 251.405 68.786 C 251.872 63.256 256.723 59.132 262.231 59.583 C 267.739 60.035 271.832 64.891 271.365 70.422 C 270.898 75.952 266.047 80.076 260.539 79.625 C 255.031 79.173 250.938 74.317 251.405 68.786 Z " fill="rgb(255,70,29)"/><path d=" M 252.711 67.817 C 253.226 62.977 257.679 59.481 262.649 60.014 C 267.619 60.548 271.236 64.91 270.721 69.75 C 270.206 74.59 265.753 78.087 260.783 77.553 C 255.813 77.019 252.197 72.657 252.711 67.817 Z " fill="rgb(253,133,53)"/><path d=" M 254.329 67.018 C 254.772 62.858 258.443 59.835 262.523 60.273 C 266.603 60.711 269.556 64.445 269.113 68.605 C 268.671 72.765 264.999 75.788 260.919 75.35 C 256.84 74.912 253.887 71.178 254.329 67.018 Z " fill="rgb(255,168,29)"/><path d=" M 255.355 65.914 C 255.707 62.603 258.765 60.212 262.178 60.578 C 265.592 60.945 268.078 63.931 267.725 67.242 C 267.373 70.553 264.316 72.944 260.902 72.578 C 257.488 72.211 255.003 69.225 255.355 65.914 Z " fill="rgb(253,218,42)"/><path d=" M 257.678 64.024 C 257.885 62.071 259.744 60.667 261.825 60.89 C 263.907 61.114 265.428 62.881 265.221 64.833 C 265.013 66.786 263.154 68.19 261.073 67.967 C 258.991 67.743 257.47 65.977 257.678 64.024 Z " fill="rgb(255,240,108)"/></g><g><path d=" M 223.418 87.657 C 229.518 77.88 243.236 75.378 254.033 82.074 C 264.83 88.769 268.644 102.142 262.544 111.919 C 256.444 121.696 242.726 124.197 231.929 117.502 C 221.132 110.807 217.318 97.433 223.418 87.657 Z " fill="rgb(255,70,29)"/><path d=" M 226.98 87.245 C 232.535 78.802 244.858 77.043 254.483 83.319 C 264.107 89.594 267.412 101.544 261.858 109.987 C 256.304 118.43 243.98 120.189 234.356 113.914 C 224.731 107.638 221.426 95.688 226.98 87.245 Z " fill="rgb(253,133,53)"/><path d=" M 231.019 87.481 C 235.793 80.224 246.084 78.514 253.985 83.666 C 261.886 88.818 264.424 98.892 259.65 106.15 C 254.875 113.407 244.585 115.117 236.684 109.965 C 228.783 104.813 226.245 94.739 231.019 87.481 Z " fill="rgb(255,168,29)"/><path d=" M 234.136 86.522 C 237.936 80.745 246.388 79.555 252.999 83.866 C 259.61 88.177 261.892 96.366 258.092 102.142 C 254.292 107.918 245.839 109.108 239.229 104.798 C 232.618 100.487 230.336 92.298 234.136 86.522 Z " fill="rgb(253,218,42)"/><path d=" M 240.626 85.48 C 242.867 82.073 247.959 81.442 251.99 84.07 C 256.021 86.698 257.474 91.598 255.233 95.005 C 252.992 98.411 247.9 99.043 243.869 96.414 C 239.838 93.786 238.384 88.886 240.626 85.48 Z " fill="rgb(255,240,108)"/></g><g><path d=" M 232.362 16.909 C 236.829 9.747 246.511 7.689 253.97 12.314 C 261.429 16.94 263.859 26.509 259.392 33.67 C 254.926 40.832 245.244 42.891 237.785 38.265 C 230.326 33.64 227.896 24.07 232.362 16.909 Z " fill="rgb(255,70,29)"/><path d=" M 234.872 16.546 C 238.931 10.356 247.619 8.858 254.263 13.203 C 260.906 17.548 263.005 26.101 258.947 32.29 C 254.888 38.48 246.199 39.978 239.556 35.633 C 232.912 31.288 230.814 22.736 234.872 16.546 Z " fill="rgb(253,133,53)"/><path d=" M 237.704 16.641 C 241.193 11.32 248.453 9.896 253.907 13.463 C 259.36 17.029 260.956 24.245 257.467 29.565 C 253.978 34.886 246.718 36.31 241.265 32.743 C 235.811 29.177 234.216 21.961 237.704 16.641 Z " fill="rgb(255,168,29)"/><path d=" M 239.911 15.891 C 242.688 11.656 248.647 10.641 253.21 13.625 C 257.773 16.61 259.224 22.471 256.447 26.705 C 253.671 30.94 247.712 31.955 243.148 28.971 C 238.585 25.987 237.135 20.126 239.911 15.891 Z " fill="rgb(253,218,42)"/><path d=" M 244.489 15.019 C 246.127 12.522 249.715 11.971 252.498 13.791 C 255.28 15.611 256.21 19.116 254.572 21.613 C 252.935 24.111 249.346 24.661 246.564 22.841 C 243.781 21.022 242.852 17.517 244.489 15.019 Z " fill="rgb(255,240,108)"/></g></g></svg>