<?xml version="1.0" standalone="no"?><!-- Generator: Gravit.io --><svg xmlns="http://www.w3.org/2000/svg" xmlns:xlink="http://www.w3.org/1999/xlink" style="isolation:isolate" viewBox="0 0 350 150" width="350" height="150"><defs><clipPath id="_clipPath_3KCm6ZXETkKK7DDu7C1HCTKDqc7JD0no"><rect width="350" height="150"/></clipPath></defs><g clip-path="url(#_clipPath_3KCm6ZXETkKK7DDu7C1HCTKDqc7JD0no)"><path d=" M 168.383 13.711 C 174.797 9.882 182.6 7.649 191.009 7.649 C 208.409 7.649 223.216 17.21 228.612 30.519 L 228.612 30.519 C 235.887 22.328 247.399 17.033 260.348 17.033 C 276.977 17.033 291.238 25.766 297.162 38.166 C 301.663 36.635 306.573 35.802 311.71 35.802 C 333.679 35.802 351.515 51.044 351.515 69.819 C 351.515 83.519 342.019 95.337 328.344 100.717 C 328.381 101.362 328.402 102.011 328.402 102.664 C 328.402 121.439 310.566 136.681 288.597 136.681 C 276.577 136.681 265.795 132.119 258.508 124.9 C 251.53 134.767 238.858 141.373 224.395 141.373 C 209.003 141.373 195.64 133.892 189.037 122.945 C 185.641 138.765 169.406 150.758 149.92 150.758 C 134.111 150.758 120.442 142.864 114.008 131.447 L 114.008 131.447 C 109.859 132.506 105.496 133.067 100.996 133.067 C 73.285 133.067 50.788 111.801 50.788 85.607 C 50.788 59.414 73.285 38.148 100.996 38.148 C 101.476 38.148 101.955 38.154 102.433 38.166 C 103.146 19.925 120.698 5.303 142.215 5.303 C 152.234 5.303 161.393 8.473 168.383 13.711 L 168.383 13.711 Z " fill-rule="evenodd" fill="rgb(255,222,222)"/><ellipse vector-effect="non-scaling-stroke" cx="152.651515151515" cy="112.12121212121212" rx="30.681818181818187" ry="27.272727272727252" fill="rgb(255,192,192)"/><ellipse vector-effect="non-scaling-stroke" cx="145.83333333333314" cy="98.48484848484844" rx="30.681818181818187" ry="27.272727272727252" fill="rgb(255,222,222)"/><path d=" M 258.988 107.736 C 259.03 109.283 259.23 110.842 259.589 112.397 C 262.968 127.065 279.109 135.886 295.611 132.084 C 312.112 128.282 322.765 113.286 319.385 98.618 C 318.486 94.715 316.683 91.226 314.199 88.288 C 314.654 101.348 304.576 113.692 289.824 117.092 C 277.714 119.882 265.797 115.873 258.988 107.736 Z " fill-rule="evenodd" fill="rgb(255,192,192)"/><path d=" M 62.925 92.9 C 59.368 74.333 70.58 55.351 87.946 50.538 C 105.313 45.724 122.3 56.891 125.857 75.458 C 129.414 94.026 118.202 113.008 100.836 117.821 C 83.47 122.634 66.482 111.467 62.925 92.9 Z " fill-rule="evenodd" fill="rgb(255,245,245)"/><path d=" M 197.625 114.483 C 197.664 115.757 197.856 117.039 198.2 118.318 C 201.436 130.385 216.893 137.642 232.695 134.514 C 248.497 131.386 258.698 119.05 255.461 106.983 C 254.6 103.773 252.874 100.902 250.495 98.485 C 250.93 109.229 241.28 119.384 227.153 122.18 C 215.556 124.476 204.145 121.178 197.625 114.483 Z " fill-rule="evenodd" fill="rgb(255,192,192)"/><path d=" M 144.121 34.642 C 144.209 34.261 144.284 33.874 144.351 33.481 C 145.909 24.347 142.055 16.203 135.749 15.306 C 129.444 14.409 123.06 21.096 121.502 30.231 C 119.944 39.365 123.799 47.509 130.104 48.406 C 130.633 48.481 131.162 48.503 131.689 48.47 C 132.263 46.322 133.223 44.167 134.573 42.147 C 137.144 38.3 140.625 35.696 144.121 34.642 Z " fill-rule="evenodd" fill="rgb(255,249,249)"/><ellipse vector-effect="non-scaling-stroke" cx="145.83333333333314" cy="98.48484848484844" rx="30.681818181818187" ry="27.272727272727252" fill="rgb(255,222,222)"/><ellipse vector-effect="non-scaling-stroke" cx="109.46969696969703" cy="92.80303030303028" rx="35.227272727272776" ry="39.77272727272728" fill="rgb(255,222,222)"/></g></svg>